SplineFontDB: 3.2
FontName: SeriousShannsLight
FullName: Serious Shanns Light
FamilyName: Serious Shanns
Weight: Light
Copyright: https://github.com/kaBeech/serious-shanns/blob/main/LICENSE
Version: 6.0.0
ItalicAngle: 0
UnderlinePosition: 0
UnderlineWidth: 0
Ascent: 800
Descent: 200
InvalidEm: 0
sfntRevision: 0x00003333
LayerCount: 2
Layer: 0 0 "Back" 1
Layer: 1 0 "Fore" 0
XUID: [1021 329 -1817886000 12366394]
StyleMap: 0x0040
FSType: 0
OS2Version: 3
OS2_WeightWidthSlopeOnly: 0
OS2_UseTypoMetrics: 0
CreationTime: 1532631502
ModificationTime: 315532800
PfmFamily: 49
TTFWeight: 300
TTFWidth: 5
LineGap: 0
VLineGap: 0
Panose: 0 0 0 0 0 0 0 0 0 0
OS2TypoAscent: 613
OS2TypoAOffset: 0
OS2TypoDescent: -188
OS2TypoDOffset: 0
OS2TypoLinegap: 98
OS2WinAscent: 778
OS2WinAOffset: 0
OS2WinDescent: 308
OS2WinDOffset: 0
HheadAscent: 796
HheadAOffset: 0
HheadDescent: -317
HheadDOffset: 0
OS2SubXSize: 317
OS2SubYSize: 293
OS2SubXOff: 0
OS2SubYOff: 37
OS2SupXSize: 317
OS2SupYSize: 293
OS2SupXOff: 0
OS2SupYOff: 171
OS2StrikeYSize: 0
OS2StrikeYPos: 132
OS2CapHeight: 576
OS2XHeight: 485
OS2Vendor: 'NONE'
OS2CodePages: 00000001.00000000
OS2UnicodeRanges: 00000001.00000000.00000000.00000000
MarkAttachClasses: 1
DEI: 91125
LangName: 1033 "" "" "Normal" "FontForge 2.0 : Serious Shanns Light : 1-1-1980" "" "Version 0.2.0"
Encoding: UnicodeBmp
Compacted: 1
UnicodeInterp: none
NameList: AGL For New Fonts
DisplaySize: -48
AntiAlias: 1
FitToEm: 0
WinInfo: 0 16 7
BeginPrivate: 8
BlueValues 32 [-39 -8 492 523 690 718 765 769]
OtherBlues 11 [-297 -287]
BlueScale 9 0.0333333
BlueShift 2 17
StdHW 4 [67]
StdVW 4 [73]
StemSnapH 4 [67]
StemSnapV 7 [68 73]
EndPrivate
BeginChars: 65537 107

StartChar: .notdef
Encoding: 65536 -1 0
Width: 550
VWidth: 886
GlyphClass: 1
Flags: HMW
HStem: -183.225 28.9<152.575 442.425 152.575 471.325> 635.325 28.9<152.575 442.425 152.575 152.575>
VStem: 123.675 28.9<-154.325 -154.325 -154.325 635.325> 442.425 28.9<-154.325 635.325 635.325 635.325>
LayerCount: 2
Fore
SplineSet
123.674804688 664.224609375 m 1
 471.325195312 664.224609375 l 1
 471.325195312 -183.224609375 l 1
 123.674804688 -183.224609375 l 1
 123.674804688 664.224609375 l 1
152.575195312 -154.325195312 m 1
 442.424804688 -154.325195312 l 1
 442.424804688 635.325195312 l 1
 152.575195312 635.325195312 l 1
 152.575195312 -154.325195312 l 1
EndSplineSet
Validated: 524289
EndChar

StartChar: exclam
Encoding: 33 33 2
Width: 550
VWidth: 907
GlyphClass: 2
Flags: HMW
HStem: 44.2735 115.069
VStem: 236.725 121.551 265.625 66.3008 272.425 61.2
LayerCount: 2
Fore
SplineSet
338.724609375 684.646484375 m 0x90
 338.724609375 679.546875 337.591796875 647.815429688 335.325195312 589.44921875 c 0
 333.625 531.08203125 332.775390625 488.865234375 332.775390625 462.797851562 c 0
 332.491210938 449.764648438 332.349609375 437.79296875 332.349609375 426.883789062 c 0
 332.349609375 415.974609375 332.491210938 406.12890625 332.775390625 397.344726562 c 0
 333.341796875 379.778320312 333.625 364.760742188 333.625 352.293945312 c 0x90
 333.625 339.827148438 333.341796875 331.610351562 332.775390625 327.643554688 c 0
 332.01953125 321.977539062 331.641601562 314.172851562 331.641601562 304.228515625 c 0
 331.641601562 299.251953125 331.736328125 293.740234375 331.92578125 287.693359375 c 0xa0
 330.79296875 278.060546875 326.826171875 270.41015625 320.026367188 264.743164062 c 0
 313.79296875 259.076171875 306.142578125 256.243164062 297.076171875 256.243164062 c 2
 294.526367188 256.243164062 l 2
 285.458984375 256.810546875 278.091796875 259.926757812 272.424804688 265.59375 c 0x90
 267.891601562 270.694335938 265.625 277.77734375 265.625 286.84375 c 0xa0
 265.625 292.510742188 266.7578125 302.143554688 269.025390625 315.744140625 c 0
 270.724609375 323.676757812 271.858398438 332.176757812 272.424804688 341.244140625 c 0
 272.9921875 350.310546875 273.275390625 369.578125 273.275390625 399.044921875 c 0
 273.275390625 410.944335938 272.708007812 429.078125 271.575195312 453.444335938 c 0
 270.442382812 480.078125 269.875 509.260742188 269.875 540.994140625 c 0
 270.442382812 564.2265625 271.291992188 597.09375 272.424804688 639.59375 c 0
 272.9921875 661.126953125 273.275390625 675.293945312 273.275390625 682.09375 c 0
 273.841796875 695.126953125 277.2421875 704.759765625 283.474609375 710.993164062 c 0
 289.708007812 717.2265625 297.641601562 720.342773438 307.274414062 720.342773438 c 2
 309.82421875 720.342773438 l 2
 318.32421875 720.342773438 325.124023438 717.79296875 330.224609375 712.693359375 c 0
 335.891601562 707.026367188 338.724609375 697.6796875 338.724609375 684.646484375 c 0x90
342.124023438 64.1455078125 m 0
 331.357421875 53.37890625 316.907226562 46.861328125 298.774414062 44.5947265625 c 0
 296.506835938 44.3818359375 294.293945312 44.2763671875 292.1328125 44.2763671875 c 0
 277.010742188 44.2763671875 264.491210938 49.482421875 254.575195312 59.89453125 c 0
 242.674804688 71.794921875 236.724609375 86.2451171875 236.724609375 103.245117188 c 0
 236.724609375 117.977539062 242.958007812 130.727539062 255.424804688 141.495117188 c 0
 269.591796875 153.39453125 285.458984375 159.344726562 303.026367188 159.344726562 c 0
 318.892578125 159.344726562 331.92578125 154.245117188 342.125976562 144.044921875 c 0
 352.892578125 133.27734375 358.276367188 119.9609375 358.276367188 104.09375 c 0xc0
 358.276367188 88.2265625 352.891601562 74.912109375 342.124023438 64.1455078125 c 0
EndSplineSet
Validated: 524289
EndChar

StartChar: quotedbl
Encoding: 34 34 3
Width: 550
VWidth: 941
GlyphClass: 2
Flags: HMW
HStem: 469.674 278.802
VStem: 193.376 71.4 328.528 73.9483
LayerCount: 2
Fore
SplineSet
367.625976562 748.475585938 m 0
 376.125976562 748.475585938 383.776367188 746.493164062 390.576171875 742.526367188 c 0
 393.975585938 740.826171875 396.809570312 737.993164062 399.076171875 734.026367188 c 0
 401.342773438 729.493164062 402.475585938 724.392578125 402.475585938 718.725585938 c 2
 402.475585938 683.026367188 l 2
 402.475585938 666.592773438 401.909179688 636.276367188 400.776367188 592.076171875 c 0
 399.642578125 547.875976562 397.943359375 515.859375 395.67578125 496.026367188 c 0
 394.54296875 487.526367188 390.860351562 481.0078125 384.626953125 476.474609375 c 0
 378.959960938 471.94140625 372.7265625 469.674804688 365.926757812 469.674804688 c 2
 363.376953125 469.674804688 l 2
 354.309570312 470.241210938 345.809570312 473.358398438 337.876953125 479.025390625 c 0
 332.209960938 482.9921875 329.376953125 488.659179688 329.376953125 496.026367188 c 0
 329.943359375 497.159179688 330.2265625 498.576171875 330.2265625 500.276367188 c 0
 331.360351562 521.80859375 331.926757812 548.161132812 331.926757812 579.328125 c 2
 331.926757812 611.625976562 l 2
 330.793945312 656.958984375 329.661132812 694.359375 328.52734375 723.826171875 c 2
 328.52734375 725.52734375 l 2
 328.52734375 730.060546875 329.66015625 734.026367188 331.926757812 737.42578125 c 0
 334.193359375 740.826171875 337.02734375 743.092773438 340.427734375 744.225585938 c 0
 348.360351562 747.625976562 355.727539062 749.328125 362.52734375 749.328125 c 0
 364.794921875 748.760742188 366.493164062 748.475585938 367.625976562 748.475585938 c 0
259.674804688 496.026367188 m 0
 258.541992188 486.958984375 254.860351562 480.44140625 248.626953125 476.474609375 c 0
 241.827148438 471.94140625 235.309570312 469.674804688 229.077148438 469.674804688 c 2
 227.376953125 469.674804688 l 2
 218.309570312 470.241210938 209.809570312 473.358398438 201.876953125 479.025390625 c 0
 196.209960938 482.9921875 193.376953125 488.659179688 193.376953125 496.026367188 c 2
 193.376953125 500.276367188 l 2
 195.077148438 522.943359375 195.926757812 550.42578125 195.926757812 582.725585938 c 0
 195.360351562 591.79296875 195.077148438 601.42578125 195.077148438 611.625976562 c 0
 193.943359375 656.958984375 193.09375 694.359375 192.52734375 723.826171875 c 2
 192.52734375 726.375976562 l 2
 192.52734375 730.342773438 193.376953125 734.026367188 195.077148438 737.42578125 c 0
 197.34375 740.826171875 200.176757812 743.092773438 203.577148438 744.225585938 c 0
 211.34765625 747.140625 219.327148438 748.59765625 227.514648438 748.59765625 c 0
 228.87890625 748.59765625 230.25 748.557617188 231.625976562 748.475585938 c 0
 240.125976562 748.475585938 247.776367188 746.493164062 254.576171875 742.526367188 c 0
 257.409179688 740.826171875 259.958984375 737.993164062 262.225585938 734.026367188 c 0
 264.493164062 729.493164062 265.625976562 724.110351562 265.625976562 717.876953125 c 0
 266.193359375 711.077148438 266.475585938 699.744140625 266.475585938 683.876953125 c 0
 266.475585938 668.009765625 265.909179688 637.693359375 264.776367188 592.92578125 c 0
 263.642578125 548.159179688 261.942382812 515.859375 259.674804688 496.026367188 c 0
EndSplineSet
Validated: 524289
EndChar

StartChar: numbersign
Encoding: 35 35 4
Width: 550
VWidth: 904
GlyphClass: 2
Flags: HMW
HStem: 224.2 54.3991 440.948 55.2517 644.952 17G
LayerCount: 2
Fore
SplineSet
263.080078125 440.948242188 m 1
 229.92578125 278.599609375 l 1
 259.958984375 279.166015625 296.796875 279.448242188 340.4296875 279.448242188 c 2
 347.229492188 279.448242188 l 1
 357.4296875 330.448242188 367.346679688 384.28125 376.979492188 440.948242188 c 1
 263.080078125 440.948242188 l 1
226.525390625 224.200195312 m 1
 219.725585938 224.200195312 l 1
 206.692382812 158.466796875 197.625 114.266601562 192.525390625 91.599609375 c 0
 189.125 81.400390625 182.041992188 73.1826171875 171.275390625 66.9501953125 c 0
 164.475585938 62.9833984375 157.958007812 60.9990234375 151.725585938 60.9990234375 c 0
 148.892578125 60.4326171875 146.059570312 60.71484375 143.2265625 61.8486328125 c 0
 135.29296875 63.548828125 129.342773438 69.2158203125 125.375976562 78.849609375 c 0
 123.109375 84.5166015625 121.975585938 90.1826171875 121.975585938 95.849609375 c 0
 121.975585938 101.516601562 122.826171875 107.466796875 124.526367188 113.700195312 c 0
 129.059570312 127.8671875 137.842773438 164.416992188 150.875 223.349609375 c 1
 115.17578125 223.349609375 l 2
 102.142578125 223.349609375 92.7919921875 225.6171875 87.125 230.150390625 c 0
 82.025390625 234.1171875 79.4755859375 239.5 79.4755859375 246.299804688 c 2
 79.4755859375 248 l 2
 80.0419921875 255.3671875 82.5927734375 261.317382812 87.125 265.849609375 c 0
 92.2255859375 271.516601562 101.008789062 274.633789062 113.475585938 275.201171875 c 0
 117.442382812 275.767578125 124.2421875 276.05078125 133.875 276.05078125 c 0
 143.508789062 276.05078125 152.858398438 276.333984375 161.92578125 276.900390625 c 1
 194.225585938 440.100585938 l 1
 184.025390625 440.100585938 l 1
 148.325195312 439.250976562 l 1
 145.775390625 439.250976562 l 2
 135.575195312 438.68359375 127.642578125 440.951171875 121.975585938 446.05078125 c 0
 116.30859375 450.583984375 113.475585938 456.534179688 113.475585938 463.900390625 c 2
 113.475585938 466.451171875 l 2
 113.475585938 473.250976562 116.025390625 479.201171875 121.125 484.30078125 c 0
 126.791992188 489.967773438 135.858398438 493.084960938 148.325195312 493.651367188 c 0
 159.092773438 494.21875 175.526367188 494.501953125 197.625976562 494.501953125 c 2
 204.42578125 494.501953125 l 1
 229.92578125 632.202148438 l 2
 233.893554688 644.1015625 239.560546875 652.318359375 246.926757812 656.8515625 c 0
 252.59375 660.251953125 258.260742188 661.952148438 263.927734375 661.952148438 c 0
 266.1953125 661.952148438 268.745117188 661.668945312 271.578125 661.1015625 c 0
 281.778320312 658.834960938 289.427734375 654.017578125 294.528320312 646.650390625 c 0
 297.361328125 642.118164062 298.778320312 636.451171875 298.778320312 629.650390625 c 0
 299.344726562 625.68359375 299.061523438 621.716796875 297.928710938 617.75 c 2
 273.278320312 496.200195312 l 1
 386.329101562 496.200195312 l 1
 410.12890625 626.25 l 2
 414.095703125 638.150390625 419.762695312 646.3671875 427.129882812 650.900390625 c 0
 432.229492188 654.299804688 437.612304688 656 443.279296875 656 c 0
 446.112304688 655.432617188 449.229492188 654.866210938 452.629882812 654.298828125 c 0
 462.829101562 652.032226562 470.479492188 647.499023438 475.579101562 640.69921875 c 0
 478.413085938 636.732421875 479.829101562 631.631835938 479.829101562 625.399414062 c 0
 479.829101562 621.432617188 479.262695312 616.899414062 478.129882812 611.798828125 c 0
 471.896484375 587.999023438 464.24609375 549.749023438 455.1796875 497.048828125 c 1
 465.379882812 497.048828125 l 1
 474.729492188 497.048828125 l 2
 486.629882812 497.048828125 496.262695312 493.932617188 503.629882812 487.69921875 c 0
 510.99609375 481.465820312 514.963867188 475.233398438 515.530273438 469 c 0
 514.963867188 461.6328125 512.130859375 455.116210938 507.030273438 449.44921875 c 0
 501.930664062 444.349609375 493.713867188 441.515625 482.380859375 440.948242188 c 2
 444.130859375 440.948242188 l 1
 416.930664062 278.599609375 l 1
 461.979492188 278.599609375 l 2
 472.74609375 278.599609375 479.830078125 276.616210938 483.23046875 272.649414062 c 0
 486.630859375 268.682617188 488.61328125 262.732421875 489.180664062 254.798828125 c 0
 489.180664062 245.732421875 487.48046875 238.932617188 484.080078125 234.399414062 c 0
 480.11328125 228.732421875 472.74609375 225.899414062 461.979492188 225.899414062 c 2
 407.579101562 225.899414062 l 1
 395.6796875 157.33203125 387.1796875 111.432617188 382.079101562 88.19921875 c 0
 378.112304688 78.56640625 371.3125 71.19921875 361.6796875 66.099609375 c 0
 355.446289062 62.69921875 349.213867188 60.9990234375 342.98046875 60.9990234375 c 0
 340.147460938 60.4326171875 337.030273438 60.71484375 333.630859375 61.8486328125 c 0
 325.130859375 64.115234375 318.897460938 69.498046875 314.930664062 77.998046875 c 0
 312.663085938 83.0986328125 311.530273438 88.1982421875 311.530273438 93.298828125 c 0
 311.530273438 98.3984375 312.380859375 104.065429688 314.080078125 110.298828125 c 0
 319.747070312 132.96484375 327.680664062 171.21484375 337.880859375 225.048828125 c 1
 327.680664062 225.048828125 l 1
 226.525390625 224.200195312 l 1
EndSplineSet
Validated: 524289
EndChar

StartChar: dollar
Encoding: 36 36 5
Width: 550
VWidth: 901
GlyphClass: 2
Flags: HMW
HStem: 35.0083 55.2475 363.956 53.5525 606.206 50.15<326.821 334.473 326.821 334.473>
VStem: 121.124 62.0491 274.123 49.3 274.123 53.5517 426.272 62.8991
LayerCount: 2
Fore
SplineSet
422.448242188 259.833984375 m 0xfa
 419.8984375 269.750976562 415.22265625 280.092773438 408.422851562 290.860351562 c 0
 401.623046875 301.626953125 391.706054688 311.543945312 378.672851562 320.610351562 c 0
 365.639648438 329.110351562 350.33984375 336.760742188 332.7734375 343.560546875 c 2
 323.422851562 347.810546875 l 1
 323.422851562 335.911132812 l 1
 322.572265625 210.110351562 l 2
 322.004882812 163.643554688 321.438476562 127.376953125 320.87109375 101.309570312 c 1
 331.921875 106.40625 l 2
 357.989257812 118.305664062 380.088867188 134.743164062 398.22265625 155.709960938 c 0
 416.921875 176.676757812 426.272460938 200.759765625 426.272460938 227.959960938 c 0
 426.272460938 239.29296875 424.998046875 249.916992188 422.448242188 259.833984375 c 0xfa
206.971679688 449.80859375 m 0
 221.138671875 435.075195312 240.405273438 424.30859375 264.772460938 417.508789062 c 2
 274.123046875 415.80859375 l 1xf6
 274.690429688 461.708007812 274.97265625 519.508789062 274.97265625 589.208007812 c 2
 274.97265625 600.258789062 l 1
 264.772460938 597.708007812 l 2
 241.5390625 589.775390625 222.555664062 577.591796875 207.823242188 561.159179688 c 0
 191.389648438 545.291992188 183.172851562 525.7421875 183.172851562 502.508789062 c 0
 183.172851562 482.109375 191.104492188 464.541015625 206.971679688 449.80859375 c 0
209.5234375 41.8056640625 m 0
 192.5234375 46.3388671875 178.07421875 52.85546875 166.174804688 61.35546875 c 0
 141.807617188 77.22265625 123.958007812 95.6396484375 112.625 116.606445312 c 0
 108.091796875 126.806640625 105.82421875 135.58984375 105.82421875 142.95703125 c 0
 105.82421875 152.58984375 110.357421875 159.672851562 119.424804688 164.206054688 c 0
 125.658203125 167.0390625 130.190429688 168.739257812 133.0234375 169.305664062 c 0
 135.857421875 169.873046875 138.124023438 170.15625 139.82421875 170.15625 c 2
 144.923828125 170.15625 l 2
 148.32421875 170.15625 151.866210938 168.59765625 155.548828125 165.48046875 c 0
 159.232421875 162.364257812 163.33984375 157.40625 167.873046875 150.60546875 c 0
 179.7734375 131.90625 193.65625 117.172851562 209.5234375 106.40625 c 0
 223.690429688 95.638671875 241.5390625 90.255859375 263.072265625 90.255859375 c 2
 264.772460938 90.255859375 l 1
 272.422851562 90.255859375 l 1
 273.555664062 190.555664062 274.123046875 277.823242188 274.123046875 352.055664062 c 2
 274.123046875 359.706054688 l 1
 266.755859375 360.272460938 260.09765625 360.98046875 254.1484375 361.831054688 c 2
 239.2734375 363.956054688 l 2
 221.706054688 366.22265625 205.2734375 371.323242188 189.97265625 379.255859375 c 0
 174.106445312 387.188476562 161.356445312 396.822265625 151.72265625 408.155273438 c 0
 142.08984375 419.48828125 134.58203125 431.530273438 129.19921875 444.280273438 c 0
 123.815429688 457.030273438 121.124023438 469.35546875 121.124023438 481.254882812 c 0
 121.124023438 500.521484375 124.241210938 519.080078125 130.473632812 536.9296875 c 0
 136.70703125 554.780273438 145.7734375 571.35546875 157.673828125 586.655273438 c 0
 169.57421875 601.955078125 185.440429688 615.271484375 205.2734375 626.60546875 c 0
 223.973632812 637.938476562 245.22265625 645.87109375 269.022460938 650.404296875 c 2
 274.123046875 651.25390625 l 1xfa
 275.255859375 669.387695312 275.82421875 688.086914062 275.82421875 707.354492188 c 0
 276.390625 719.821289062 278.515625 729.313476562 282.19921875 735.830078125 c 0
 285.881835938 742.346679688 291.973632812 745.60546875 300.473632812 745.60546875 c 2
 302.173828125 745.60546875 l 2
 311.241210938 746.171875 317.7578125 743.0546875 321.724609375 736.254882812 c 0
 325.69140625 730.021484375 327.674804688 721.239257812 327.674804688 709.90625 c 2
 327.674804688 657.206054688 l 1xf6
 334.47265625 656.35546875 l 2
 345.805664062 655.7890625 361.390625 652.956054688 381.223632812 647.85546875 c 0
 402.756835938 642.755859375 418.907226562 638.22265625 429.673828125 634.255859375 c 0
 438.173828125 631.422851562 444.40625 626.60546875 448.373046875 619.805664062 c 0
 451.7734375 614.138671875 453.473632812 608.471679688 453.473632812 602.8046875 c 0
 453.473632812 601.10546875 453.190429688 599.122070312 452.624023438 596.85546875 c 0
 452.056640625 591.754882812 450.639648438 588.072265625 448.373046875 585.8046875 c 0
 445.540039062 583.538085938 442.564453125 582.262695312 439.447265625 581.98046875 c 0
 436.330078125 581.697265625 433.356445312 581.5546875 430.5234375 581.5546875 c 0
 419.190429688 581.5546875 406.72265625 584.671875 393.123046875 590.905273438 c 0
 385.755859375 594.3046875 377.3984375 597.563476562 368.047851562 600.6796875 c 0
 358.698242188 603.796875 347.505859375 605.638671875 334.47265625 606.206054688 c 2
 326.821289062 606.206054688 l 1
 323.422851562 410.706054688 l 1xfa
 330.22265625 409.005859375 l 2
 353.456054688 406.172851562 374.138671875 400.505859375 392.272460938 392.005859375 c 0
 412.10546875 383.505859375 427.830078125 373.873046875 439.447265625 363.10546875 c 0
 451.064453125 352.338867188 460.838867188 340.013671875 468.772460938 326.130859375 c 0
 476.705078125 312.248046875 482.087890625 298.505859375 484.921875 284.90625 c 0
 487.754882812 271.305664062 489.171875 257.138671875 489.171875 242.40625 c 0
 489.171875 217.47265625 484.779296875 193.814453125 475.99609375 171.431640625 c 0
 467.212890625 149.048828125 455.313476562 129.640625 440.296875 113.20703125 c 0
 425.279296875 96.7744140625 407.571289062 82.607421875 387.171875 70.70703125 c 0
 369.038085938 58.8076171875 348.921875 49.740234375 326.821289062 43.5078125 c 2
 320.87109375 41.8056640625 l 1
 320.87109375 35.857421875 l 2
 321.438476562 2.4248046875 322.004882812 -20.2421875 322.572265625 -32.142578125 c 0
 321.439453125 -42.3427734375 317.897460938 -50.134765625 311.947265625 -55.517578125 c 0
 305.997070312 -60.900390625 298.772460938 -63.5927734375 290.272460938 -63.5927734375 c 2
 289.421875 -63.5927734375 l 1
 288.572265625 -63.5927734375 l 2
 281.772460938 -63.5927734375 276.671875 -61.04296875 273.272460938 -55.9423828125 c 0
 270.439453125 -51.4091796875 269.022460938 -44.892578125 269.022460938 -36.392578125 c 2
 269.022460938 -28.7421875 l 2
 270.155273438 -16.275390625 270.72265625 2.1416015625 270.72265625 26.5087890625 c 2
 270.72265625 35.0087890625 l 1
 263.072265625 35.0087890625 l 1
 259.671875 35.0087890625 l 2
 242.10546875 35.0087890625 225.389648438 37.2724609375 209.5234375 41.8056640625 c 0
EndSplineSet
Validated: 524289
EndChar

StartChar: percent
Encoding: 37 37 6
Width: 550
VWidth: 898
GlyphClass: 2
Flags: HMW
HStem: 33.6764 48.45 202.826 45.9275 424.677 46.7492 594.714 45.0139
VStem: 93.926 45.0508 107.954 58.2241 243.527 39.0983 312.378 41.6517 405.876 59.5008 456.939 44.1384
LayerCount: 2
Fore
SplineSet
363.37890625 99.1259765625 m 0xf340
 370.74609375 88.9267578125 384.0625 83.259765625 403.329101562 82.1259765625 c 2
 405.875976562 82.1259765625 l 2xf380
 421.17578125 82.1259765625 433.221679688 87.3681640625 442.004882812 97.8515625 c 0
 450.787109375 108.334960938 455.74609375 121.79296875 456.87890625 138.225585938 c 2
 456.87890625 139.075195312 l 1
 456.87890625 141.625976562 l 2
 456.918945312 142.880859375 456.939453125 144.1171875 456.939453125 145.334960938 c 0
 456.939453125 161.158203125 453.51953125 173.8046875 446.678710938 183.275390625 c 0
 437.045898438 196.30859375 422.3125 202.825195312 402.479492188 202.825195312 c 0
 387.1796875 202.825195312 375.279296875 196.875976562 366.779296875 184.975585938 c 0
 358.846679688 173.075195312 354.596679688 158.05859375 354.029296875 139.92578125 c 2
 354.029296875 136.525390625 l 2
 353.985351562 135.3046875 353.963867188 134.103515625 353.963867188 132.921875 c 0
 353.963867188 118.759765625 357.1015625 107.495117188 363.37890625 99.1259765625 c 0xf340
350.626953125 48.5517578125 m 0
 337.59375 58.46875 327.959960938 71.076171875 321.7265625 86.3759765625 c 0
 315.494140625 101.676757812 312.37890625 118.109375 312.37890625 135.676757812 c 2
 312.37890625 137.375976562 l 2
 312.37890625 170.243164062 320.595703125 197.018554688 337.028320312 217.701171875 c 0
 353.461914062 238.384765625 377.26171875 248.7265625 408.428710938 248.7265625 c 0
 409.278320312 248.744140625 410.125 248.752929688 410.965820312 248.752929688 c 0
 437.0234375 248.752929688 458.560546875 240.244140625 475.578125 223.2265625 c 0
 484.078125 214.159179688 490.594726562 201.9765625 495.127929688 186.676757812 c 0
 499.094726562 174.776367188 501.078125 161.459960938 501.078125 146.7265625 c 0xf340
 501.078125 143.326171875 500.794921875 138.2265625 500.227539062 131.426757812 c 0
 498.528320312 98.5595703125 489.4609375 73.9091796875 473.028320312 57.4765625 c 0
 456.594726562 41.609375 431.662109375 33.6767578125 398.228515625 33.6767578125 c 2
 395.678710938 33.6767578125 l 2
 378.678710938 33.6767578125 363.66015625 38.634765625 350.626953125 48.5517578125 c 0
149.1796875 489.276367188 m 0
 157.112304688 479.076171875 171.845703125 473.125976562 193.37890625 471.426757812 c 2
 194.228515625 471.426757812 l 2
 209.528320312 471.426757812 221.145507812 476.809570312 229.079101562 487.576171875 c 0
 237.01171875 498.34375 241.544921875 512.2265625 242.677734375 529.2265625 c 0
 243.245117188 530.359375 243.528320312 531.776367188 243.528320312 533.4765625 c 0
 242.9609375 553.309570312 238.427734375 568.326171875 229.927734375 578.526367188 c 0
 220.861328125 589.29296875 208.111328125 594.676757812 191.677734375 594.676757812 c 0
 190.962890625 594.701171875 190.254882812 594.713867188 189.5546875 594.713867188 c 0
 174.142578125 594.713867188 162.100585938 588.750976562 153.427734375 576.826171875 c 0
 145.495117188 565.493164062 140.677734375 550.4765625 138.977539062 531.776367188 c 2
 138.977539062 527.526367188 l 2xfb
 138.9375 526.352539062 138.916992188 525.198242188 138.916992188 524.061523438 c 0
 138.916992188 509.291015625 142.338867188 497.696289062 149.1796875 489.276367188 c 0
198.4765625 214.727539062 m 2
 321.7265625 450.177734375 l 2
 363.09375 529.510742188 391.143554688 586.459960938 405.876953125 621.02734375 c 0
 412.676757812 631.227539062 422.310546875 636.327148438 434.77734375 636.327148438 c 0
 440.444335938 636.327148438 446.111328125 634.91015625 451.778320312 632.077148438 c 0
 460.844726562 627.543945312 465.377929688 621.59375 465.377929688 614.227539062 c 0
 465.377929688 607.994140625 462.546875 600.34375 456.879882812 591.27734375 c 0
 435.346679688 556.709960938 387.461914062 468.59375 313.228515625 326.926757812 c 0
 240.12890625 185.259765625 191.111328125 89.2099609375 166.178710938 38.7763671875 c 0
 156.545898438 21.7763671875 146.62890625 13.2763671875 136.428710938 13.2763671875 c 0
 133.028320312 13.2763671875 128.920898438 14.4091796875 124.103515625 16.6767578125 c 0
 119.287109375 18.943359375 115.461914062 21.91796875 112.62890625 25.6015625 c 0
 109.795898438 29.2841796875 108.237304688 34.1015625 107.954101562 40.0517578125 c 0xf780
 107.9375 40.4013671875 107.9296875 40.7548828125 107.9296875 41.1142578125 c 0
 107.9296875 46.85546875 110.0625 53.7265625 114.329101562 61.7265625 c 0
 126.229492188 86.09375 154.27734375 137.09375 198.4765625 214.727539062 c 2
136.000976562 439.552734375 m 0
 122.118164062 449.46875 111.634765625 462.077148438 104.551757812 477.376953125 c 0
 97.46875 492.677734375 93.9267578125 509.110351562 93.9267578125 526.677734375 c 2
 93.9267578125 528.376953125 l 2xfb
 93.9267578125 561.244140625 102.994140625 588.01953125 121.126953125 608.702148438 c 0
 139.259765625 629.385742188 164.759765625 639.727539062 197.626953125 639.727539062 c 0
 198.40625 639.745117188 199.181640625 639.75390625 199.953125 639.75390625 c 0
 223.849609375 639.75390625 243.756835938 631.245117188 259.67578125 614.227539062 c 0
 267.609375 605.16015625 273.559570312 592.977539062 277.526367188 577.677734375 c 0
 280.92578125 565.77734375 282.625976562 551.89453125 282.625976562 536.02734375 c 0
 282.625976562 496.360351562 274.125976562 467.459960938 257.125976562 449.327148438 c 0
 241.826171875 432.89453125 218.026367188 424.677734375 185.7265625 424.677734375 c 2
 184.026367188 424.677734375 l 2
 165.893554688 424.677734375 149.883789062 429.635742188 136.000976562 439.552734375 c 0
EndSplineSet
Validated: 524289
EndChar

StartChar: ampersand
Encoding: 38 38 7
Width: 550
VWidth: 901
GlyphClass: 2
Flags: HMW
HStem: 23.9575 62.9009 607.908 50.2351
VStem: 86.2781 68.0025 159.378 64.6017 359.13 53.6429
LayerCount: 2
Fore
SplineSet
496.825195312 60.5078125 m 2
 496.825195312 53.7080078125 l 2
 495.125976562 40.107421875 491.159179688 31.607421875 484.92578125 28.2080078125 c 0
 481.525390625 25.9404296875 477.55859375 24.8076171875 473.025390625 24.8076171875 c 0
 469.05859375 24.8076171875 464.2421875 26.224609375 458.575195312 29.0576171875 c 0
 447.2421875 34.724609375 437.325195312 44.9248046875 428.825195312 59.6572265625 c 0
 427.125 62.490234375 423.724609375 70.7080078125 418.625 84.3076171875 c 0
 413.524414062 97.9072265625 409.274414062 108.107421875 405.875 114.907226562 c 2
 399.924804688 127.657226562 l 1
 382.357421875 103.291015625 372.158203125 89.4072265625 369.325195312 86.0078125 c 0
 366.4921875 83.1748046875 361.958984375 78.357421875 355.725585938 71.5576171875 c 0
 349.4921875 64.7578125 344.109375 59.6572265625 339.576171875 56.2578125 c 0
 335.04296875 53.4248046875 329.09375 49.4580078125 321.7265625 44.357421875 c 0
 314.926757812 39.2578125 308.126953125 35.57421875 301.326171875 33.3076171875 c 0
 294.526367188 31.041015625 286.59375 29.0576171875 277.526367188 27.357421875 c 0
 267.893554688 25.0908203125 258.260742188 23.9580078125 248.626953125 23.9580078125 c 0
 218.594726562 23.9580078125 191.111328125 31.607421875 166.177734375 46.9072265625 c 0
 141.245117188 62.2080078125 121.6953125 82.607421875 107.528320312 108.107421875 c 0
 93.361328125 134.174804688 86.2783203125 161.94140625 86.2783203125 191.408203125 c 0
 86.2783203125 237.30859375 94.7783203125 276.69140625 111.778320312 309.55859375 c 0
 132.177734375 350.358398438 166.177734375 381.241210938 213.778320312 402.208007812 c 2
 222.278320312 406.458007812 l 1
 213.778320312 420.05859375 205.844726562 432.80859375 198.478515625 444.708007812 c 0
 191.111328125 456.041015625 186.010742188 464.258789062 183.177734375 469.358398438 c 0
 180.344726562 474.458007812 176.9453125 480.69140625 172.978515625 488.05859375 c 0
 169.010742188 495.42578125 166.4609375 501.658203125 165.328125 506.758789062 c 0
 161.361328125 522.05859375 159.377929688 537.075195312 159.377929688 551.80859375 c 0
 159.377929688 561.44140625 160.794921875 570.791015625 163.627929688 579.858398438 c 0
 165.895507812 588.92578125 170.145507812 598.275390625 176.377929688 607.908203125 c 0
 182.611328125 617.541015625 190.260742188 626.041015625 199.328125 633.408203125 c 0
 208.395507812 640.775390625 220.578125 646.725585938 235.877929688 651.258789062 c 0
 250.611328125 655.791015625 267.611328125 658.05859375 286.877929688 658.05859375 c 0
 288.46484375 658.115234375 290.046875 658.142578125 291.622070312 658.142578125 c 0
 305.799804688 658.142578125 319.518554688 655.84765625 332.778320312 651.258789062 c 0
 348.078125 646.158203125 361.677734375 639.075195312 373.578125 630.008789062 c 0
 385.478515625 620.375 395.111328125 608.192382812 402.478515625 593.458984375 c 0
 409.278320312 578.7265625 412.677734375 562.29296875 412.677734375 544.16015625 c 0
 412.741210938 542.14453125 412.772460938 540.150390625 412.772460938 538.17578125 c 0
 412.772460938 522.39453125 410.7578125 507.956054688 406.728515625 494.861328125 c 0
 402.196289062 479.560546875 396.529296875 467.09375 389.728515625 457.4609375 c 0
 382.928710938 447.828125 374.428710938 438.477539062 364.228515625 429.411132812 c 0
 354.029296875 420.34375 344.678710938 412.9765625 336.178710938 407.309570312 c 0
 327.112304688 401.643554688 316.62890625 395.9765625 304.728515625 390.309570312 c 2
 297.079101562 386.909179688 l 1
 301.329101562 379.258789062 l 2
 312.095703125 361.125976562 329.663085938 334.776367188 354.030273438 300.208984375 c 0
 378.396484375 265.642578125 393.979492188 242.975585938 400.780273438 232.208007812 c 2
 408.4296875 219.458007812 l 1
 416.9296875 235.891601562 423.446289062 249.491210938 427.979492188 260.258789062 c 0
 433.080078125 271.025390625 437.046875 279.525390625 439.879882812 285.758789062 c 0
 442.712890625 291.991210938 444.979492188 296.524414062 446.6796875 299.357421875 c 0
 455.747070312 312.958007812 463.963867188 321.174804688 471.331054688 324.0078125 c 0
 473.59765625 324.57421875 476.147460938 324.857421875 478.98046875 324.857421875 c 0
 484.081054688 324.857421875 489.463867188 323.440429688 495.130859375 320.607421875 c 0
 501.930664062 317.774414062 506.180664062 311.541015625 507.880859375 301.908203125 c 0
 508.447265625 299.075195312 508.73046875 296.525390625 508.73046875 294.258789062 c 0
 508.73046875 285.758789062 506.180664062 276.125 501.081054688 265.358398438 c 0
 498.813476562 260.825195312 490.596679688 249.775390625 476.4296875 232.208007812 c 0
 462.262695312 214.641601562 450.36328125 198.491210938 440.729492188 183.758789062 c 2
 438.1796875 179.508789062 l 1
 447.247070312 164.208007812 463.6796875 135.591796875 487.479492188 93.658203125 c 0
 493.712890625 83.4580078125 496.825195312 72.4072265625 496.825195312 60.5078125 c 2
223.979492188 537.358398438 m 0
 223.979492188 522.05859375 227.946289062 505.341796875 235.879882812 487.208007812 c 0
 244.379882812 469.641601562 254.296875 454.05859375 265.629882812 440.458007812 c 2
 269.030273438 436.208007812 l 1
 274.129882812 437.908203125 l 2
 287.163085938 441.875 298.212890625 446.125 307.280273438 450.658203125 c 0
 316.346679688 455.19140625 325.129882812 461.141601562 333.629882812 468.508789062 c 0
 342.129882812 475.875 348.36328125 485.225585938 352.330078125 496.55859375 c 0
 356.86328125 507.325195312 359.129882812 520.075195312 359.129882812 534.80859375 c 0
 359.129882812 558.608398438 351.762695312 576.741210938 337.030273438 589.208007812 c 0
 322.296875 601.67578125 305.013671875 607.908203125 285.180664062 607.908203125 c 0
 262.513671875 607.908203125 246.081054688 600.258789062 235.880859375 584.958007812 c 0
 227.947265625 573.05859375 223.979492188 557.19140625 223.979492188 537.358398438 c 0
154.280273438 199.05859375 m 0
 154.280273438 167.325195312 163.063476562 140.975585938 180.630859375 120.008789062 c 0
 198.197265625 97.908203125 221.147460938 86.8583984375 249.48046875 86.8583984375 c 0
 264.213867188 87.42578125 279.513671875 90.2587890625 295.380859375 95.3583984375 c 0
 301.047851562 97.05859375 306.998046875 100.17578125 313.23046875 104.708007812 c 0
 320.030273438 108.67578125 325.130859375 112.075195312 328.530273438 114.908203125 c 0
 331.930664062 117.741210938 336.180664062 121.991210938 341.280273438 127.658203125 c 0
 346.380859375 133.325195312 349.780273438 137.291992188 351.48046875 139.559570312 c 0
 353.748046875 141.258789062 356.864257812 145.2265625 360.831054688 151.458984375 c 0
 364.798828125 157.692382812 368.198242188 162.508789062 371.03125 165.909179688 c 1
 359.131835938 191.409179688 349.78125 210.392578125 342.981445312 222.859375 c 0
 335.614257812 236.458984375 321.731445312 257.9921875 301.331054688 287.458984375 c 0
 280.931640625 316.92578125 265.064453125 340.7265625 253.731445312 358.859375 c 1
 246.931640625 356.309570312 l 2
 229.364257812 347.809570312 214.34765625 337.892578125 201.880859375 326.559570312 c 0
 188.84765625 315.2265625 178.930664062 302.4765625 172.130859375 288.309570312 c 0
 165.897460938 274.142578125 161.364257812 259.975585938 158.53125 245.80859375 c 0
 155.698242188 231.641601562 154.280273438 216.05859375 154.280273438 199.05859375 c 0
EndSplineSet
Validated: 524289
EndChar

StartChar: quotesingle
Encoding: 39 39 8
Width: 550
VWidth: 941
GlyphClass: 2
Flags: HMW
HStem: 479.034 261.057
VStem: 261.376 71.4
LayerCount: 2
Fore
SplineSet
327.674804688 505.384765625 m 0
 326.541992188 496.317382812 322.860351562 489.517578125 316.626953125 484.984375 c 0
 310.393554688 481.017578125 303.876953125 479.034179688 297.077148438 479.034179688 c 2
 295.376953125 479.034179688 l 2
 285.744140625 479.6015625 277.244140625 482.71875 269.876953125 488.385742188 c 0
 264.209960938 492.91796875 261.376953125 498.868164062 261.376953125 506.235351562 c 2
 261.376953125 508.78515625 l 1
 261.376953125 509.635742188 l 2
 262.946289062 533.174804688 263.731445312 560.395507812 263.731445312 591.298828125 c 0
 263.731445312 627.349609375 262.663085938 668.412109375 260.52734375 714.485351562 c 2
 260.52734375 716.185546875 l 2
 260.52734375 720.71875 261.376953125 724.685546875 263.077148438 728.084960938 c 0
 265.34375 731.485351562 268.176757812 733.751953125 271.577148438 734.885742188 c 0
 279.509765625 738.35546875 287.659179688 740.091796875 296.026367188 740.091796875 c 0
 297.221679688 740.091796875 298.421875 740.055664062 299.625976562 739.985351562 c 0
 308.125976562 739.41796875 315.776367188 737.151367188 322.576171875 733.184570312 c 0
 325.975585938 731.484375 328.809570312 728.651367188 331.076171875 724.684570312 c 0
 332.776367188 720.717773438 333.625976562 715.333984375 333.625976562 708.534179688 c 0
 334.193359375 701.734375 334.475585938 690.684570312 334.475585938 675.384765625 c 0
 334.475585938 660.083984375 333.909179688 632.884765625 332.776367188 593.784179688 c 0
 331.642578125 554.684570312 329.942382812 525.217773438 327.674804688 505.384765625 c 0
EndSplineSet
Validated: 524289
EndChar

StartChar: parenleft
Encoding: 40 40 9
Width: 550
VWidth: 901
GlyphClass: 2
Flags: HMW
HStem: -52.55 55.2491 682.7 51.85<381.781 393.114>
VStem: 178.792 66.4232
LayerCount: 2
Fore
SplineSet
415.213867188 -27.900390625 m 0
 415.213867188 -34.7001953125 412.380859375 -40.3671875 406.713867188 -44.900390625 c 0
 401.614257812 -50 395.947265625 -52.5498046875 389.713867188 -52.5498046875 c 0
 353.447265625 -51.9833984375 320.580078125 -38.666015625 291.11328125 -12.599609375 c 0
 261.646484375 13.4677734375 237.563476562 50.017578125 218.86328125 97.05078125 c 0
 200.163085938 144.650390625 187.696289062 199.333984375 181.462890625 261.100585938 c 0
 179.763671875 278.100585938 178.913085938 299.350585938 178.913085938 324.850585938 c 0
 178.83203125 328.495117188 178.791015625 332.271484375 178.791015625 336.181640625 c 0
 178.791015625 359.633789062 180.249023438 387.874023438 183.163085938 420.900390625 c 0
 189.396484375 486.633789062 200.446289062 540.466796875 216.313476562 582.400390625 c 0
 223.11328125 601.099609375 232.462890625 619.233398438 244.36328125 636.799804688 c 0
 256.263671875 654.3671875 269.86328125 670.516601562 285.163085938 685.25 c 0
 299.896484375 699.983398438 316.61328125 711.8828125 335.313476562 720.950195312 c 0
 354.580078125 730.016601562 372.997070312 734.549804688 390.564453125 734.549804688 c 0
 399.064453125 734.549804688 405.296875 732.849609375 409.263671875 729.450195312 c 0
 413.796875 725.483398438 416.064453125 718.682617188 416.064453125 709.049804688 c 0
 416.064453125 699.416992188 413.796875 692.6171875 409.263671875 688.650390625 c 0
 404.1640625 684.682617188 397.364257812 682.700195312 388.864257812 682.700195312 c 0
 372.430664062 682.700195312 357.130859375 677.8828125 342.963867188 668.25 c 0
 329.364257812 659.182617188 317.463867188 646.715820312 307.263671875 630.849609375 c 0
 287.430664062 601.381835938 272.698242188 565.399414062 263.065429688 522.899414062 c 0
 255.698242188 493.432617188 250.59765625 452.631835938 247.764648438 400.499023438 c 0
 246.065429688 373.866210938 245.21484375 350.06640625 245.21484375 329.099609375 c 0
 245.782226562 307.56640625 246.631835938 288.866210938 247.764648438 272.999023438 c 0
 250.59765625 238.432617188 256.831054688 204.432617188 266.463867188 170.999023438 c 0
 275.53125 137.56640625 286.581054688 108.94921875 299.614257812 85.1494140625 c 0
 312.081054688 60.7822265625 326.248046875 40.94921875 342.115234375 25.6494140625 c 0
 358.547851562 10.349609375 374.415039062 2.69921875 389.71484375 2.69921875 c 0
 398.21484375 2.69921875 404.732421875 0.7158203125 409.264648438 -3.2509765625 c 0
 413.232421875 -7.2177734375 415.213867188 -15.4326171875 415.213867188 -27.900390625 c 0
EndSplineSet
Validated: 524289
EndChar

StartChar: parenright
Encoding: 41 41 10
Width: 550
VWidth: 901
GlyphClass: 2
Flags: HMW
HStem: -52.5499 55.2508 682.701 51.85
VStem: 349.755 66.3
LayerCount: 2
Fore
SplineSet
413.505859375 261.099609375 m 0
 407.2734375 199.333007812 394.805664062 144.650390625 376.106445312 97.0498046875 c 0
 357.40625 50.0166015625 333.323242188 13.466796875 303.856445312 -12.599609375 c 0
 273.823242188 -39.2333984375 240.956054688 -52.5498046875 205.255859375 -52.5498046875 c 0
 199.588867188 -51.9833984375 193.921875 -49.4326171875 188.254882812 -44.900390625 c 0
 182.022460938 -40.3671875 178.905273438 -34.7001953125 178.905273438 -27.900390625 c 0
 178.905273438 -15.4326171875 181.171875 -7.2158203125 185.705078125 -3.2490234375 c 0
 189.671875 0.7177734375 196.189453125 2.701171875 205.255859375 2.701171875 c 0
 220.555664062 2.701171875 236.138671875 10.3505859375 252.005859375 25.6513671875 c 0
 267.873046875 41.517578125 282.323242188 61.3505859375 295.356445312 85.1513671875 c 0
 307.823242188 108.951171875 318.873046875 137.567382812 328.505859375 171.000976562 c 0
 338.138671875 204.43359375 344.372070312 238.43359375 347.205078125 273.000976562 c 0
 348.905273438 290.000976562 349.754882812 308.984375 349.754882812 329.951171875 c 0
 349.754882812 350.91796875 348.905273438 374.434570312 347.205078125 400.501953125 c 0
 344.372070312 452.068359375 339.272460938 492.869140625 331.905273438 522.901367188 c 0
 321.705078125 565.401367188 306.971679688 601.668945312 287.705078125 631.702148438 c 0
 278.072265625 646.434570312 266.171875 658.618164062 252.004882812 668.250976562 c 0
 237.837890625 677.883789062 222.821289062 682.701171875 206.954101562 682.701171875 c 0
 198.454101562 682.701171875 191.37109375 684.68359375 185.704101562 688.651367188 c 0
 181.170898438 692.05078125 178.904296875 698.567382812 178.904296875 708.201171875 c 0
 178.337890625 714.43359375 178.904296875 719.250976562 180.604492188 722.651367188 c 0
 182.3046875 726.618164062 184.287109375 729.16796875 186.5546875 730.30078125 c 0
 191.654296875 733.133789062 197.604492188 734.55078125 204.404296875 734.55078125 c 0
 223.104492188 734.55078125 241.521484375 730.017578125 259.654296875 720.951171875 c 0
 277.787109375 711.883789062 294.50390625 699.984375 309.8046875 685.250976562 c 0
 325.104492188 670.517578125 338.704101562 654.368164062 350.604492188 636.80078125 c 0
 362.50390625 618.66796875 371.854492188 600.53515625 378.654296875 582.401367188 c 0
 394.521484375 540.46875 405.288085938 486.635742188 410.955078125 420.90234375 c 0
 414.35546875 382.369140625 416.055664062 350.352539062 416.055664062 324.852539062 c 0
 416.055664062 299.352539062 415.206054688 278.099609375 413.505859375 261.099609375 c 0
EndSplineSet
Validated: 524289
EndChar

StartChar: asterisk
Encoding: 42 42 11
Width: 550
VWidth: 902
GlyphClass: 2
Flags: HMW
HStem: 309.609 71.4<122.257 124.525 121.975 138.974> 320.658 48.4492 320.658 59.4991
VStem: 354.025 61.1958
LayerCount: 2
Fore
SplineSet
406.724609375 164.258789062 m 0x50
 401.625 160.859375 395.106445312 159.442382812 387.173828125 160.008789062 c 0
 379.806640625 160.008789062 373.006835938 161.42578125 366.7734375 164.258789062 c 0
 360.541015625 167.092773438 356.291015625 171.625 354.0234375 177.858398438 c 0
 346.657226562 201.658203125 331.639648438 235.091796875 308.97265625 278.158203125 c 2
 301.323242188 292.608398438 l 1
 294.522460938 278.158203125 l 2
 267.323242188 224.891601562 250.606445312 189.758789062 244.373046875 172.758789062 c 0
 242.672851562 168.225585938 239.83984375 164.541992188 235.873046875 161.708984375 c 0
 231.90625 159.442382812 227.373046875 158.025390625 222.272460938 157.458007812 c 2
 218.022460938 157.458007812 l 2
 207.823242188 157.458007812 199.323242188 159.44140625 192.522460938 163.408203125 c 0
 189.123046875 165.108398438 186.005859375 168.225585938 183.172851562 172.758789062 c 0
 180.33984375 177.858398438 178.356445312 183.525390625 177.223632812 189.758789062 c 2
 177.223632812 192.30859375 l 2
 177.223632812 197.975585938 178.640625 203.642578125 181.473632812 209.309570312 c 2
 246.07421875 314.708984375 l 1
 189.407226562 311.309570312 150.0234375 309.609375 127.923828125 309.609375 c 0
 116.590820312 309.609375 107.807617188 313.291992188 101.57421875 320.659179688 c 0
 95.341796875 327.458984375 92.224609375 335.109375 92.224609375 343.609375 c 2
 92.224609375 346.159179688 l 2
 92.224609375 354.659179688 94.4912109375 362.592773438 99.0244140625 369.958984375 c 0
 101.291015625 373.92578125 104.408203125 376.758789062 108.375 378.458984375 c 0
 112.908203125 380.159179688 117.44140625 381.008789062 121.974609375 381.008789062 c 2
 124.524414062 381.008789062 l 2x90
 150.591796875 378.7421875 194.224609375 375.625 255.424804688 371.658203125 c 1
 247.774414062 385.258789062 l 2
 223.407226562 426.625 203.291015625 458.358398438 187.423828125 480.458007812 c 0
 181.756835938 490.091796875 178.923828125 499.44140625 178.923828125 508.508789062 c 2
 178.923828125 513.608398438 l 2
 180.056640625 522.67578125 183.740234375 528.625 189.97265625 531.458007812 c 1
 189.97265625 532.30859375 l 1
 194.505859375 535.141601562 199.888671875 536.55859375 206.122070312 536.55859375 c 0
 212.35546875 537.125 218.872070312 535.42578125 225.671875 531.458007812 c 0
 232.471679688 527.491210938 237.572265625 521.82421875 240.971679688 514.458007812 c 0
 247.205078125 500.291015625 266.188476562 463.173828125 297.920898438 403.106445312 c 1
 304.721679688 415.856445312 l 2
 327.388671875 454.95703125 344.670898438 487.540039062 356.571289062 513.606445312 c 0
 359.971679688 520.407226562 364.788085938 525.790039062 371.021484375 529.756835938 c 0
 376.9140625 533.587890625 382.654296875 535.502929688 388.241210938 535.502929688 c 0
 393.3984375 535.502929688 398.42578125 533.87109375 403.321289062 530.606445312 c 0
 407.288085938 528.33984375 410.688476562 524.939453125 413.521484375 520.407226562 c 0
 416.354492188 515.874023438 417.771484375 509.923828125 417.771484375 502.556640625 c 0
 417.771484375 495.189453125 415.50390625 488.106445312 410.971679688 481.306640625 c 0
 392.837890625 454.673828125 372.721679688 421.5234375 350.62109375 381.856445312 c 2
 343.821289062 369.106445312 l 1
 358.271484375 369.106445312 l 2x50
 408.704101562 369.106445312 444.6875 372.223632812 466.220703125 378.45703125 c 0
 469.053710938 379.58984375 471.88671875 380.157226562 474.719726562 380.157226562 c 0
 480.953125 380.157226562 486.3359375 378.173828125 490.869140625 374.20703125 c 0
 498.235351562 367.407226562 502.203125 360.323242188 502.76953125 352.95703125 c 0
 502.76953125 348.423828125 502.203125 343.890625 501.069335938 339.357421875 c 0
 498.236328125 328.590820312 493.703125 321.5078125 487.470703125 318.107421875 c 0
 485.203125 316.974609375 482.936523438 316.407226562 480.669921875 316.407226562 c 0
 477.836914062 315.840820312 475.569335938 315.840820312 473.869140625 316.407226562 c 0
 459.13671875 319.240234375 433.069335938 320.657226562 395.669921875 320.657226562 c 0x30
 390.00390625 320.94140625 382.920898438 321.083007812 374.420898438 321.083007812 c 0
 365.920898438 321.083007812 356.00390625 320.94140625 344.670898438 320.657226562 c 1
 409.270507812 210.157226562 l 2
 413.803710938 200.524414062 416.0703125 192.024414062 416.0703125 184.657226562 c 0
 415.50390625 183.524414062 415.220703125 182.107421875 415.220703125 180.407226562 c 0
 414.653320312 172.474609375 411.82421875 167.092773438 406.724609375 164.258789062 c 0x50
EndSplineSet
Validated: 524289
EndChar

StartChar: plus
Encoding: 43 43 12
Width: 550
VWidth: 909
GlyphClass: 2
Flags: HMW
HStem: 371.876 54.3991
VStem: 269.873 52.7025
LayerCount: 2
Fore
SplineSet
176.375 371.025390625 m 2
 164.474609375 371.025390625 155.974609375 373.858398438 150.875 379.525390625 c 0
 145.208007812 384.625 142.375 391.141601562 142.375 399.075195312 c 2
 142.375 401.625 l 2
 142.942382812 408.9921875 145.4921875 415.224609375 150.025390625 420.325195312 c 0
 155.125 425.424804688 162.775390625 427.974609375 172.974609375 427.974609375 c 2
 175.525390625 427.974609375 l 2
 215.7578125 426.841796875 244.655273438 426.275390625 262.22265625 426.275390625 c 2
 269.873046875 426.275390625 l 1
 269.873046875 434.775390625 l 2
 269.873046875 463.108398438 269.30859375 493.708007812 268.174804688 526.575195312 c 2
 268.174804688 529.974609375 l 2
 268.174804688 539.041992188 270.724609375 545.55859375 275.825195312 549.526367188 c 0
 280.358398438 552.92578125 287.158203125 554.625976562 296.224609375 554.625976562 c 2
 299.625 554.625976562 l 2
 307.55859375 554.625976562 314.075195312 552.92578125 319.174804688 549.526367188 c 0
 323.141601562 546.692382812 325.125 540.743164062 325.125 531.67578125 c 2
 325.125 527.42578125 l 2
 323.424804688 494.55859375 322.575195312 463.109375 322.575195312 433.076171875 c 2
 322.575195312 425.42578125 l 1
 424.575195312 425.42578125 l 2
 435.341796875 425.42578125 442.424804688 423.442382812 445.825195312 419.475585938 c 0
 449.791992188 414.942382812 452.05859375 408.9921875 452.625976562 401.625 c 0
 452.05859375 397.091796875 451.4921875 393.125976562 450.924804688 389.725585938 c 0
 450.358398438 386.326171875 448.94140625 382.924804688 446.673828125 379.525390625 c 0
 443.840820312 374.9921875 437.891601562 372.725585938 428.82421875 372.725585938 c 2
 425.423828125 372.725585938 l 2
 415.791015625 373.859375 402.19140625 374.42578125 384.624023438 374.42578125 c 0
 367.624023438 374.42578125 346.657226562 374.142578125 321.724609375 373.576171875 c 1
 321.724609375 365.076171875 l 1
 321.724609375 310.67578125 l 2
 322.291015625 289.708984375 322.575195312 276.958984375 322.575195312 272.42578125 c 0
 322.0078125 262.225585938 319.740234375 255.142578125 315.7734375 251.17578125 c 0
 311.806640625 247.208984375 306.139648438 244.942382812 298.772460938 244.375 c 0
 289.706054688 244.942382812 282.905273438 246.924804688 278.373046875 250.325195312 c 0
 272.706054688 254.291992188 269.873046875 261.659179688 269.873046875 272.42578125 c 2
 269.873046875 371.875976562 l 1
 262.22265625 371.875976562 l 1
 176.375 371.025390625 l 2
EndSplineSet
Validated: 524289
EndChar

StartChar: comma
Encoding: 44 44 13
Width: 550
VWidth: 845
GlyphClass: 2
Flags: HMW
VStem: 218.875 158.098
LayerCount: 2
Fore
SplineSet
249.474609375 -180.900390625 m 0
 239.274414062 -180.900390625 231.057617188 -177.783203125 224.825195312 -171.549804688 c 0
 221.424804688 -167.583007812 219.44140625 -162.765625 218.875 -157.098632812 c 0
 218.307617188 -155.965820312 218.024414062 -155.116210938 218.024414062 -154.548828125 c 0
 218.591796875 -151.149414062 220.575195312 -146.048828125 223.974609375 -139.249023438 c 0
 235.875 -122.249023438 252.307617188 -84.56640625 273.274414062 -26.19921875 c 0
 294.807617188 32.16796875 307.840820312 72.9677734375 312.374023438 96.201171875 c 0
 313.506835938 101.868164062 316.33984375 106.401367188 320.873046875 109.80078125 c 0
 325.973632812 113.201171875 331.073242188 114.901367188 336.172851562 114.901367188 c 2
 337.873046875 114.901367188 l 2
 343.540039062 114.901367188 348.922851562 114.333984375 354.0234375 113.201171875 c 0
 361.389648438 110.93359375 367.33984375 106.68359375 371.873046875 100.451171875 c 0
 375.2734375 96.484375 376.973632812 91.3837890625 376.973632812 85.1513671875 c 0
 376.973632812 84.017578125 376.690429688 81.7509765625 376.123046875 78.3505859375 c 0
 370.456054688 50.583984375 358.2734375 8.083984375 339.573242188 -49.1494140625 c 0
 329.373046875 -80.8818359375 320.873046875 -104.96484375 314.073242188 -121.3984375 c 0
 306.706054688 -137.265625 301.0390625 -148.032226562 297.072265625 -153.69921875 c 0
 289.139648438 -164.465820312 278.939453125 -172.116210938 266.47265625 -176.649414062 c 0
 259.671875 -179.482421875 254.0078125 -180.900390625 249.474609375 -180.900390625 c 0
EndSplineSet
Validated: 524289
EndChar

StartChar: hyphen
Encoding: 45 45 14
Width: 550
VWidth: 893
GlyphClass: 2
Flags: HMW
HStem: 257.325 57.8<202.723 212.64> 263.275 51.85
VStem: 174.673 245.652
LayerCount: 2
Fore
SplineSet
174.674804688 289.625 m 2x60
 174.674804688 299.2578125 177.224609375 306.057617188 182.325195312 310.025390625 c 0
 186.291992188 313.424804688 192.524414062 315.125 201.024414062 315.125 c 0
 233.325195312 315.125 271.857421875 315.408203125 316.625 315.974609375 c 0
 361.391601562 317.108398438 386.891601562 317.674804688 393.125 317.674804688 c 0
 403.891601562 317.674804688 410.974609375 315.692382812 414.375 311.724609375 c 0
 417.774414062 307.192382812 419.7578125 301.2421875 420.325195312 293.875 c 0
 420.325195312 284.807617188 418.625 278.0078125 415.224609375 273.474609375 c 0
 411.2578125 267.807617188 403.890625 264.974609375 393.124023438 264.974609375 c 0
 385.756835938 264.974609375 357.139648438 263.841796875 307.2734375 261.575195312 c 0
 257.40625 258.7421875 222.556640625 257.325195312 202.723632812 257.325195312 c 0xa0
 193.65625 257.891601562 186.856445312 259.875 182.323242188 263.275390625 c 0
 177.223632812 267.807617188 174.672851562 275.458007812 174.672851562 286.224609375 c 2
 174.674804688 289.625 l 2x60
EndSplineSet
Validated: 524289
EndChar

StartChar: period
Encoding: 46 46 15
Width: 550
VWidth: 859
GlyphClass: 2
Flags: HMW
HStem: 6.05 113.945
VStem: 236.726 121.551
LayerCount: 2
Fore
SplineSet
298.775390625 6.0498046875 m 2
 291.125 6.0498046875 l 2
 290.348632812 6.0205078125 289.580078125 6.0048828125 288.819335938 6.0048828125 c 0
 275.116210938 6.0048828125 263.702148438 10.8369140625 254.576171875 20.5 c 0
 242.67578125 32.966796875 236.725585938 47.4169921875 236.725585938 63.849609375 c 0
 236.725585938 78.5830078125 242.958984375 91.3330078125 255.42578125 102.099609375 c 0
 269.592773438 114 285.459960938 119.950195312 303.02734375 119.950195312 c 0
 303.862304688 119.979492188 304.689453125 119.995117188 305.509765625 119.995117188 c 0
 320.258789062 119.995117188 332.463867188 115.163085938 342.126953125 105.5 c 0
 352.893554688 94.7333984375 358.27734375 81.416015625 358.27734375 65.548828125 c 0
 358.27734375 49.6826171875 352.893554688 36.365234375 342.126953125 25.5986328125 c 0
 331.926757812 14.8310546875 317.475585938 8.3173828125 298.775390625 6.0498046875 c 2
EndSplineSet
Validated: 524289
EndChar

StartChar: slash
Encoding: 47 47 16
Width: 550
VWidth: 901
GlyphClass: 2
Flags: W
LayerCount: 2
Fore
SplineSet
93 44.25 m 0
 93 56.150390625 96.1171875 66.9169921875 102.349609375 76.5498046875 c 0
 185.083007812 212.549804688 255.916015625 333.533203125 314.849609375 439.5 c 0
 352.249023438 504.666992188 391.631835938 578.6171875 432.999023438 661.349609375 c 0
 436.965820312 668.716796875 442.06640625 674.383789062 448.298828125 678.350585938 c 0
 454.532226562 682.317382812 460.482421875 684.30078125 466.149414062 684.30078125 c 0
 472.381835938 684.30078125 478.899414062 682.883789062 485.69921875 680.05078125 c 0
 493.06640625 675.517578125 497.8828125 669.284179688 500.150390625 661.3515625 c 0
 500.716796875 659.651367188 501 657.384765625 501 654.551757812 c 0
 501 650.584960938 499.016601562 642.651367188 495.049804688 630.751953125 c 0
 480.317382812 601.284179688 438.950195312 530.16796875 370.950195312 417.400390625 c 0
 302.950195312 304.633789062 261.583007812 234.3671875 246.849609375 206.599609375 c 0
 240.049804688 193.56640625 225.317382812 163.81640625 202.650390625 117.349609375 c 0
 182.25 75.9833984375 169.5 50.765625 164.400390625 41.69921875 c 0
 156.466796875 27.5322265625 146.266601562 17.615234375 133.799804688 11.9482421875 c 0
 128.1328125 9.115234375 123.033203125 7.6982421875 118.5 7.6982421875 c 0
 113.400390625 7.6982421875 108.8671875 9.115234375 104.900390625 11.9482421875 c 0
 98.6669921875 15.3486328125 94.984375 23.5654296875 93.8505859375 36.5986328125 c 0
 93.2841796875 39.431640625 93 41.9833984375 93 44.25 c 0
EndSplineSet
Validated: 524289
EndChar

StartChar: zero
Encoding: 48 48 17
Width: 550
VWidth: 901
GlyphClass: 2
Flags: HMW
HStem: 39.2268 55.2508 601.078 52.6992
VStem: 114.303 67.15 416.904 63.7483
LayerCount: 2
Fore
SplineSet
115.150390625 384.325195312 m 0
 115.716796875 407.55859375 117.133789062 427.532226562 119.401367188 444.249023438 c 0
 121.66796875 460.965820312 124.78515625 478.958007812 128.751953125 498.225585938 c 0
 132.71875 517.4921875 137.251953125 534.4921875 142.3515625 549.225585938 c 0
 155.384765625 583.791992188 177.485351562 609.859375 208.65234375 627.42578125 c 0
 236.985351562 644.993164062 271.551757812 653.776367188 312.3515625 653.776367188 c 0
 332.184570312 653.776367188 350.884765625 650.092773438 368.452148438 642.725585938 c 0
 387.15234375 635.359375 404.15234375 624.451171875 419.452148438 610.000976562 c 0
 434.751953125 595.55078125 447.501953125 576.42578125 457.702148438 552.625976562 c 0
 467.90234375 528.826171875 474.418945312 501.625976562 477.251953125 471.026367188 c 0
 479.518554688 437.026367188 480.65234375 399.909179688 480.65234375 359.67578125 c 0
 480.65234375 329.076171875 479.66015625 296.91796875 477.676757812 263.201171875 c 0
 475.694335938 229.484375 472.15234375 203.276367188 467.051757812 184.576171875 c 0
 457.418945312 148.875976562 445.518554688 120.258789062 431.3515625 98.7255859375 c 0
 424.551757812 88.5263671875 416.90234375 80.0263671875 408.40234375 73.2255859375 c 0
 399.90234375 66.42578125 391.119140625 60.7587890625 382.051757812 56.2255859375 c 0
 374.119140625 51.693359375 364.486328125 48.1513671875 353.15234375 45.6005859375 c 0
 341.819335938 43.05078125 330.76953125 41.3505859375 320.002929688 40.5009765625 c 0
 309.236328125 39.6513671875 296.203125 39.2255859375 280.90234375 39.2255859375 c 0
 257.669921875 39.79296875 236.419921875 44.609375 217.15234375 53.6767578125 c 0
 195.620117188 62.744140625 177.203125 75.3515625 161.90234375 91.501953125 c 0
 146.602539062 107.651367188 134.844726562 127.626953125 126.627929688 151.426757812 c 0
 118.411132812 175.2265625 114.302734375 201.009765625 114.302734375 228.776367188 c 2
 114.302734375 233.876953125 l 1
 114.302734375 314.626953125 l 2
 114.11328125 320.682617188 114.018554688 327.306640625 114.018554688 334.499023438 c 0
 114.018554688 348.844726562 114.395507812 365.453125 115.150390625 384.325195312 c 0
229.051757812 573.026367188 m 0
 210.918945312 554.326171875 197.03515625 524.573242188 187.40234375 483.7734375 c 0
 184.001953125 469.040039062 181.452148438 452.040039062 179.751953125 432.7734375 c 0
 178.3359375 416.057617188 177.627929688 393.81640625 177.627929688 366.049804688 c 0
 177.627929688 338.284179688 178.3359375 304.993164062 179.752929688 266.176757812 c 0
 180.319335938 250.876953125 180.745117188 241.1015625 181.02734375 236.8515625 c 0
 181.310546875 232.6015625 181.453125 229.626953125 181.453125 227.926757812 c 2
 181.453125 202.426757812 l 1
 196.752929688 222.827148438 l 1
 267.01953125 326.526367188 330.203125 433.34375 386.302734375 543.276367188 c 2
 388.852539062 548.376953125 l 1
 385.453125 552.626953125 l 2
 375.252929688 567.926757812 362.927734375 579.827148438 348.477539062 588.327148438 c 0
 334.02734375 596.827148438 318.01953125 601.077148438 300.453125 601.077148438 c 0
 269.852539062 601.077148438 246.051757812 591.725585938 229.051757812 573.026367188 c 0
319.577148438 98.724609375 m 0
 331.194335938 101.557617188 342.385742188 106.374023438 353.15234375 113.173828125 c 0
 374.685546875 127.340820312 391.40234375 153.69140625 403.302734375 192.224609375 c 0
 405.569335938 199.590820312 407.977539062 218.715820312 410.52734375 249.599609375 c 0
 413.078125 280.482421875 414.919921875 315.7578125 416.052734375 355.424804688 c 0
 416.620117188 366.19140625 416.90234375 376.674804688 416.90234375 386.874023438 c 0
 416.90234375 415.774414062 415.76953125 443.541015625 413.502929688 470.174804688 c 2
 410.953125 499.924804688 l 1
 397.352539062 472.724609375 l 1
 341.252929688 349.19140625 275.51953125 245.491210938 200.15234375 161.624023438 c 1
 196.752929688 157.374023438 l 1
 198.453125 152.274414062 l 2
 208.0859375 131.307617188 220.8359375 116.0078125 236.703125 106.374023438 c 0
 249.169921875 98.44140625 263.90234375 94.474609375 280.90234375 94.474609375 c 0
 295.069335938 94.474609375 307.959960938 95.8916015625 319.577148438 98.724609375 c 0
EndSplineSet
Validated: 524289
EndChar

StartChar: one
Encoding: 49 49 18
Width: 550
VWidth: 904
GlyphClass: 2
Flags: HMW
HStem: 54.9998 55.2467<451.774 453.474 451.491 458.858> 496.999 17.85G
VStem: 269.873 59.5 279.223 51.85
LayerCount: 2
Fore
SplineSet
479.825195312 104.299804688 m 0xe0
 484.924804688 99.2001953125 487.474609375 92.3994140625 487.474609375 83.8994140625 c 0
 487.474609375 75.3994140625 485.06640625 68.4580078125 480.25 63.0751953125 c 0
 475.432617188 57.69140625 465.94140625 55 451.774414062 55 c 0
 261.94140625 56.7001953125 156.541015625 57.5498046875 135.57421875 57.5498046875 c 0
 125.374023438 57.5498046875 118.149414062 60.2421875 113.899414062 65.625 c 0
 109.649414062 71.0078125 107.524414062 77.9501953125 107.524414062 86.4501953125 c 2
 107.524414062 89 l 2
 107.524414062 96.9326171875 109.649414062 103.732421875 113.899414062 109.399414062 c 0
 118.149414062 115.06640625 125.657226562 117.899414062 136.423828125 117.899414062 c 0
 161.357421875 117.899414062 205.83984375 117.333007812 269.873046875 116.200195312 c 1
 269.873046875 124.700195312 l 2xe0
 269.873046875 146.799804688 269.58984375 162.666992188 269.0234375 172.299804688 c 0
 268.456054688 181.932617188 268.172851562 190.715820312 268.172851562 198.649414062 c 0
 268.172851562 207.715820312 268.456054688 234.6328125 269.0234375 279.399414062 c 0
 269.0234375 290.732421875 270.297851562 333.515625 272.848632812 407.749023438 c 0
 275.3984375 481.982421875 277.5234375 536.94921875 279.223632812 572.649414062 c 1
 265.623046875 560.749023438 l 2
 228.223632812 526.749023438 200.172851562 506.065429688 181.473632812 498.69921875 c 0
 178.640625 497.565429688 176.08984375 496.999023438 173.823242188 496.999023438 c 0
 168.723632812 496.999023438 162.7734375 499.83203125 155.973632812 505.499023438 c 0
 146.90625 513.431640625 142.373046875 521.08203125 142.373046875 528.44921875 c 2
 142.373046875 529.298828125 l 1
 142.373046875 530.149414062 l 2
 142.373046875 537.515625 144.073242188 544.315429688 147.473632812 550.548828125 c 0
 150.873046875 556.782226562 157.106445312 563.298828125 166.172851562 570.098632812 c 0
 183.172851562 583.131835938 200.456054688 597.014648438 218.0234375 611.748046875 c 2
 253.723632812 644.047851562 l 2
 260.5234375 650.28125 267.46484375 655.6640625 274.547851562 660.197265625 c 0
 281.630859375 664.73046875 287.439453125 666.997070312 291.97265625 666.997070312 c 0
 301.60546875 666.997070312 311.522460938 662.463867188 321.72265625 653.397460938 c 0
 327.389648438 648.296875 331.356445312 643.764648438 333.623046875 639.796875 c 0
 335.323242188 637.530273438 336.172851562 635.546875 336.172851562 633.84765625 c 0
 335.606445312 620.247070312 333.90625 573.780273438 331.073242188 494.447265625 c 0xd0
 328.240234375 415.114257812 326.823242188 368.647460938 326.823242188 355.046875 c 0
 326.823242188 255.879882812 327.672851562 175.413085938 329.373046875 113.646484375 c 1
 366.206054688 112.513671875 395.106445312 111.663085938 416.073242188 111.096679688 c 0
 437.040039062 110.529296875 449.506835938 110.24609375 453.473632812 110.24609375 c 0
 454.923828125 110.309570312 456.322265625 110.340820312 457.666992188 110.340820312 c 0
 468.41015625 110.340820312 475.796875 108.328125 479.825195312 104.299804688 c 0xe0
EndSplineSet
Validated: 524289
EndChar

StartChar: two
Encoding: 50 50 19
Width: 550
VWidth: 902
GlyphClass: 2
Flags: HMW
HStem: 45.85 54.4025 50.9541 58.6483 602.602 55.2483
VStem: 115.175 68.8525 399.076 68.0017
LayerCount: 2
Fore
SplineSet
285.174804688 45.849609375 m 0xb8
 260.2421875 44.716796875 235.025390625 44.150390625 209.525390625 44.150390625 c 0
 181.192382812 44.716796875 159.091796875 45.849609375 143.225585938 47.5498046875 c 0
 138.125 48.1171875 133.875 49.958984375 130.475585938 53.076171875 c 0
 127.075195312 56.1923828125 124.525390625 60.30078125 122.825195312 65.400390625 c 0
 117.725585938 78.43359375 115.174804688 97.275390625 115.174804688 121.92578125 c 0
 115.174804688 146.576171875 120.275390625 171.79296875 130.475585938 197.576171875 c 0
 140.674804688 223.359375 155.833007812 248.150390625 175.950195312 271.951171875 c 0
 196.067382812 295.750976562 218.309570312 315.017578125 242.67578125 329.750976562 c 0
 298.208984375 364.317382812 333.909179688 388.400390625 349.776367188 402.000976562 c 0
 372.443359375 421.267578125 387.17578125 442.234375 393.975585938 464.901367188 c 0
 397.375976562 477.368164062 399.076171875 492.668945312 399.076171875 510.801757812 c 0
 399.076171875 543.1015625 389.725585938 566.618164062 371.026367188 581.3515625 c 0
 354.026367188 595.518554688 330.225585938 602.6015625 299.625976562 602.6015625 c 0
 278.092773438 602.6015625 257.693359375 595.518554688 238.42578125 581.3515625 c 0
 219.159179688 567.184570312 203.576171875 551.317382812 191.67578125 533.750976562 c 0
 186.576171875 526.951171875 182.326171875 521.993164062 178.92578125 518.875976562 c 0
 175.526367188 515.758789062 172.125976562 513.916992188 168.725585938 513.349609375 c 2
 164.05078125 513.349609375 l 2
 162.068359375 513.349609375 159.66015625 513.6328125 156.827148438 514.200195312 c 0
 153.994140625 514.766601562 149.4609375 516.466796875 143.227539062 519.299804688 c 0
 135.860351562 523.266601562 131.328125 528.650390625 129.627929688 535.450195312 c 2
 129.627929688 541.400390625 l 2
 129.571289062 542.080078125 129.54296875 542.779296875 129.54296875 543.499023438 c 0
 129.54296875 549.9765625 131.837890625 558.059570312 136.427734375 567.75 c 0
 141.52734375 577.3828125 149.4609375 587.44140625 160.227539062 597.923828125 c 0
 170.995117188 608.407226562 183.461914062 618.182617188 197.62890625 627.249023438 c 0
 211.795898438 636.31640625 227.37890625 643.682617188 244.37890625 649.349609375 c 0
 261.37890625 655.016601562 278.661132812 657.849609375 296.228515625 657.849609375 c 0
 350.061523438 657.849609375 391.995117188 644.533203125 422.02734375 617.900390625 c 0
 452.060546875 591.266601562 467.078125 550.75 467.078125 496.349609375 c 0
 467.078125 451.583007812 455.745117188 415.599609375 433.078125 388.400390625 c 0
 415.510742188 368.567382812 385.760742188 346.18359375 343.828125 321.250976562 c 0
 330.794921875 312.750976562 313.227539062 301.984375 291.127929688 288.951171875 c 0
 267.89453125 275.91796875 248.627929688 259.484375 233.328125 239.651367188 c 0
 217.4609375 219.818359375 205.703125 199.560546875 198.052734375 178.877929688 c 0
 190.40234375 158.194335938 185.727539062 135.952148438 184.02734375 112.15234375 c 2
 184.02734375 103.65234375 l 1
 222.560546875 101.385742188 257.127929688 100.252929688 287.727539062 100.252929688 c 0xb8
 309.828125 100.252929688 327.9609375 100.819335938 342.127929688 101.952148438 c 0
 356.294921875 103.0859375 374.995117188 104.502929688 398.227539062 106.202148438 c 0
 422.594726562 107.90234375 438.177734375 109.03515625 444.977539062 109.602539062 c 2
 453.477539062 109.602539062 l 2
 456.123046875 109.791992188 458.422851562 109.88671875 460.375 109.88671875 c 0
 464.27734375 109.88671875 466.794921875 109.508789062 467.927734375 108.752929688 c 0
 469.627929688 108.186523438 471.610351562 107.053710938 473.877929688 105.353515625 c 0
 475.578125 104.220703125 476.7109375 103.086914062 477.27734375 101.954101562 c 0
 478.977539062 98.5537109375 479.828125 93.7373046875 479.828125 87.50390625 c 0
 479.828125 75.037109375 476.7109375 64.8369140625 470.477539062 56.904296875 c 0
 467.64453125 52.9375 463.961914062 50.9541015625 459.428710938 50.9541015625 c 0x78
 418.62890625 50.9541015625 360.541992188 49.25 285.174804688 45.849609375 c 0xb8
EndSplineSet
Validated: 524289
EndChar

StartChar: three
Encoding: 51 51 20
Width: 550
VWidth: 902
GlyphClass: 2
Flags: HMW
HStem: 39.5272 55.2483 331.077 68.8517 602.229 55.2508
VStem: 387.172 68.85 406.721 68.0017
LayerCount: 2
Fore
SplineSet
455.174804688 504.475585938 m 0xf0
 455.741210938 503.342773438 456.022460938 502.208984375 456.022460938 501.076171875 c 0xf0
 456.022460938 486.909179688 453.899414062 473.734375 449.649414062 461.551757812 c 0
 445.399414062 449.368164062 439.875 439.16796875 433.07421875 430.951171875 c 0
 426.274414062 422.734375 417.916992188 415.2265625 408 408.426757812 c 0
 398.083007812 401.625976562 387.741210938 396.243164062 376.973632812 392.276367188 c 0
 367.340820312 388.309570312 357.140625 385.192382812 346.374023438 382.92578125 c 2
 310.673828125 375.275390625 l 1
 346.374023438 366.775390625 l 2
 366.7734375 362.2421875 384.765625 356.434570312 400.348632812 349.3515625 c 0
 415.931640625 342.268554688 429.389648438 333.201171875 440.72265625 322.151367188 c 0
 452.055664062 311.1015625 460.555664062 297.359375 466.22265625 280.926757812 c 0
 471.889648438 264.493164062 474.72265625 244.66015625 474.72265625 221.426757812 c 0
 474.72265625 165.89453125 457.440429688 121.694335938 422.873046875 88.8271484375 c 0
 388.873046875 55.9599609375 343.823242188 39.52734375 287.72265625 39.52734375 c 0
 270.72265625 39.52734375 253.72265625 42.3603515625 236.72265625 48.02734375 c 0
 218.58984375 54.259765625 202.297851562 61.7685546875 187.84765625 70.5517578125 c 0
 173.3984375 79.333984375 160.930664062 88.9677734375 150.448242188 99.4501953125 c 0
 139.96484375 109.93359375 132.172851562 120.275390625 127.073242188 130.475585938 c 0
 122.540039062 138.975585938 120.2734375 146.908203125 120.2734375 154.275390625 c 0
 120.2734375 156.541992188 120.555664062 158.809570312 121.123046875 161.076171875 c 0
 122.823242188 169.009765625 127.073242188 174.676757812 133.873046875 178.076171875 c 0
 140.106445312 181.4765625 146.055664062 183.176757812 151.72265625 183.176757812 c 0
 153.990234375 183.176757812 156.256835938 182.893554688 158.5234375 182.326171875 c 0
 166.45703125 180.059570312 174.389648438 173.826171875 182.323242188 163.625976562 c 0
 195.356445312 146.059570312 211.7890625 130.192382812 231.622070312 116.025390625 c 0
 249.754882812 101.858398438 269.587890625 94.775390625 291.12109375 94.775390625 c 0
 323.421875 94.775390625 350.0546875 105.258789062 371.021484375 126.225585938 c 0
 394.821289062 147.192382812 406.721679688 174.109375 406.721679688 206.9765625 c 0xe8
 406.721679688 226.243164062 403.604492188 243.384765625 397.37109375 258.40234375 c 0
 391.138671875 273.418945312 381.504882812 286.59375 368.47265625 297.926757812 c 0
 344.671875 320.02734375 304.72265625 331.077148438 248.622070312 331.077148438 c 0
 240.122070312 331.077148438 232.754882812 334.759765625 226.522460938 342.126953125 c 0
 220.2890625 349.494140625 217.171875 358.135742188 217.171875 368.052734375 c 0
 217.171875 377.969726562 219.439453125 385.76171875 223.97265625 391.428710938 c 0
 227.939453125 397.095703125 234.171875 399.928710938 242.671875 399.928710938 c 0
 286.872070312 399.928710938 321.72265625 409.845703125 347.22265625 429.678710938 c 0
 373.85546875 449.51171875 387.171875 478.12890625 387.171875 515.529296875 c 2
 387.171875 518.928710938 l 1
 387.171875 522.329101562 l 2
 387.188476562 523.08984375 387.197265625 523.846679688 387.197265625 524.596679688 c 0
 387.197265625 550.106445312 377.838867188 569.467773438 359.122070312 582.678710938 c 0
 340.989257812 595.711914062 315.489257812 602.228515625 282.622070312 602.228515625 c 0
 271.85546875 602.228515625 260.522460938 600.24609375 248.622070312 596.279296875 c 0
 244.655273438 594.579101562 240.405273438 591.74609375 235.872070312 587.779296875 c 0
 231.338867188 583.811523438 227.65625 580.6953125 224.823242188 578.427734375 c 0
 221.990234375 576.161132812 218.448242188 572.3359375 214.198242188 566.953125 c 0
 209.948242188 561.5703125 206.97265625 557.88671875 205.2734375 555.904296875 c 0
 203.573242188 553.920898438 200.740234375 549.8125 196.7734375 543.580078125 c 0
 188.83984375 532.8125 181.190429688 526.580078125 173.823242188 524.879882812 c 0
 171.555664062 524.3125 169.2890625 524.029296875 167.022460938 524.029296875 c 0
 161.35546875 524.029296875 155.122070312 525.729492188 148.322265625 529.129882812 c 0
 141.522460938 532.529296875 137.272460938 538.196289062 135.572265625 546.129882812 c 0
 135.004882812 547.830078125 134.72265625 549.8125 134.72265625 552.080078125 c 0
 134.72265625 559.446289062 136.989257812 567.663085938 141.522460938 576.73046875 c 0
 152.2890625 598.263671875 168.72265625 616.680664062 190.822265625 631.98046875 c 0
 202.155273438 639.913085938 215.754882812 646.146484375 231.622070312 650.6796875 c 0
 246.35546875 655.212890625 262.22265625 657.479492188 279.22265625 657.479492188 c 0
 397.088867188 657.479492188 456.022460938 607.612304688 456.022460938 507.879882812 c 0
 455.455078125 506.747070312 455.174804688 505.608398438 455.174804688 504.475585938 c 0xf0
EndSplineSet
Validated: 524289
EndChar

StartChar: four
Encoding: 52 52 21
Width: 550
VWidth: 902
GlyphClass: 2
Flags: HMW
HStem: 40.7519 17.85G 251.55 51.8517 644.251 17G
VStem: 356.577 55.6741 362.525 56.9509 362.525 63.7508
LayerCount: 2
Fore
SplineSet
375.275390625 51.7998046875 m 0xf0
 367.341796875 58.6005859375 363.091796875 65.1171875 362.525390625 71.3505859375 c 2
 362.525390625 103.650390625 l 1xe4
 362.525390625 250.700195312 l 1xe8
 344.391601562 251.267578125 329.375 251.549804688 317.474609375 251.549804688 c 0
 242.674804688 250.983398438 187.708007812 247.016601562 152.575195312 239.649414062 c 0
 149.174804688 239.08203125 145.775390625 238.799804688 142.375 238.799804688 c 0
 138.974609375 238.799804688 135.575195312 239.366210938 132.174804688 240.499023438 c 0
 127.075195312 242.766601562 122.825195312 245.8828125 119.424804688 249.850585938 c 0
 111.4921875 260.049804688 107.525390625 272.233398438 107.525390625 286.400390625 c 0
 107.525390625 293.200195312 108.658203125 300 110.924804688 306.799804688 c 0
 116.591796875 322.666992188 131.609375 348.309570312 155.975585938 383.725585938 c 0
 180.342773438 419.142578125 210.942382812 463.201171875 247.776367188 515.901367188 c 0
 284.04296875 568.600585938 309.826171875 607.133789062 325.125976562 631.500976562 c 0
 331.359375 641.133789062 338.159179688 648.359375 345.526367188 653.17578125 c 0
 352.892578125 657.993164062 359.692382812 660.401367188 365.92578125 660.401367188 c 0
 367.625976562 660.967773438 369.326171875 661.250976562 371.026367188 661.250976562 c 0
 377.826171875 661.250976562 384.625976562 659.267578125 391.42578125 655.30078125 c 0
 398.225585938 651.333984375 402.475585938 644.534179688 404.17578125 634.901367188 c 0
 407.576171875 615.633789062 410.267578125 585.458984375 412.250976562 544.375976562 c 0xf0
 414.234375 503.29296875 415.508789062 468.584960938 416.076171875 440.251953125 c 2
 418.625976562 302.551757812 l 1
 433.359375 301.418945312 446.534179688 300.8515625 458.151367188 300.8515625 c 0
 469.767578125 300.8515625 477.41796875 298.7265625 481.100585938 294.4765625 c 0
 484.784179688 290.2265625 486.909179688 284.418945312 487.475585938 277.051757812 c 0
 487.475585938 267.985351562 485.776367188 261.184570312 482.375976562 256.65234375 c 0
 477.842773438 250.985351562 470.05078125 248.15234375 459.000976562 248.15234375 c 0
 447.951171875 248.15234375 434.776367188 248.71875 419.475585938 249.8515625 c 1xe8
 420.04296875 160.318359375 421.743164062 109.6015625 424.576171875 97.7021484375 c 0
 425.708984375 91.46875 426.276367188 85.8017578125 426.276367188 80.7021484375 c 0xe4
 426.842773438 71.634765625 425.142578125 63.41796875 421.17578125 56.05078125 c 0
 418.909179688 51.517578125 415.93359375 47.8349609375 412.250976562 45.001953125 c 0
 408.567382812 42.1689453125 404.17578125 40.751953125 399.076171875 40.751953125 c 0
 391.142578125 41.318359375 383.208007812 45 375.275390625 51.7998046875 c 0xf0
356.577148438 565.202148438 m 2xf0
 355.7265625 587.301757812 l 1
 342.9765625 569.452148438 l 2
 265.91015625 458.952148438 212.926757812 373.1015625 184.026367188 311.90234375 c 2
 178.077148438 299.15234375 l 1
 191.676757812 300.001953125 l 2
 221.709960938 302.268554688 257.9765625 303.40234375 300.4765625 303.40234375 c 0
 317.4765625 303.40234375 338.16015625 303.119140625 362.526367188 302.551757812 c 1
 362.526367188 311.051757812 l 2
 362.526367188 417.584960938 360.543945312 502.301757812 356.577148438 565.202148438 c 2xf0
EndSplineSet
Validated: 524289
EndChar

StartChar: five
Encoding: 53 53 22
Width: 550
VWidth: 902
GlyphClass: 2
Flags: HMW
HStem: 45.3258 55.2491 417.625 59.4975 586.772 58.6517 596.122 51.0025
VStem: 120.275 62.8991 127.075 57.7991 415.224 68
LayerCount: 2
Fore
SplineSet
467.924804688 193.224609375 m 0xd6
 457.724609375 160.358398438 443.416992188 133.158203125 425 111.625 c 0
 406.583007812 90.091796875 385.474609375 73.6591796875 361.674804688 62.326171875 c 0
 338.44140625 50.9931640625 312.94140625 45.326171875 285.174804688 45.326171875 c 0
 263.641601562 45.326171875 243.524414062 47.8759765625 224.825195312 52.9755859375 c 0
 204.9921875 58.076171875 188.274414062 64.734375 174.674804688 72.951171875 c 0
 161.075195312 81.16796875 149.7421875 90.0927734375 140.674804688 99.7255859375 c 0
 131.607421875 109.359375 124.241210938 119.275390625 118.57421875 129.475585938 c 0
 114.041015625 140.243164062 111.774414062 149.025390625 111.774414062 155.826171875 c 0
 111.774414062 165.458984375 116.590820312 172.541992188 126.223632812 177.075195312 c 0
 135.857421875 181.608398438 142.657226562 183.875 146.624023438 183.875 c 0
 148.32421875 183.307617188 149.741210938 183.025390625 150.874023438 183.025390625 c 0
 154.274414062 183.025390625 157.673828125 181.325195312 161.07421875 177.924804688 c 0
 164.473632812 174.525390625 168.723632812 169.424804688 173.82421875 162.625 c 0
 201.590820312 121.2578125 236.44140625 100.575195312 278.374023438 100.575195312 c 0
 319.173828125 100.575195312 351.756835938 118.424804688 376.124023438 154.125 c 0
 402.19140625 189.2578125 415.223632812 236.0078125 415.223632812 294.375 c 0
 415.223632812 331.208007812 406.723632812 360.674804688 389.723632812 382.775390625 c 0
 373.291015625 406.0078125 349.208007812 417.625 317.474609375 417.625 c 0
 303.875 417.625 289.708007812 415.924804688 274.974609375 412.525390625 c 0
 267.041992188 410.2578125 256.55859375 405.44140625 243.525390625 398.07421875 c 0
 240.125976562 396.374023438 235.733398438 393.116210938 230.350585938 388.298828125 c 0
 224.967773438 383.482421875 221.42578125 380.224609375 219.725585938 378.524414062 c 0
 211.225585938 370.590820312 204.142578125 363.791015625 198.475585938 358.124023438 c 0
 189.409179688 350.19140625 178.358398438 345.658203125 165.325195312 344.525390625 c 2
 161.92578125 344.525390625 l 2
 156.258789062 344.525390625 150.875976562 345.658203125 145.775390625 347.924804688 c 0
 138.409179688 350.7578125 132.7421875 357.840820312 128.774414062 369.173828125 c 0
 124.2421875 382.20703125 121.69140625 398.357421875 121.125 417.624023438 c 0
 120.557617188 426.69140625 120.274414062 435.474609375 120.274414062 443.974609375 c 0xda
 120.274414062 464.94140625 121.69140625 494.69140625 124.524414062 533.224609375 c 0
 126.224609375 554.19140625 127.075195312 568.923828125 127.075195312 577.423828125 c 2
 127.075195312 579.974609375 l 1
 125.375 581.673828125 l 2
 120.274414062 590.173828125 117.724609375 600.374023438 117.724609375 612.274414062 c 0
 117.724609375 625.307617188 121.408203125 635.506835938 128.774414062 642.874023438 c 0
 133.307617188 647.407226562 138.408203125 649.673828125 144.075195312 649.673828125 c 0
 165.041992188 649.107421875 212.075195312 648.256835938 285.174804688 647.124023438 c 0xd6
 357.141601562 645.991210938 413.524414062 645.423828125 454.325195312 645.423828125 c 0
 458.291992188 645.423828125 461.974609375 643.44140625 465.375 639.474609375 c 0
 469.341796875 634.374023438 471.891601562 628.282226562 473.024414062 621.19921875 c 0
 474.158203125 614.116210938 474.44140625 607.741210938 473.874023438 602.07421875 c 0
 473.306640625 596.407226562 471.749023438 592.865234375 469.19921875 591.448242188 c 0
 466.649414062 590.03125 464.666015625 589.0390625 463.249023438 588.47265625 c 0
 461.83203125 587.905273438 459.423828125 587.48046875 456.024414062 587.197265625 c 0
 452.624023438 586.9140625 450.215820312 586.772460938 448.798828125 586.772460938 c 0xe6
 447.381835938 586.772460938 444.264648438 586.9140625 439.448242188 587.197265625 c 0
 434.630859375 587.48046875 430.098632812 587.763671875 425.848632812 588.046875 c 0
 421.598632812 588.330078125 409.2734375 589.321289062 388.873046875 591.021484375 c 0
 370.172851562 592.721679688 353.456054688 593.997070312 338.723632812 594.846679688 c 0
 323.990234375 595.696289062 303.732421875 596.122070312 277.94921875 596.122070312 c 0
 252.166015625 596.122070312 221.991210938 594.98828125 187.423828125 592.721679688 c 1
 186.857421875 581.955078125 186.006835938 562.971679688 184.874023438 535.771484375 c 0xd6
 183.741210938 508.571289062 183.173828125 491.2890625 183.173828125 483.921875 c 0xda
 183.173828125 476.5546875 183.31640625 469.330078125 183.598632812 462.247070312 c 0
 183.881835938 455.1640625 184.306640625 435.755859375 184.874023438 404.022460938 c 1
 198.473632812 419.322265625 l 2
 213.20703125 435.755859375 232.33203125 449.497070312 255.848632812 460.547851562 c 0
 279.366210938 471.59765625 306.423828125 477.122070312 337.024414062 477.122070312 c 0
 359.124023438 477.122070312 379.241210938 472.58984375 397.374023438 463.522460938 c 0
 416.640625 454.456054688 432.366210938 442.272460938 444.548828125 426.97265625 c 0
 456.732421875 411.672851562 466.223632812 393.397460938 473.024414062 372.147460938 c 0
 479.82421875 350.897460938 483.223632812 328.08984375 483.223632812 303.72265625 c 0
 483.223632812 262.922851562 478.125 226.091796875 467.924804688 193.224609375 c 0xd6
EndSplineSet
Validated: 524289
EndChar

StartChar: six
Encoding: 54 54 23
Width: 550
VWidth: 903
GlyphClass: 2
Flags: HMW
HStem: 42.5001 55.2483 395.249 59.4991
VStem: 110.076 59.4991 418.625 66.3017
LayerCount: 2
Fore
SplineSet
469.625 175.950195312 m 0
 459.424804688 148.75 445.68359375 125.375 428.400390625 105.825195312 c 0
 411.1171875 86.275390625 390.859375 70.8330078125 367.625976562 59.5 c 0
 345.526367188 48.1669921875 322.29296875 42.5 297.92578125 42.5 c 0
 267.326171875 42.5 240.693359375 49.0166015625 218.026367188 62.0498046875 c 0
 193.092773438 75.0830078125 172.693359375 93.6416015625 156.826171875 117.724609375 c 0
 140.958984375 141.807617188 129.201171875 170.423828125 121.55078125 203.57421875 c 0
 113.901367188 236.724609375 110.076171875 273.416015625 110.076171875 313.649414062 c 0
 110.076171875 364.649414062 114.892578125 410.548828125 124.526367188 451.349609375 c 0
 133.592773438 489.31640625 145.91796875 521.333007812 161.500976562 547.400390625 c 0
 177.083984375 573.466796875 196.208984375 595.284179688 218.875976562 612.850585938 c 0
 239.842773438 630.984375 262.509765625 644.583984375 286.876953125 653.651367188 c 0
 311.244140625 662.717773438 338.443359375 668.66796875 368.4765625 671.500976562 c 2
 373.577148438 671.500976562 l 2
 382.077148438 671.500976562 389.7265625 669.80078125 396.52734375 666.401367188 c 0
 403.327148438 663.000976562 407.293945312 657.333984375 408.426757812 649.401367188 c 2
 408.426757812 648.55078125 l 2
 408.426757812 644.583984375 405.876953125 639.766601562 400.77734375 634.099609375 c 0
 394.543945312 626.733398438 387.744140625 621.916015625 380.376953125 619.649414062 c 0
 374.709960938 617.94921875 365.926757812 615.82421875 354.02734375 613.274414062 c 0
 342.126953125 610.724609375 331.926757812 608.032226562 323.426757812 605.19921875 c 0
 314.926757812 602.366210938 305.009765625 598.399414062 293.676757812 593.298828125 c 0
 271.009765625 582.532226562 248.059570312 562.69921875 224.827148438 533.798828125 c 0
 212.360351562 517.932617188 200.743164062 496.965820312 189.975585938 470.8984375 c 0
 179.208984375 444.831054688 172.409179688 421.598632812 169.576171875 401.198242188 c 2
 166.17578125 373.1484375 l 1
 184.026367188 394.3984375 l 2
 201.026367188 414.231445312 221.993164062 429.248046875 246.92578125 439.448242188 c 0
 271.29296875 449.6484375 298.776367188 454.748046875 329.375976562 454.748046875 c 0
 352.04296875 454.181640625 372.443359375 450.498046875 390.576171875 443.698242188 c 0
 409.842773438 436.8984375 426.559570312 425.990234375 440.7265625 410.973632812 c 0
 454.893554688 395.956054688 465.801757812 376.123046875 473.452148438 351.473632812 c 0
 481.1015625 326.823242188 484.926757812 297.215820312 484.926757812 262.6484375 c 0
 484.926757812 232.048828125 479.825195312 203.150390625 469.625 175.950195312 c 0
171.27734375 248.198242188 m 0
 173.543945312 220.431640625 182.043945312 193.798828125 196.77734375 168.298828125 c 0
 204.143554688 154.698242188 212.643554688 142.798828125 222.27734375 132.598632812 c 0
 231.34375 121.831054688 242.393554688 113.331054688 255.426757812 107.098632812 c 0
 268.459960938 100.865234375 282.342773438 97.748046875 297.076171875 97.748046875 c 2
 298.776367188 97.748046875 l 2
 319.743164062 97.748046875 339.29296875 105.681640625 357.42578125 121.548828125 c 0
 375.559570312 136.848632812 390.291992188 156.3984375 401.625 180.198242188 c 0
 412.958007812 203.998046875 418.625 228.081054688 418.625 252.448242188 c 0
 418.625 280.215820312 416.075195312 303.590820312 410.975585938 322.573242188 c 0
 405.875 341.556640625 397.942382812 356.431640625 387.174804688 367.198242188 c 0
 376.975585938 377.965820312 365.642578125 385.33203125 353.174804688 389.298828125 c 0
 340.708007812 393.266601562 325.975585938 395.249023438 308.975585938 395.249023438 c 0
 281.775390625 395.249023438 256.275390625 387.599609375 232.475585938 372.298828125 c 0
 208.108398438 356.999023438 187.708007812 337.44921875 171.275390625 313.649414062 c 1
 169.575195312 311.94921875 l 1
 169.575195312 309.399414062 l 2
 169.575195312 282.766601562 170.143554688 262.365234375 171.27734375 248.198242188 c 0
EndSplineSet
Validated: 524289
EndChar

StartChar: seven
Encoding: 55 55 24
Width: 550
VWidth: 901
GlyphClass: 2
Flags: HMW
HStem: 39.8501 17.85G<167.594 172.128> 589.63 60.5209
LayerCount: 2
Fore
SplineSet
464.950195312 641.224609375 m 0
 469.767578125 639.2421875 474.159179688 635.984375 478.125976562 631.451171875 c 0
 482.092773438 626.91796875 484.076171875 620.967773438 484.076171875 613.600585938 c 0
 484.076171875 606.234375 481.80859375 597.166992188 477.276367188 586.400390625 c 0
 469.342773438 569.400390625 455.03515625 543.900390625 434.3515625 509.900390625 c 0
 413.668945312 475.900390625 392.560546875 440.766601562 371.02734375 404.5 c 0
 350.627929688 368.799804688 325.694335938 321.05859375 296.227539062 261.275390625 c 0
 266.760742188 201.4921875 238.994140625 140.150390625 212.926757812 77.25 c 0
 206.693359375 63.650390625 198.760742188 53.7333984375 189.127929688 47.5 c 0
 182.328125 42.400390625 175.52734375 39.849609375 168.727539062 39.849609375 c 0
 166.4609375 39.849609375 164.477539062 40.1328125 162.77734375 40.7001953125 c 0
 153.7109375 42.966796875 147.193359375 48.4921875 143.2265625 57.275390625 c 0
 141.491210938 61.1171875 140.624023438 65.095703125 140.624023438 69.2099609375 c 0
 140.624023438 74.4990234375 142.057617188 80.0126953125 144.926757812 85.75 c 0
 174.393554688 143.549804688 204.7109375 201.349609375 235.877929688 259.150390625 c 0
 265.911132812 316.950195312 290.703125 362.9921875 310.252929688 397.275390625 c 0
 329.802734375 431.55859375 348.078125 465.1328125 365.078125 498 c 0
 382.64453125 530.299804688 394.828125 556.650390625 401.627929688 577.049804688 c 2
 405.02734375 588.099609375 l 1
 373.408203125 589.120117188 342.095703125 589.629882812 311.087890625 589.629882812 c 0
 290.415039062 589.629882812 269.87890625 589.403320312 249.477539062 588.950195312 c 0
 195.078125 587.25 159.094726562 584.1328125 141.52734375 579.599609375 c 0
 139.828125 579.033203125 137.844726562 578.75 135.578125 578.75 c 0
 133.310546875 578.75 131.043945312 579.317382812 128.776367188 580.450195312 c 0
 124.809570312 581.583007812 121.693359375 583.849609375 119.42578125 587.25 c 0
 114.326171875 594.6171875 111.493164062 603.1171875 110.92578125 612.75 c 0
 110.92578125 620.68359375 112.767578125 627.05859375 116.451171875 631.875 c 0
 120.133789062 636.692382812 127.92578125 640.234375 139.826171875 642.500976562 c 0
 169.859375 647.600585938 217.458984375 650.151367188 282.625976562 650.151367188 c 0
 303.026367188 650.151367188 342.975585938 648.734375 402.475585938 645.901367188 c 0
 432.508789062 644.767578125 448.659179688 644.201171875 450.92578125 644.201171875 c 0
 455.458984375 644.201171875 460.1328125 643.208007812 464.950195312 641.224609375 c 0
EndSplineSet
Validated: 524289
EndChar

StartChar: eight
Encoding: 56 56 25
Width: 550
VWidth: 901
GlyphClass: 2
Flags: HMW
HStem: 36.4511 56.1009 609.352 44.2008
VStem: 104.977 56.9475 127.928 62.8975 393.127 59.5 427.125 62.9017
LayerCount: 2
Fore
SplineSet
483.225585938 172.875 m 0xc4
 478.692382812 155.591796875 470.900390625 138.734375 459.850585938 122.30078125 c 0
 448.80078125 105.868164062 435.483398438 91.41796875 419.900390625 78.951171875 c 0
 404.317382812 66.484375 384.909179688 56.2841796875 361.67578125 48.3515625 c 0
 339.576171875 40.41796875 315.208984375 36.451171875 288.576171875 36.451171875 c 0
 261.943359375 36.451171875 238.42578125 40.1337890625 218.026367188 47.5009765625 c 0
 196.493164062 54.8681640625 178.92578125 64.5009765625 165.326171875 76.4013671875 c 0
 151.7265625 88.30078125 140.109375 102.326171875 130.4765625 118.4765625 c 0
 120.842773438 134.625976562 114.184570312 150.91796875 110.501953125 167.3515625 c 0
 106.819335938 183.784179688 104.9765625 200.92578125 104.9765625 218.776367188 c 0xe4
 104.9765625 236.625976562 109.65234375 256.034179688 119.001953125 277.000976562 c 0
 128.3515625 297.967773438 141.809570312 317.518554688 159.376953125 335.651367188 c 0
 176.944335938 353.784179688 195.926757812 366.250976562 216.327148438 373.05078125 c 2
 235.02734375 379.8515625 l 1
 217.176757812 388.3515625 l 2
 188.84375 401.951171875 166.885742188 419.518554688 151.302734375 441.05078125 c 0
 135.719726562 462.583984375 127.927734375 484.401367188 127.927734375 506.500976562 c 0
 127.927734375 512.734375 128.352539062 519.534179688 129.203125 526.901367188 c 0
 130.052734375 534.268554688 132.177734375 542.91015625 135.578125 552.827148438 c 0
 138.977539062 562.744140625 143.0859375 572.236328125 147.90234375 581.302734375 c 0
 152.719726562 590.370117188 159.51953125 599.294921875 168.302734375 608.078125 c 0
 177.0859375 616.861328125 187.143554688 624.65234375 198.4765625 631.453125 c 0
 209.244140625 637.685546875 222.418945312 642.927734375 238.001953125 647.177734375 c 0
 253.584960938 651.427734375 271.009765625 653.552734375 290.27734375 653.552734375 c 0
 309.543945312 653.552734375 326.96875 651.569335938 342.551757812 647.602539062 c 0
 358.134765625 643.635742188 371.309570312 638.252929688 382.077148438 631.453125 c 0
 393.41015625 624.65234375 403.467773438 616.861328125 412.250976562 608.078125 c 0
 421.034179688 599.294921875 427.833984375 590.370117188 432.651367188 581.302734375 c 0
 437.467773438 572.236328125 441.434570312 562.602539062 444.551757812 552.40234375 c 0
 447.668945312 542.203125 449.793945312 533.27734375 450.926757812 525.627929688 c 0
 452.059570312 517.977539062 452.626953125 510.752929688 452.626953125 503.953125 c 0xd8
 452.626953125 497.15234375 451.77734375 490.77734375 450.077148438 484.828125 c 0
 448.376953125 478.877929688 446.393554688 473.495117188 444.126953125 468.677734375 c 0
 441.860351562 463.861328125 438.6015625 458.90234375 434.3515625 453.802734375 c 0
 430.1015625 448.703125 425.994140625 444.169921875 422.02734375 440.203125 c 0
 415.2265625 432.8359375 403.610351562 423.486328125 387.176757812 412.15234375 c 0
 380.376953125 407.052734375 369.327148438 398.8359375 354.02734375 387.502929688 c 1
 366.77734375 381.552734375 l 2
 386.043945312 373.052734375 403.327148438 363.27734375 418.626953125 352.227539062 c 0
 433.926757812 341.177734375 445.96875 330.26953125 454.751953125 319.502929688 c 0
 463.53515625 308.736328125 470.759765625 297.543945312 476.426757812 285.926757812 c 0
 482.09375 274.309570312 485.77734375 263.827148438 487.4765625 254.4765625 c 0
 489.176757812 245.126953125 490.02734375 235.3515625 490.02734375 225.15234375 c 0
 490.02734375 207.584960938 487.758789062 190.158203125 483.225585938 172.875 c 0xc4
218.876953125 452.952148438 m 0
 235.309570312 437.65234375 262.2265625 422.634765625 299.626953125 407.90234375 c 1
 302.176757812 406.202148438 l 1
 305.577148438 407.90234375 l 2
 327.676757812 417.53515625 347.509765625 431.134765625 365.077148438 448.702148438 c 0
 383.77734375 466.834960938 393.126953125 484.40234375 393.126953125 501.40234375 c 0
 393.126953125 518.40234375 388.59375 535.119140625 379.52734375 551.551757812 c 0
 370.459960938 567.985351562 357.993164062 581.7265625 342.125976562 592.77734375 c 0
 326.258789062 603.827148438 309.258789062 609.3515625 291.125976562 609.3515625 c 2
 289.42578125 609.3515625 l 2
 263.359375 608.78515625 240.692382812 598.301757812 221.42578125 577.90234375 c 0
 201.025390625 557.501953125 190.825195312 534.551757812 190.825195312 509.051757812 c 0xd8
 190.825195312 488.084960938 200.176757812 469.384765625 218.876953125 452.952148438 c 0
182.325195312 148.2265625 m 0
 195.92578125 129.809570312 212.358398438 115.78515625 231.625 106.15234375 c 0
 250.325195312 97.0849609375 270.442382812 92.5517578125 291.975585938 92.5517578125 c 0
 307.275390625 92.5517578125 322.575195312 95.1015625 337.875 100.202148438 c 0
 353.17578125 105.301757812 367.341796875 112.668945312 380.375 122.301757812 c 0
 393.975585938 132.501953125 405.166992188 145.393554688 413.950195312 160.9765625 c 0
 422.733398438 176.559570312 427.125 193.41796875 427.125 211.55078125 c 0
 427.125 221.750976562 426.416992188 231.243164062 425 240.026367188 c 0
 423.583007812 248.809570312 420.041015625 258.8671875 414.374023438 270.200195312 c 0
 408.70703125 281.533203125 401.057617188 292.016601562 391.424804688 301.649414062 c 0
 382.357421875 311.282226562 370.315429688 321.057617188 355.298828125 330.974609375 c 0
 340.28125 340.891601562 321.723632812 350.383789062 299.624023438 359.450195312 c 1
 297.073242188 358.600585938 l 2
 258.541015625 347.267578125 226.807617188 327.716796875 201.874023438 299.950195312 c 0
 175.241210938 272.18359375 161.924804688 242.150390625 161.924804688 209.850585938 c 0xe4
 161.924804688 187.18359375 168.725585938 166.643554688 182.325195312 148.2265625 c 0
EndSplineSet
Validated: 524289
EndChar

StartChar: nine
Encoding: 57 57 26
Width: 550
VWidth: 903
GlyphClass: 2
Flags: HMW
HStem: 42.6501 17.85G<197.626 201.876 201.876 208.676> 261.949 58.65 618.949 54.4017
VStem: 110.075 66.3<448.1 476.15> 426.274 58.6509
LayerCount: 2
Fore
SplineSet
468.775390625 256 m 0
 458.575195312 220.299804688 444.692382812 189.983398438 427.125 165.049804688 c 0
 409.557617188 140.1171875 388.875 118.8671875 365.075195312 101.299804688 c 0
 342.408203125 83.7333984375 318.182617188 70.275390625 292.400390625 60.9248046875 c 0
 266.6171875 51.5751953125 238.708984375 45.4833984375 208.67578125 42.650390625 c 2
 201.875976562 42.650390625 l 2
 193.375976562 42.650390625 185.583984375 44.4921875 178.500976562 48.1748046875 c 0
 171.41796875 51.8583984375 167.309570312 57.3828125 166.176757812 64.75 c 2
 166.176757812 65.599609375 l 2
 166.176757812 70.1328125 168.7265625 75.2333984375 173.826171875 80.900390625 c 0
 180.059570312 87.7001953125 187.142578125 92.2333984375 195.076171875 94.5 c 0
 201.30859375 96.7666015625 210.942382812 99.3173828125 223.974609375 102.150390625 c 0
 237.0078125 104.983398438 248.625 107.81640625 258.825195312 110.649414062 c 0
 269.025390625 113.482421875 280.641601562 117.590820312 293.674804688 122.973632812 c 0
 306.708007812 128.356445312 319.31640625 135.723632812 331.499023438 145.073242188 c 0
 343.682617188 154.423828125 355.157226562 165.615234375 365.923828125 178.6484375 c 0
 379.524414062 196.215820312 391.991210938 216.048828125 403.32421875 238.1484375 c 0
 414.657226562 260.248046875 422.307617188 280.6484375 426.274414062 299.348632812 c 2
 432.224609375 329.948242188 l 1
 411.82421875 306.1484375 l 2
 397.090820312 289.715820312 378.958007812 278.381835938 357.424804688 272.149414062 c 0
 336.458007812 265.349609375 309.541015625 261.94921875 276.673828125 261.94921875 c 0
 255.140625 261.94921875 234.458007812 267.616210938 214.625 278.94921875 c 0
 193.658203125 289.715820312 175.525390625 304.30859375 160.224609375 322.724609375 c 0
 144.924804688 341.141601562 132.7421875 362.391601562 123.674804688 386.474609375 c 0
 114.608398438 410.55859375 110.075195312 435.349609375 110.075195312 460.849609375 c 0
 110.075195312 491.450195312 115.174804688 520.067382812 125.375 546.700195312 c 0
 135.575195312 573.333007812 149.174804688 595.858398438 166.174804688 614.275390625 c 0
 183.174804688 632.692382812 203.291992188 647.284179688 226.525390625 658.05078125 c 0
 248.625 668.250976562 272.141601562 673.350585938 297.075195312 673.350585938 c 0
 357.708007812 673.350585938 404.174804688 648.41796875 436.474609375 598.55078125 c 0
 468.775390625 548.68359375 484.924804688 477.567382812 484.924804688 385.200195312 c 0
 484.924804688 337.033203125 479.541992188 293.966796875 468.775390625 256 c 0
208.674804688 359.69921875 m 0
 228.5078125 333.631835938 257.69140625 320.599609375 296.224609375 320.599609375 c 0
 320.024414062 320.599609375 343.256835938 326.548828125 365.923828125 338.44921875 c 0
 390.291015625 350.349609375 409.840820312 366.782226562 424.57421875 387.749023438 c 2
 426.274414062 390.298828125 l 1
 426.274414062 403.899414062 l 2
 426.274414062 419.766601562 425.423828125 441.016601562 423.724609375 467.649414062 c 2
 423.724609375 468.499023438 l 2
 420.890625 496.266601562 412.390625 522.899414062 398.224609375 548.399414062 c 0
 390.857421875 561.999023438 382.357421875 573.899414062 372.724609375 584.099609375 c 0
 363.657226562 594.298828125 352.607421875 602.657226562 339.57421875 609.173828125 c 0
 326.541015625 615.69140625 312.658203125 618.94921875 297.924804688 618.94921875 c 2
 296.224609375 618.94921875 l 2
 275.825195312 618.381835938 256.557617188 611.015625 238.424804688 596.848632812 c 0
 220.291992188 582.681640625 205.416992188 564.264648438 193.799804688 541.59765625 c 0
 182.182617188 518.930664062 176.375 495.4140625 176.375 471.046875 c 0
 176.375 422.879882812 187.141601562 385.766601562 208.674804688 359.69921875 c 0
EndSplineSet
Validated: 524289
EndChar

StartChar: colon
Encoding: 58 58 27
Width: 550
VWidth: 887
GlyphClass: 2
Flags: HMW
HStem: 79.2367 115.705 307.036 114.872
VStem: 251.135 93.5008
LayerCount: 2
Fore
SplineSet
300.4375 307.036132812 m 2
 297.887695312 307.036132812 l 2
 284.287109375 307.602539062 273.520507812 310.15234375 265.586914062 314.685546875 c 0
 257.086914062 319.786132812 252.270507812 327.71875 251.137695312 338.486328125 c 0
 250.5703125 348.119140625 250.287109375 358.036132812 250.287109375 368.236328125 c 0
 250.002929688 373.051757812 249.861328125 377.797851562 249.861328125 382.47265625 c 0
 249.861328125 387.147460938 250.002929688 391.751953125 250.287109375 396.286132812 c 0
 250.854492188 401.953125 252.5546875 406.486328125 255.387695312 409.885742188 c 0
 258.220703125 413.286132812 261.903320312 415.8359375 266.436523438 417.536132812 c 0
 275.178710938 420.450195312 284.337890625 421.908203125 293.913085938 421.908203125 c 0
 295.508789062 421.908203125 297.1171875 421.8671875 298.736328125 421.786132812 c 0
 303.26953125 421.786132812 307.802734375 421.21875 312.3359375 420.0859375 c 0
 324.235351562 417.819335938 332.452148438 413.286132812 336.985351562 406.486328125 c 0
 339.818359375 402.518554688 341.518554688 397.418945312 342.0859375 391.185546875 c 0
 342.65234375 387.786132812 342.935546875 384.385742188 342.935546875 380.986328125 c 0
 342.935546875 366.252929688 340.668945312 350.669921875 336.135742188 334.236328125 c 0
 333.869140625 325.169921875 329.051757812 318.370117188 321.684570312 313.836914062 c 0
 314.317382812 309.303710938 307.237304688 307.036132812 300.4375 307.036132812 c 2
297.884765625 79.236328125 m 0
 287.118164062 79.236328125 276.634765625 82.63671875 266.434570312 89.4365234375 c 0
 257.934570312 94.537109375 253.118164062 101.620117188 251.984375 110.686523438 c 0
 251.41796875 125.986328125 251.134765625 134.486328125 251.134765625 136.186523438 c 0
 251.134765625 137.88671875 251.41796875 142.704101562 251.984375 150.63671875 c 0
 252.551757812 158.569335938 253.119140625 164.802734375 253.685546875 169.3359375 c 0
 253.685546875 174.435546875 255.102539062 178.685546875 257.935546875 182.0859375 c 0
 260.202148438 185.486328125 263.602539062 188.036132812 268.135742188 189.736328125 c 0
 278.051757812 193.206054688 287.317382812 194.942382812 295.931640625 194.942382812 c 0
 297.163085938 194.942382812 298.379882812 194.90625 299.584960938 194.8359375 c 0
 305.251953125 194.8359375 310.918945312 193.986328125 316.5859375 192.286132812 c 0
 322.818359375 190.5859375 328.485351562 187.185546875 333.5859375 182.0859375 c 0
 338.685546875 176.986328125 341.802734375 171.036132812 342.935546875 164.236328125 c 0
 344.068359375 156.869140625 344.635742188 149.786132812 344.635742188 142.986328125 c 0
 344.635742188 131.0859375 342.935546875 118.90234375 339.53515625 106.435546875 c 0
 337.268554688 97.369140625 331.6015625 90.5693359375 322.53515625 86.0361328125 c 0
 314.03515625 81.5029296875 305.817382812 79.236328125 297.884765625 79.236328125 c 0
EndSplineSet
Validated: 524289
EndChar

StartChar: semicolon
Encoding: 59 59 28
Width: 550
VWidth: 864
GlyphClass: 2
Flags: HMW
HStem: 248.377 115.601
VStem: 275.261 93.2161
LayerCount: 2
Fore
SplineSet
351.4765625 81.77734375 m 0
 351.4765625 67.6103515625 333.059570312 -6.9072265625 296.2265625 -141.7734375 c 0
 293.393554688 -151.973632812 288.860351562 -159.056640625 282.626953125 -163.0234375 c 0
 276.393554688 -166.991210938 269.876953125 -168.973632812 263.077148438 -168.973632812 c 2
 261.376953125 -168.973632812 l 2
 251.744140625 -168.407226562 242.9609375 -165.290039062 235.028320312 -159.623046875 c 0
 229.361328125 -155.65625 226.528320312 -149.989257812 226.528320312 -142.622070312 c 0
 226.528320312 -132.989257812 232.477539062 -98.7060546875 244.377929688 -39.7734375 c 0
 255.14453125 12.3603515625 263.927734375 52.3095703125 270.727539062 80.0771484375 c 0
 272.427734375 87.4443359375 274.552734375 93.111328125 277.102539062 97.078125 c 0
 279.653320312 101.044921875 282.060546875 103.594726562 284.328125 104.727539062 c 0
 289.995117188 106.995117188 295.377929688 108.127929688 300.477539062 108.127929688 c 0
 302.177734375 108.127929688 304.161132812 107.844726562 306.427734375 107.27734375 c 2
 307.278320312 107.27734375 l 2
 316.911132812 107.27734375 326.828125 105.010742188 337.028320312 100.477539062 c 0
 342.127929688 98.2109375 346.094726562 95.09375 348.927734375 91.126953125 c 0
 350.627929688 88.8603515625 351.4765625 85.744140625 351.4765625 81.77734375 c 0
324.278320312 248.376953125 m 2
 318.044921875 248.944335938 311.383789062 250.359375 304.30078125 252.625976562 c 0
 297.217773438 254.892578125 290.985351562 258.434570312 285.6015625 263.251953125 c 0
 280.21875 268.069335938 277.244140625 273.59375 276.676757812 279.827148438 c 0
 276.110351562 289.459960938 275.685546875 299.235351562 275.40234375 309.15234375 c 0
 275.307617188 312.454101562 275.259765625 315.709960938 275.259765625 318.91796875 c 0
 275.259765625 325.34375 275.44921875 331.580078125 275.828125 337.627929688 c 0
 276.39453125 342.727539062 278.094726562 347.120117188 280.927734375 350.802734375 c 0
 283.760742188 354.486328125 287.727539062 357.177734375 292.828125 358.877929688 c 0
 297.927734375 360.578125 302.885742188 361.852539062 307.703125 362.703125 c 0
 312.51953125 363.552734375 316.203125 363.977539062 318.752929688 363.977539062 c 2
 324.278320312 363.977539062 l 2
 333.911132812 363.411132812 342.9765625 361.143554688 351.4765625 357.176757812 c 0
 356.008789062 355.4765625 359.694335938 352.501953125 362.52734375 348.251953125 c 0
 365.360351562 344.001953125 367.060546875 339.043945312 367.626953125 333.376953125 c 0
 368.194335938 329.9765625 368.4765625 326.577148438 368.4765625 323.176757812 c 0
 368.4765625 307.876953125 366.209960938 292.009765625 361.676757812 275.577148438 c 0
 359.41015625 266.509765625 354.592773438 259.709960938 347.2265625 255.176757812 c 0
 339.859375 250.643554688 332.776367188 248.376953125 325.9765625 248.376953125 c 2
 324.701171875 248.376953125 l 1
 324.278320312 248.376953125 l 2
EndSplineSet
Validated: 524289
EndChar

StartChar: less
Encoding: 60 60 29
Width: 550
VWidth: 902
GlyphClass: 2
Flags: HMW
HStem: 633.05 17G<456.592 462.826>
LayerCount: 2
Fore
SplineSet
491.724609375 603.299804688 m 0
 486.05859375 594.233398438 474.158203125 583.18359375 456.025390625 570.150390625 c 0
 424.291992188 548.049804688 376.125 511.783203125 311.525390625 461.349609375 c 0
 246.358398438 410.349609375 202.158203125 376.067382812 178.924804688 358.5 c 1
 188.275390625 352.549804688 l 2
 209.80859375 335.549804688 234.174804688 314.8671875 261.375 290.5 c 0
 288.575195312 266.1328125 312.375 244.31640625 332.775390625 225.048828125 c 0
 353.174804688 205.215820312 375.275390625 185.099609375 399.075195312 164.69921875 c 0
 423.442382812 144.298828125 444.409179688 128.432617188 461.975585938 117.099609375 c 0
 480.109375 105.19921875 491.725585938 95.2822265625 496.826171875 87.349609375 c 0
 499.092773438 83.94921875 500.225585938 80.2666015625 500.225585938 76.298828125 c 0
 500.225585938 74.599609375 499.659179688 71.7666015625 498.526367188 67.798828125 c 0
 496.826171875 63.2666015625 493.708984375 59.5830078125 489.17578125 56.75 c 0
 484.642578125 53.9169921875 478.125976562 51.93359375 469.625976562 50.80078125 c 0
 467.359375 50.234375 465.375976562 49.951171875 463.67578125 49.951171875 c 0
 456.30859375 49.951171875 448.091796875 51.6513671875 439.025390625 55.05078125 c 0
 424.858398438 59.583984375 407.858398438 69.216796875 388.025390625 83.9501953125 c 0
 367.625 98.68359375 345.525390625 116.81640625 321.724609375 138.349609375 c 0
 297.924804688 159.881835938 274.125 181.69921875 250.325195312 203.798828125 c 0
 226.525390625 225.899414062 201.30859375 248.56640625 174.674804688 271.798828125 c 0
 148.041992188 295.032226562 125.375 313.44921875 106.674804688 327.048828125 c 0
 101.0078125 331.58203125 97.3251953125 337.815429688 95.625 345.748046875 c 0
 95.05859375 349.715820312 94.775390625 353.682617188 94.775390625 357.649414062 c 0
 94.775390625 361.616210938 95.341796875 365.583007812 96.474609375 369.549804688 c 0
 98.7421875 376.916992188 102.424804688 382.299804688 107.525390625 385.700195312 c 0
 139.825195312 409.5 177.791992188 439.533203125 221.424804688 475.799804688 c 0
 265.05859375 512.067382812 304.724609375 544.650390625 340.424804688 573.549804688 c 0
 376.692382812 602.450195312 408.708984375 625.1171875 436.475585938 641.549804688 c 0
 444.975585938 647.216796875 452.909179688 650.049804688 460.276367188 650.049804688 c 0
 465.375976562 650.049804688 469.625976562 648.916992188 473.026367188 646.650390625 c 0
 482.659179688 641.549804688 489.458984375 634.466796875 493.42578125 625.400390625 c 0
 495.125976562 621.43359375 495.975585938 617.75 495.975585938 614.349609375 c 0
 495.409179688 610.950195312 493.9921875 607.266601562 491.724609375 603.299804688 c 0
EndSplineSet
Validated: 524289
EndChar

StartChar: equal
Encoding: 61 61 30
Width: 550
VWidth: 908
GlyphClass: 2
Flags: HMW
HStem: 276.566 53.6273 443.164 56.179
LayerCount: 2
Fore
SplineSet
172.975585938 499.342773438 m 2
 175.525390625 499.342773438 l 2
 207.825195312 498.209960938 240.975585938 497.643554688 274.975585938 497.643554688 c 0
 309.541992188 497.643554688 341.559570312 497.92578125 371.026367188 498.493164062 c 0
 400.493164062 499.060546875 418.342773438 499.342773438 424.576171875 499.342773438 c 0
 435.342773438 498.776367188 442.42578125 496.509765625 445.826171875 492.541992188 c 0
 449.79296875 488.575195312 452.059570312 482.908203125 452.626953125 475.541992188 c 0
 452.059570312 460.80859375 447.809570312 451.741210938 439.876953125 448.341796875 c 0
 437.610351562 447.208007812 435.059570312 446.641601562 432.2265625 446.641601562 c 2
 425.426757812 446.641601562 l 2
 412.393554688 447.208007812 400.494140625 447.491210938 389.7265625 447.491210938 c 2
 359.9765625 447.491210938 l 1
 266.4765625 444.94140625 l 2
 227.376953125 443.80859375 198.4765625 443.241210938 179.77734375 443.241210938 c 0
 178.642578125 443.190429688 177.53515625 443.1640625 176.452148438 443.1640625 c 0
 165.634765625 443.1640625 157.392578125 445.740234375 151.7265625 450.891601562 c 0
 145.494140625 455.991210938 142.376953125 462.224609375 142.376953125 469.591796875 c 2
 142.376953125 472.141601562 l 2
 142.943359375 479.508789062 145.494140625 485.741210938 150.02734375 490.841796875 c 0
 155.126953125 496.508789062 162.775390625 499.342773438 172.975585938 499.342773438 c 2
178.077148438 330.19140625 m 2
 196.209960938 329.625 217.743164062 329.341796875 242.67578125 329.341796875 c 0
 268.17578125 329.908203125 298.776367188 330.475585938 334.475585938 331.041992188 c 2
 424.576171875 332.7421875 l 2
 435.342773438 332.7421875 442.42578125 330.759765625 445.826171875 326.791992188 c 0
 449.79296875 322.259765625 452.059570312 316.309570312 452.626953125 308.942382812 c 0
 452.626953125 299.875 450.926757812 292.791992188 447.52734375 287.692382812 c 0
 445.259765625 284.859375 442.709960938 282.875976562 439.876953125 281.743164062 c 0
 437.610351562 280.610351562 435.059570312 280.04296875 432.2265625 280.04296875 c 2
 425.426757812 280.04296875 l 2
 411.259765625 280.610351562 395.392578125 280.893554688 377.826171875 280.893554688 c 0
 360.258789062 280.893554688 322.291992188 280.04296875 263.924804688 278.342773438 c 0
 223.692382812 277.209960938 194.508789062 276.643554688 176.375976562 276.643554688 c 0
 175.293945312 276.591796875 174.239257812 276.56640625 173.213867188 276.56640625 c 0
 162.958007812 276.56640625 155.51171875 279.141601562 150.875976562 284.29296875 c 0
 145.208984375 289.959960938 142.375976562 296.759765625 142.375976562 304.693359375 c 2
 142.375976562 306.393554688 l 2
 142.943359375 313.193359375 145.776367188 318.860351562 150.875976562 323.393554688 c 0
 155.975585938 327.92578125 164.475585938 330.193359375 176.375976562 330.193359375 c 2
 178.077148438 330.19140625 l 2
EndSplineSet
Validated: 524289
EndChar

StartChar: greater
Encoding: 62 62 31
Width: 550
VWidth: 903
GlyphClass: 2
Flags: HMW
HStem: 640.05 17G<130.473 135.007>
LayerCount: 2
Fore
SplineSet
498.524414062 337.450195312 m 0
 496.2578125 330.083007812 492.575195312 324.700195312 487.474609375 321.299804688 c 0
 455.174804688 297.5 417.208007812 267.466796875 373.575195312 231.200195312 c 0
 329.94140625 194.932617188 290.274414062 162.349609375 254.575195312 133.450195312 c 0
 218.307617188 105.1171875 186.291015625 82.4501953125 158.524414062 65.4501953125 c 0
 150.024414062 59.783203125 141.806640625 56.9501953125 133.874023438 56.9501953125 c 0
 129.340820312 56.9501953125 125.374023438 58.0830078125 121.973632812 60.349609375 c 0
 112.340820312 65.4501953125 105.541015625 72.533203125 101.57421875 81.599609375 c 0
 99.8740234375 85.5673828125 99.0244140625 89.25 99.0244140625 92.650390625 c 0
 99.0244140625 96.0498046875 100.157226562 99.7333984375 102.423828125 103.700195312 c 0
 108.090820312 112.766601562 120.274414062 123.817382812 138.973632812 136.849609375 c 0
 170.70703125 158.950195312 218.874023438 195.216796875 283.473632812 245.650390625 c 0
 348.07421875 296.650390625 389.44140625 328.666992188 407.57421875 341.700195312 c 2
 416.07421875 348.5 l 1
 407.57421875 354.450195312 l 2
 385.473632812 371.450195312 360.82421875 392.1328125 333.624023438 416.5 c 0
 306.423828125 440.8671875 282.624023438 462.68359375 262.223632812 481.951171875 c 0
 241.82421875 501.784179688 219.723632812 521.900390625 195.923828125 542.30078125 c 0
 171.556640625 562.701171875 150.58984375 578.567382812 133.0234375 589.900390625 c 0
 114.890625 601.80078125 103.2734375 611.717773438 98.1728515625 619.650390625 c 0
 95.90625 623.618164062 94.7734375 627.584960938 94.7734375 631.551757812 c 0
 94.7734375 632.684570312 95.33984375 635.234375 96.4736328125 639.201171875 c 0
 98.1728515625 643.734375 101.290039062 647.41796875 105.823242188 650.250976562 c 0
 110.356445312 653.083984375 116.873046875 655.067382812 125.373046875 656.200195312 c 0
 127.640625 656.766601562 129.623046875 657.049804688 131.323242188 657.049804688 c 0
 138.690429688 657.049804688 146.907226562 655.349609375 155.973632812 651.950195312 c 0
 169.57421875 647.416992188 186.57421875 637.784179688 206.973632812 623.05078125 c 0
 227.374023438 608.317382812 249.473632812 590.184570312 273.274414062 568.651367188 c 0
 297.07421875 547.118164062 320.874023438 525.301757812 344.673828125 503.201171875 c 0
 368.473632812 481.1015625 393.69140625 458.434570312 420.32421875 435.201171875 c 0
 446.390625 411.96875 469.057617188 393.551757812 488.325195312 379.951171875 c 0
 493.9921875 375.418945312 497.674804688 369.185546875 499.375 361.252929688 c 0
 499.94140625 357.28515625 500.224609375 353.318359375 500.224609375 349.3515625 c 0
 500.224609375 345.384765625 499.658203125 341.416992188 498.524414062 337.450195312 c 0
EndSplineSet
Validated: 524289
EndChar

StartChar: question
Encoding: 63 63 32
Width: 550
VWidth: 903
GlyphClass: 2
Flags: HMW
HStem: 49.6941 113.945 603.045 55.2491
VStem: 218.017 121.55 397.367 68.0008
LayerCount: 2
Fore
SplineSet
465.3671875 496.795898438 m 0
 465.3671875 482.62890625 463.100585938 469.595703125 458.567382812 457.6953125 c 0
 454.034179688 446.362304688 448.083984375 436.4453125 440.717773438 427.9453125 c 0
 433.350585938 419.4453125 424.850585938 411.228515625 415.217773438 403.295898438 c 0
 405.017578125 395.928710938 394.817382812 388.278320312 384.6171875 380.345703125 c 0
 374.416992188 372.413085938 364.500976562 363.913085938 354.8671875 354.845703125 c 0
 345.80078125 345.212890625 337.583984375 333.879882812 330.216796875 320.846679688 c 0
 322.849609375 307.813476562 318.033203125 293.36328125 315.765625 277.49609375 c 0
 313.499023438 264.463867188 308.965820312 254.546875 302.166015625 247.74609375 c 0
 298.19921875 244.346679688 292.815429688 242.646484375 286.015625 242.646484375 c 0
 282.616210938 242.080078125 278.932617188 242.362304688 274.965820312 243.49609375 c 0
 261.932617188 246.895507812 253.432617188 252.845703125 249.465820312 261.345703125 c 0
 247.19921875 265.87890625 246.065429688 271.26171875 246.065429688 277.495117188 c 0
 246.065429688 284.294921875 246.916015625 291.662109375 248.616210938 299.594726562 c 0
 252.583007812 313.76171875 258.25 327.362304688 265.616210938 340.39453125 c 0
 272.983398438 353.427734375 280.916992188 364.477539062 289.416992188 373.544921875 c 0
 298.483398438 383.177734375 307.833984375 392.245117188 317.466796875 400.745117188 c 0
 327.099609375 409.245117188 336.44921875 417.461914062 345.516601562 425.39453125 c 0
 354.583984375 433.328125 363.083984375 441.544921875 371.016601562 450.044921875 c 0
 378.383789062 458.544921875 384.616210938 467.89453125 389.716796875 478.094726562 c 0
 394.81640625 488.294921875 397.366210938 499.344726562 397.366210938 511.245117188 c 0
 397.366210938 543.544921875 387.733398438 567.061523438 368.466796875 581.794921875 c 0
 350.333984375 595.961914062 324.266601562 603.044921875 290.266601562 603.044921875 c 0
 281.19921875 603.044921875 272.1328125 601.061523438 263.065429688 597.094726562 c 0
 253.999023438 593.6953125 246.348632812 589.4453125 240.116210938 584.344726562 c 0
 233.8828125 579.245117188 227.366210938 572.727539062 220.565429688 564.794921875 c 0
 213.19921875 556.294921875 207.815429688 549.495117188 204.416015625 544.39453125 c 0
 201.015625 539.294921875 196.765625 533.061523438 191.666015625 525.6953125 c 0
 186.565429688 518.328125 182.315429688 512.9453125 178.916015625 509.544921875 c 0
 175.515625 506.711914062 172.116210938 505.01171875 168.715820312 504.4453125 c 2
 163.616210938 504.4453125 l 2
 161.916015625 504.4453125 159.6484375 504.727539062 156.815429688 505.294921875 c 0
 153.982421875 505.862304688 149.44921875 507.561523438 143.216796875 510.39453125 c 0
 136.416992188 514.362304688 132.166992188 519.745117188 130.466796875 526.544921875 c 0
 129.887695312 528.279296875 129.532226562 530.862304688 129.532226562 534.594726562 c 0
 129.532226562 541.072265625 131.827148438 549.155273438 136.416992188 558.844726562 c 0
 148.883789062 582.078125 166.733398438 603.611328125 189.966796875 623.444335938 c 0
 202.43359375 634.2109375 217.166992188 642.7109375 234.166992188 648.944335938 c 0
 251.166992188 655.176757812 268.733398438 658.293945312 286.866210938 658.293945312 c 0
 345.799804688 658.293945312 390.283203125 644.977539062 420.315429688 618.34375 c 0
 450.348632812 591.7109375 465.3671875 551.1953125 465.3671875 496.795898438 c 0
279.215820312 49.6943359375 m 2
 271.56640625 49.6943359375 l 2
 270.790039062 49.6640625 270.021484375 49.6494140625 269.260742188 49.6494140625 c 0
 255.557617188 49.6494140625 244.143554688 54.4814453125 235.017578125 64.14453125 c 0
 223.684570312 76.611328125 218.017578125 91.060546875 218.017578125 107.494140625 c 0
 218.017578125 122.227539062 224.250976562 134.977539062 236.717773438 145.744140625 c 0
 250.317382812 157.64453125 266.184570312 163.59375 284.317382812 163.59375 c 0
 285.123046875 163.624023438 285.920898438 163.638671875 286.711914062 163.638671875 c 0
 300.952148438 163.638671875 312.903320312 158.806640625 322.56640625 149.14453125 c 0
 333.899414062 138.376953125 339.56640625 125.060546875 339.56640625 109.193359375 c 0
 339.56640625 93.326171875 334.18359375 80.009765625 323.416992188 69.2421875 c 0
 312.083984375 58.4755859375 297.348632812 51.9609375 279.215820312 49.6943359375 c 2
EndSplineSet
Validated: 524289
EndChar

StartChar: at
Encoding: 64 64 33
Width: 550
VWidth: 892
GlyphClass: 2
Flags: HMW
HStem: -59.0249 56.1042 137.329 50.15 150.929 51.8517 375.332 48.4483 572.529 59.4975
VStem: 86.2742 56.9542 190.826 49.3025 345.528 51.8508 462.829 45.8975
LayerCount: 2
Fore
SplineSet
466.224609375 50.625 m 0xdf80
 463.391601562 42.6923828125 460.275390625 35.892578125 456.875 30.2255859375 c 0
 454.041992188 23.9921875 450.075195312 16.9091796875 444.974609375 8.9755859375 c 0
 439.875 0.4755859375 434.4921875 -6.607421875 428.825195312 -12.2744140625 c 0
 423.158203125 -17.94140625 415.791015625 -23.890625 406.724609375 -30.1240234375 c 0
 398.224609375 -36.357421875 388.590820312 -41.45703125 377.82421875 -45.423828125 c 0
 367.057617188 -49.390625 354.590820312 -52.5078125 340.423828125 -54.7744140625 c 0
 326.256835938 -57.607421875 311.5234375 -59.0244140625 296.223632812 -59.0244140625 c 2
 291.123046875 -59.0244140625 l 2
 262.790039062 -59.0244140625 236.157226562 -51.94140625 211.224609375 -37.7744140625 c 0
 185.724609375 -23.607421875 163.907226562 -3.7744140625 145.774414062 21.7255859375 c 0
 127.641601562 47.2255859375 113.19140625 78.392578125 102.423828125 115.225585938 c 0
 91.6572265625 152.625 86.2744140625 193.142578125 86.2744140625 236.775390625 c 0
 86.8408203125 286.075195312 90.80859375 331.975585938 98.1748046875 374.475585938 c 0
 106.108398438 417.541992188 116.875 454.659179688 130.474609375 485.826171875 c 0
 144.075195312 516.993164062 160.224609375 543.625976562 178.924804688 565.725585938 c 0
 197.05859375 588.392578125 217.174804688 605.110351562 239.275390625 615.876953125 c 0
 261.375 626.643554688 284.608398438 632.026367188 308.974609375 632.026367188 c 0
 327.674804688 632.026367188 344.391601562 630.610351562 359.125 627.776367188 c 0
 374.424804688 624.943359375 388.875 620.126953125 402.474609375 613.327148438 c 0
 416.075195312 606.526367188 427.974609375 597.459960938 438.174804688 586.126953125 c 0
 448.942382812 574.793945312 458.859375 560.626953125 467.92578125 543.626953125 c 0
 476.993164062 526.626953125 484.359375 506.509765625 490.026367188 483.276367188 c 0
 502.494140625 432.84375 508.7265625 368.810546875 508.7265625 291.177734375 c 0
 508.16015625 250.944335938 502.209960938 215.811523438 490.876953125 185.778320312 c 0
 485.209960938 170.478515625 477.276367188 158.578125 467.077148438 150.078125 c 0
 457.443359375 141.578125 445.827148438 137.328125 432.2265625 137.328125 c 0xdf80
 412.393554688 137.895507812 397.376953125 144.412109375 387.176757812 156.87890625 c 0
 378.676757812 167.079101562 373.293945312 182.096679688 371.026367188 201.9296875 c 2
 367.626953125 240.1796875 l 1
 354.876953125 203.62890625 l 2
 349.209960938 187.76171875 341.842773438 175.579101562 332.776367188 167.079101562 c 0
 322.008789062 156.3125 307.55859375 150.9296875 289.42578125 150.9296875 c 0
 258.258789062 151.49609375 234.17578125 161.413085938 217.17578125 180.6796875 c 0
 199.609375 199.947265625 190.826171875 229.98046875 190.826171875 270.780273438 c 0
 190.826171875 291.1796875 193.092773438 310.163085938 197.625976562 327.73046875 c 0
 202.159179688 345.296875 208.391601562 360.030273438 216.325195312 371.9296875 c 0
 224.2578125 383.263671875 233.325195312 393.1796875 243.525390625 401.6796875 c 0
 254.291992188 410.1796875 265.05859375 416.129882812 275.826171875 419.530273438 c 0
 286.592773438 422.36328125 297.359375 423.780273438 308.126953125 423.780273438 c 0
 323.426757812 423.780273438 338.16015625 420.947265625 352.327148438 415.280273438 c 0
 364.2265625 410.747070312 373.577148438 404.796875 380.376953125 397.4296875 c 0
 384.34375 392.897460938 386.327148438 389.213867188 386.327148438 386.380859375 c 0
 386.327148438 385.248046875 386.043945312 384.115234375 385.4765625 382.981445312 c 0
 382.077148438 376.181640625 377.827148438 371.931640625 372.7265625 370.231445312 c 0
 367.059570312 368.532226562 362.809570312 367.681640625 359.9765625 367.681640625 c 0
 355.443359375 368.249023438 349.2109375 369.381835938 341.27734375 371.08203125 c 2
 328.52734375 373.631835938 l 2
 323.427734375 374.764648438 318.610351562 375.33203125 314.077148438 375.33203125 c 2
 303.877929688 375.33203125 l 2
 295.944335938 374.764648438 288.01171875 371.931640625 280.078125 366.83203125 c 0
 272.145507812 361.731445312 265.345703125 355.499023438 259.678710938 348.131835938 c 0
 253.4453125 341.33203125 248.627929688 331.98046875 245.228515625 320.080078125 c 0
 241.828125 308.1796875 240.127929688 295.1484375 240.127929688 280.981445312 c 0
 240.127929688 273.615234375 240.6953125 266.248046875 241.828125 258.880859375 c 0
 242.395507812 252.081054688 244.095703125 244.145507812 246.928710938 235.078125 c 0
 249.76171875 226.01171875 254.578125 218.364257812 261.377929688 212.130859375 c 0
 268.178710938 205.897460938 276.678710938 202.78125 286.877929688 202.78125 c 0xbf80
 307.845703125 202.78125 322.862304688 211.28125 331.9296875 228.28125 c 0
 339.862304688 243.013671875 344.395507812 267.096679688 345.528320312 300.530273438 c 0
 346.095703125 306.197265625 351.762695312 311.296875 362.529296875 315.830078125 c 0
 371.029296875 318.663085938 378.396484375 320.080078125 384.62890625 320.080078125 c 0
 388.595703125 320.080078125 392.27734375 319.513671875 395.677734375 318.379882812 c 0
 399.077148438 316.6796875 400.779296875 314.697265625 400.779296875 312.4296875 c 2
 400.779296875 310.73046875 l 2
 398.512695312 289.763671875 397.37890625 272.196289062 397.37890625 258.029296875 c 0
 397.37890625 250.662109375 397.662109375 244.145507812 398.229492188 238.478515625 c 0
 400.49609375 220.345703125 403.896484375 207.595703125 408.4296875 200.228515625 c 0
 414.095703125 191.728515625 422.026367188 187.478515625 432.2265625 187.478515625 c 0
 440.7265625 187.478515625 447.24609375 192.861328125 451.779296875 203.62890625 c 0
 455.1796875 212.12890625 457.729492188 222.611328125 459.4296875 235.078125 c 0
 461.696289062 256.045898438 462.829101562 275.595703125 462.829101562 293.728515625 c 0
 462.829101562 323.1953125 461.696289062 350.108398438 459.4296875 374.475585938 c 0
 456.595703125 399.408203125 453.1953125 420.662109375 449.228515625 438.229492188 c 0
 445.26171875 456.362304688 440.161132812 472.512695312 433.928710938 486.6796875 c 0
 427.6953125 501.412109375 421.462890625 513.3125 415.23046875 522.37890625 c 0
 408.997070312 531.446289062 401.629882812 539.37890625 393.129882812 546.1796875 c 0
 384.629882812 552.412109375 377.259765625 557.229492188 371.026367188 560.62890625 c 0
 364.793945312 564.596679688 357.4296875 567.4296875 348.9296875 569.12890625 c 0
 340.4296875 570.829101562 334.197265625 571.6796875 330.23046875 571.6796875 c 0
 326.262695312 572.24609375 321.446289062 572.529296875 315.779296875 572.529296875 c 0
 291.412109375 571.961914062 268.745117188 564.3125 247.778320312 549.579101562 c 0
 226.811523438 534.846679688 208.678710938 514.446289062 193.377929688 488.37890625 c 0
 178.078125 461.74609375 165.895507812 429.446289062 156.828125 391.479492188 c 0
 147.76171875 353.512695312 143.228515625 312.145507812 143.228515625 267.37890625 c 0
 143.794921875 228.278320312 146.912109375 193.145507812 152.579101562 161.978515625 c 0
 158.8125 130.245117188 166.745117188 104.461914062 176.377929688 84.62890625 c 0
 186.01171875 64.7958984375 197.624023438 48.0791015625 211.224609375 34.4794921875 c 0
 224.256835938 20.87890625 237.861328125 11.24609375 252.028320312 5.5791015625 c 0
 266.1953125 -0.087890625 280.923828125 -2.9208984375 296.223632812 -2.9208984375 c 0
 310.956054688 -2.9208984375 324.844726562 -1.50390625 337.877929688 1.3291015625 c 0
 350.91015625 4.162109375 361.677734375 7.845703125 370.177734375 12.37890625 c 0
 379.244140625 16.9111328125 387.744140625 22.8583984375 395.677734375 30.2255859375 c 0
 403.044921875 37.025390625 408.994140625 43.5458984375 413.52734375 49.7783203125 c 0
 417.494140625 56.01171875 422.311523438 63.6611328125 427.978515625 72.728515625 c 0
 430.245117188 76.6953125 432.228515625 79.8125 433.928710938 82.0791015625 c 0
 435.627929688 83.779296875 437.328125 86.0458984375 439.028320312 88.87890625 c 0
 441.294921875 91.7119140625 442.995117188 93.6953125 444.127929688 94.828125 c 2
 449.228515625 97.37890625 l 2
 451.495117188 99.078125 454.612304688 99.078125 458.579101562 97.37890625 c 0
 464.8125 95.111328125 469.0625 91.4287109375 471.329101562 86.328125 c 0
 472.461914062 84.0615234375 473.029296875 81.794921875 473.029296875 79.52734375 c 0
 473.029296875 72.1611328125 470.7578125 62.525390625 466.224609375 50.625 c 0xdf80
EndSplineSet
Validated: 524289
EndChar

StartChar: A
Encoding: 65 65 34
Width: 550
VWidth: 905
GlyphClass: 2
Flags: HMW
HStem: 285.775 43.3483
VStem: 87.1242 61.2009
LayerCount: 2
Fore
SplineSet
327.67578125 571.372070312 m 2
 304.442382812 532.838867188 271.29296875 451.805664062 228.225585938 328.2734375 c 2
 223.975585938 315.5234375 l 1
 235.875976562 317.22265625 l 2
 289.142578125 324.0234375 336.459960938 327.990234375 377.827148438 329.123046875 c 2
 387.176757812 329.123046875 l 1
 337.876953125 588.373046875 l 1
 327.67578125 571.372070312 l 2
439.875 101.32421875 m 0
 433.075195312 118.890625 418.625 180.375 396.525390625 285.774414062 c 0
 394.825195312 291.44140625 392.841796875 291.44140625 390.575195312 285.774414062 c 1
 323.141601562 282.375 261.091796875 275.856445312 204.424804688 266.223632812 c 1
 185.724609375 216.356445312 167.025390625 161.107421875 148.325195312 100.474609375 c 0
 143.791992188 85.1748046875 137.275390625 75.2548828125 128.775390625 70.7216796875 c 0
 124.2421875 68.455078125 119.9921875 67.322265625 116.025390625 67.322265625 c 0
 112.05859375 67.322265625 108.090820312 68.171875 104.124023438 69.8720703125 c 0
 92.791015625 74.4052734375 87.1240234375 84.607421875 87.1240234375 100.474609375 c 0
 87.1240234375 107.274414062 88.2568359375 115.208007812 90.5244140625 124.274414062 c 0
 94.4912109375 144.107421875 111.491210938 190.291015625 141.524414062 262.82421875 c 1
 139.256835938 269.624023438 137.274414062 270.756835938 135.57421875 266.223632812 c 1
 128.20703125 271.32421875 124.524414062 277.2734375 124.524414062 284.07421875 c 2
 124.524414062 284.923828125 l 2
 123.95703125 290.0234375 126.506835938 295.124023438 132.173828125 300.223632812 c 0
 139.541015625 306.45703125 148.608398438 311.2734375 159.375 314.673828125 c 1
 160.5078125 320.340820312 161.641601562 320.623046875 162.774414062 315.5234375 c 1
 229.641601562 479.856445312 280.358398438 588.939453125 314.924804688 642.7734375 c 0
 322.291992188 653.540039062 328.383789062 661.047851562 333.201171875 665.297851562 c 0
 338.017578125 669.547851562 343.259765625 671.672851562 348.926757812 671.672851562 c 2
 349.776367188 671.672851562 l 1
 354.876953125 671.672851562 l 2
 361.109375 671.672851562 367.059570312 669.97265625 372.7265625 666.573242188 c 0
 378.393554688 663.172851562 382.077148438 656.373046875 383.776367188 646.172851562 c 0
 395.109375 575.90625 414.66015625 476.172851562 442.426757812 346.97265625 c 0
 470.193359375 217.206054688 489.744140625 142.40625 501.077148438 122.573242188 c 0
 505.609375 114.639648438 507.876953125 107.556640625 507.876953125 101.32421875 c 0
 507.309570312 100.756835938 507.026367188 99.9072265625 507.026367188 98.7734375 c 0
 506.459960938 91.4072265625 504.334960938 85.314453125 500.651367188 80.498046875 c 0
 496.96875 75.6806640625 492.577148438 72.138671875 487.4765625 69.8720703125 c 0
 483.509765625 68.171875 479.54296875 67.322265625 475.576171875 67.322265625 c 0
 471.04296875 67.322265625 466.509765625 68.455078125 461.9765625 70.7216796875 c 0
 452.91015625 75.2548828125 445.541992188 85.45703125 439.875 101.32421875 c 0
EndSplineSet
Validated: 524289
EndChar

StartChar: B
Encoding: 66 66 35
Width: 550
VWidth: 899
GlyphClass: 2
Flags: HMW
HStem: 32.6853 67.4621 310.947 44.1992 593.999 42.4983
VStem: 107.523 66.1298 110.923 70.5491 392.273 61.2009 421.175 67.9983
LayerCount: 2
Fore
SplineSet
380.370117188 270.999023438 m 0xea
 368.470703125 278.932617188 352.178710938 286.440429688 331.495117188 293.5234375 c 0
 310.8125 300.606445312 287.154296875 306.4140625 260.521484375 310.947265625 c 1
 259.671875 310.947265625 l 2
 221.138671875 310.947265625 192.805664062 310.6640625 174.671875 310.09765625 c 1
 177.504882812 213.197265625 179.772460938 142.647460938 181.47265625 98.447265625 c 1
 192.805664062 99.580078125 205.272460938 100.147460938 218.872070312 100.147460938 c 0
 232.47265625 100.71484375 242.671875 100.997070312 249.47265625 100.997070312 c 0
 273.838867188 102.130859375 296.930664062 106.6640625 318.748046875 114.596679688 c 0
 340.565429688 122.529296875 358.556640625 132.446289062 372.723632812 144.346679688 c 0
 386.890625 155.6796875 398.5078125 168.004882812 407.57421875 181.321289062 c 0
 416.641601562 194.638671875 421.174804688 207.247070312 421.174804688 219.146484375 c 0
 421.174804688 236.713867188 407.5703125 253.999023438 380.370117188 270.999023438 c 0xea
184.0234375 582.946289062 m 2
 178.073242188 581.247070312 l 1
 178.073242188 566.513671875 177.505859375 547.247070312 176.373046875 523.446289062 c 0
 174.559570312 478.116210938 173.653320312 433.692382812 173.653320312 390.17578125 c 0
 173.653320312 379.29296875 173.708984375 368.465820312 173.823242188 357.696289062 c 1
 204.422851562 355.997070312 230.7734375 355.146484375 252.873046875 355.146484375 c 0
 269.305664062 355.146484375 284.180664062 356.705078125 297.498046875 359.821289062 c 0
 310.815429688 362.938476562 322.290039062 366.905273438 331.922851562 371.72265625 c 0
 341.555664062 376.5390625 350.055664062 382.489257812 357.422851562 389.572265625 c 0
 364.790039062 396.655273438 370.456054688 403.880859375 374.422851562 411.247070312 c 0
 378.389648438 418.614257812 381.791015625 426.547851562 384.624023438 435.047851562 c 0
 387.45703125 443.547851562 389.440429688 451.48046875 390.573242188 458.84765625 c 0
 391.706054688 466.21484375 392.2734375 473.581054688 392.2734375 480.948242188 c 0xf4
 391.706054688 496.815429688 388.588867188 511.547851562 382.921875 525.1484375 c 0
 377.254882812 538.748046875 369.888671875 549.65625 360.821289062 557.873046875 c 0
 351.754882812 566.08984375 341.837890625 573.032226562 331.0703125 578.69921875 c 0
 311.803710938 588.899414062 291.403320312 593.999023438 269.870117188 593.999023438 c 0
 240.970703125 593.999023438 212.356445312 590.313476562 184.0234375 582.946289062 c 2
473.44921875 160.497070312 m 0
 462.966796875 140.6640625 447.6640625 122.106445312 427.546875 104.823242188 c 0
 407.430664062 87.5400390625 382.639648438 72.9482421875 353.172851562 61.0478515625 c 0
 324.2734375 49.1484375 292.255859375 41.498046875 257.123046875 38.0986328125 c 1
 240.391601562 32.685546875 l 2
 236.3359375 32.685546875 232.280273438 33.6396484375 228.224609375 35.5478515625 c 2
 212.4765625 30.1357421875 l 2
 208.659179688 30.1357421875 204.841796875 31.08984375 201.0234375 32.998046875 c 0
 184.0234375 31.2978515625 170.70703125 30.4482421875 161.07421875 30.4482421875 c 0
 154.840820312 30.4482421875 148.890625 31.015625 143.223632812 32.1484375 c 2
 139.82421875 32.1484375 l 2
 130.756835938 31.5810546875 123.389648438 34.4140625 117.72265625 40.6474609375 c 0
 113.190429688 45.7470703125 110.922851562 52.830078125 110.922851562 61.8974609375 c 2
 110.922851562 66.1474609375 l 2xea
 112.055664062 83.71484375 112.623046875 113.181640625 112.623046875 154.547851562 c 0
 112.623046875 231.615234375 110.922851562 316.8984375 107.5234375 410.3984375 c 0
 106.389648438 448.365234375 105.823242188 473.723632812 105.823242188 486.473632812 c 0
 105.823242188 499.223632812 106.389648438 516.6484375 107.5234375 538.748046875 c 0
 108.65625 560.848632812 109.22265625 576.1484375 109.22265625 584.6484375 c 0
 109.790039062 597.681640625 113.33203125 607.314453125 119.848632812 613.547851562 c 0
 126.366210938 619.780273438 134.157226562 622.897460938 143.223632812 622.897460938 c 2
 146.625 622.897460938 l 1
 147.474609375 622.897460938 l 2
 157.107421875 625.73046875 166.740234375 627.997070312 176.373046875 629.697265625 c 0
 195.073242188 633.09765625 212.07421875 635.080078125 227.374023438 635.647460938 c 0
 235.874023438 636.21484375 242.390625 636.497070312 246.923828125 636.497070312 c 2
 263.07421875 636.497070312 l 1
 271.57421875 636.497070312 l 2
 305.57421875 636.497070312 335.607421875 629.697265625 361.673828125 616.09765625 c 0
 388.874023438 602.497070312 410.973632812 582.805664062 427.973632812 557.022460938 c 0
 444.973632812 531.239257812 453.473632812 500.497070312 453.473632812 464.797851562 c 0xf4
 453.473632812 434.764648438 446.390625 408.981445312 432.223632812 387.448242188 c 0
 418.056640625 365.915039062 398.790039062 350.047851562 374.422851562 339.848632812 c 1
 367.623046875 331.348632812 361.106445312 328.515625 354.873046875 331.348632812 c 1
 361.672851562 322.848632812 368.190429688 320.297851562 374.422851562 323.698242188 c 1
 391.990234375 317.46484375 409.698242188 308.540039062 427.547851562 296.922851562 c 0
 445.3984375 285.306640625 460.130859375 272.4140625 471.748046875 258.247070312 c 0
 483.365234375 244.080078125 489.172851562 231.61328125 489.172851562 220.846679688 c 2
 489.172851562 219.146484375 l 2xe2
 489.172851562 199.879882812 483.932617188 180.330078125 473.44921875 160.497070312 c 0
EndSplineSet
Validated: 524289
EndChar

StartChar: C
Encoding: 67 67 36
Width: 550
VWidth: 903
GlyphClass: 2
Flags: HMW
HStem: 26.9011 61.2009 605.752 53.5491
VStem: 94.699 68.8491 428.75 70.5508
LayerCount: 2
Fore
SplineSet
488.25 523.725585938 m 0
 480.8828125 513.2421875 473.799804688 507.434570312 467 506.30078125 c 2
 461.900390625 506.30078125 l 2
 455.099609375 506.30078125 448.016601562 508.568359375 440.650390625 513.100585938 c 0
 432.716796875 518.767578125 428.75 526.134765625 428.75 535.202148438 c 0
 428.75 539.735351562 429.317382812 553.334960938 430.450195312 576.001953125 c 1
 417.416992188 585.068359375 409.766601562 590.452148438 407.5 592.15234375 c 0
 405.233398438 593.8515625 401.833007812 595.834960938 397.299804688 598.1015625 c 0
 388.799804688 603.202148438 380.016601562 605.751953125 370.950195312 605.751953125 c 0
 353.3828125 605.751953125 334.825195312 599.518554688 315.275390625 587.051757812 c 0
 295.724609375 574.584960938 277.166992188 557.301757812 259.599609375 535.202148438 c 0
 242.033203125 513.1015625 226.166015625 487.884765625 211.999023438 459.551757812 c 0
 197.83203125 430.65234375 186.21484375 398.3515625 177.1484375 362.65234375 c 0
 168.081054688 326.952148438 163.547851562 290.96875 163.547851562 254.702148438 c 0
 163.547851562 227.501953125 168.6484375 201.293945312 178.848632812 176.077148438 c 0
 189.047851562 150.860351562 203.21484375 129.751953125 221.348632812 112.751953125 c 0
 238.915039062 96.318359375 258.46484375 88.1015625 279.998046875 88.1015625 c 0
 297.565429688 88.1015625 314.565429688 90.0849609375 330.998046875 94.0517578125 c 0
 347.431640625 98.0185546875 362.306640625 103.260742188 375.623046875 109.77734375 c 0
 388.940429688 116.294921875 400.698242188 122.669921875 410.8984375 128.90234375 c 0
 420.53125 135.135742188 429.881835938 141.935546875 438.948242188 149.302734375 c 0
 445.748046875 153.8359375 451.556640625 157.235351562 456.373046875 159.502929688 c 0
 461.190429688 161.76953125 466.1484375 162.90234375 471.248046875 162.90234375 c 0
 475.78125 162.90234375 480.03125 161.485351562 483.998046875 158.65234375 c 0
 491.365234375 152.985351562 495.047851562 146.46875 495.047851562 139.1015625 c 0
 495.047851562 130.03515625 489.665039062 119.267578125 478.8984375 106.80078125 c 0
 432.998046875 53.5341796875 365.848632812 26.9013671875 277.448242188 26.9013671875 c 2
 270.6484375 26.9013671875 l 2
 250.248046875 26.9013671875 230.981445312 30.583984375 212.848632812 37.951171875 c 0
 194.1484375 45.8837890625 177.71484375 56.3671875 163.547851562 69.400390625 c 0
 149.381835938 82.43359375 137.056640625 97.4501953125 126.573242188 114.450195312 c 0
 116.08984375 131.450195312 108.157226562 149.583007812 102.774414062 168.850585938 c 0
 97.390625 188.1171875 94.69921875 207.383789062 94.69921875 226.651367188 c 0
 94.69921875 268.017578125 98.94921875 308.392578125 107.44921875 347.776367188 c 0
 115.94921875 387.159179688 127.282226562 422.434570312 141.44921875 453.600585938 c 0
 155.616210938 484.767578125 172.333007812 513.384765625 191.599609375 539.452148438 c 0
 209.166992188 566.084960938 227.724609375 588.04296875 247.275390625 605.326171875 c 0
 266.825195312 622.609375 286.658203125 635.92578125 306.775390625 645.276367188 c 0
 326.891601562 654.625976562 346.299804688 659.30078125 365 659.30078125 c 0
 383.700195312 659.30078125 401.266601562 657.034179688 417.700195312 652.500976562 c 1
 419.966796875 657.034179688 422.516601562 656.184570312 425.349609375 649.951171875 c 1
 426.483398438 658.451171875 427.333007812 661.284179688 427.900390625 658.451171875 c 1
 429.599609375 665.250976562 433 670.91796875 438.099609375 675.451171875 c 0
 443.200195312 679.41796875 448.8671875 681.684570312 455.099609375 682.251953125 c 0
 457.932617188 682.818359375 459.6328125 683.1015625 460.200195312 683.1015625 c 0
 465.8671875 683.1015625 471.817382812 681.119140625 478.049804688 677.15234375 c 0
 485.416992188 672.619140625 490.233398438 665.536132812 492.500976562 655.90234375 c 0
 497.034179688 634.370117188 499.30078125 611.418945312 499.30078125 587.051757812 c 2
 499.30078125 555.602539062 l 2
 499.30078125 544.8359375 495.6171875 534.208007812 488.25 523.725585938 c 0
EndSplineSet
Validated: 524289
EndChar

StartChar: D
Encoding: 68 68 37
Width: 550
VWidth: 899
GlyphClass: 2
Flags: HMW
HStem: 23.45 64.5991 623.55 17G<124.806 138.69>
VStem: 93.074 66.0546 436.475 65.446
LayerCount: 2
Fore
SplineSet
309.821289062 518.150390625 m 0
 280.920898438 537.983398438 239.271484375 558.666015625 184.87109375 580.19921875 c 1
 184.021484375 581.048828125 l 1
 183.170898438 581.048828125 l 1
 182.321289062 581.899414062 l 1
 181.471679688 581.899414062 l 1
 180.62109375 581.899414062 l 1
 180.62109375 582.749023438 l 1
 179.771484375 582.749023438 l 1
 178.920898438 582.749023438 l 1
 178.071289062 582.749023438 l 1
 178.071289062 583.599609375 l 1
 177.221679688 583.599609375 l 1
 176.37109375 583.599609375 l 1
 175.521484375 583.599609375 l 1
 175.521484375 584.44921875 l 1
 174.670898438 584.44921875 l 1
 173.821289062 584.44921875 l 1
 172.969726562 585.298828125 l 1
 172.12109375 585.298828125 l 1
 161.071289062 597.19921875 l 1
 160.221679688 577.649414062 l 2
 159.4921875 545.590820312 159.127929688 514 159.127929688 482.877929688 c 0
 159.127929688 441.385742188 159.775390625 400.7265625 161.071289062 360.899414062 c 0
 162.204101562 325.765625 163.337890625 283.69140625 164.470703125 234.673828125 c 0
 165.603515625 185.657226562 166.736328125 146.982421875 167.870117188 118.649414062 c 1
 172.969726562 116.94921875 l 2
 196.203125 106.182617188 219.719726562 98.673828125 243.51953125 94.423828125 c 0
 267.319335938 90.173828125 294.51953125 88.048828125 325.120117188 88.048828125 c 0
 341.552734375 88.048828125 356.852539062 93.857421875 371.01953125 105.474609375 c 0
 385.186523438 117.090820312 396.803710938 131.682617188 405.870117188 149.25 c 0
 415.50390625 166.817382812 423.01171875 185.942382812 428.39453125 206.625 c 0
 436.4375 237.52734375 436.475585938 259.958007812 436.475585938 269.5703125 c 0
 436.475585938 377.873046875 394.258789062 460.732421875 309.821289062 518.150390625 c 0
494.274414062 179.424804688 m 0
 489.174804688 159.307617188 481.241210938 139.900390625 470.474609375 121.200195312 c 0
 459.708007812 102.5 447.241210938 85.9248046875 433.07421875 71.474609375 c 0
 418.907226562 57.025390625 402.473632812 45.2666015625 383.7734375 36.2001953125 c 0
 365.640625 27.7001953125 346.374023438 23.4501953125 325.973632812 23.4501953125 c 2
 318.32421875 23.4501953125 l 2
 295.090820312 23.4501953125 271.715820312 24.5830078125 248.19921875 26.849609375 c 0
 224.681640625 29.1171875 205.556640625 31.9501953125 190.82421875 35.349609375 c 0
 175.5234375 39.3173828125 161.782226562 42.716796875 149.598632812 45.5498046875 c 0
 137.416015625 48.3828125 129.907226562 49.7998046875 127.07421875 49.7998046875 c 0
 118.0078125 49.7998046875 110.640625 52.6328125 104.973632812 58.2998046875 c 0
 99.8740234375 63.400390625 97.32421875 70.4833984375 97.32421875 79.5498046875 c 2
 97.32421875 84.650390625 l 2
 99.0234375 105.049804688 99.8740234375 136.783203125 99.8740234375 179.849609375 c 0
 99.306640625 256.916992188 97.32421875 348.716796875 93.923828125 455.25 c 0
 93.3564453125 486.983398438 93.07421875 507.807617188 93.07421875 517.724609375 c 0
 93.07421875 527.641601562 93.4990234375 543.083984375 94.3486328125 564.05078125 c 0
 95.19921875 585.017578125 95.6240234375 597.767578125 95.6240234375 602.30078125 c 0
 96.1904296875 615.333984375 99.5908203125 624.966796875 105.82421875 631.200195312 c 0
 112.056640625 637.432617188 119.990234375 640.549804688 129.623046875 640.549804688 c 0
 147.755859375 640.549804688 170.989257812 637.716796875 199.322265625 632.049804688 c 0
 215.754882812 628.650390625 232.471679688 623.974609375 249.471679688 618.025390625 c 0
 266.471679688 612.075195312 284.888671875 603.858398438 304.721679688 593.375 c 0
 324.555664062 582.891601562 343.254882812 570.567382812 360.822265625 556.400390625 c 0
 378.388671875 542.233398438 395.671875 524.950195312 412.671875 504.549804688 c 0
 430.805664062 484.150390625 446.388671875 461.625 459.420898438 436.974609375 c 0
 472.454101562 412.325195312 482.795898438 382.858398438 490.446289062 348.575195312 c 0
 498.096679688 314.291992188 501.920898438 277.317382812 501.920898438 237.650390625 c 0
 501.920898438 218.950195312 499.375 199.541992188 494.274414062 179.424804688 c 0
EndSplineSet
Validated: 524289
EndChar

StartChar: E
Encoding: 69 69 38
Width: 550
VWidth: 899
GlyphClass: 2
Flags: HMW
HStem: 32.8751 57.8033<196.498 248.069> 44.7751 60.3533<440.164 467.369 446.681 467.369> 315.078 56.0983 332.078 52.6992 572.627 54.3991
VStem: 104.981 64.6033
LayerCount: 2
Fore
SplineSet
457.731445312 44.775390625 m 2x4c
 446.681640625 44.775390625 l 2x4c
 433.6484375 44.775390625 412.3984375 43.9248046875 382.931640625 42.224609375 c 0
 297.364257812 35.9921875 238.147460938 32.875 205.280273438 32.875 c 0
 187.713867188 32.875 172.98046875 33.4423828125 161.081054688 34.5751953125 c 0
 149.747070312 35.1416015625 138.272460938 40.80859375 126.655273438 51.576171875 c 0
 115.0390625 62.3427734375 108.380859375 75.3779296875 106.680664062 90.6787109375 c 0
 104.98046875 104.278320312 104.130859375 127.508789062 104.130859375 160.375976562 c 0
 104.130859375 193.243164062 104.4140625 228.942382812 104.98046875 267.475585938 c 2
 104.98046875 341.850585938 l 2
 104.98046875 364.80078125 104.4140625 396.67578125 103.280273438 437.475585938 c 0
 102.713867188 471.475585938 102.430664062 493.859375 102.430664062 504.625976562 c 0
 102.430664062 515.392578125 102.85546875 531.401367188 103.706054688 552.651367188 c 0
 104.555664062 573.901367188 104.98046875 587.359375 104.98046875 593.026367188 c 0
 105.547851562 606.05859375 109.08984375 615.833984375 115.606445312 622.350585938 c 0
 122.123046875 628.868164062 129.915039062 632.125976562 138.982421875 632.125976562 c 1
 139.548828125 626.458984375 140.399414062 626.458984375 141.532226562 632.125976562 c 1
 152.298828125 631.55859375 160.516601562 627.591796875 166.182617188 620.224609375 c 0
 167.31640625 613.9921875 168.451171875 612.859375 169.583984375 616.826171875 c 1
 171.284179688 611.725585938 172.982421875 612.008789062 174.682617188 617.67578125 c 1
 217.749023438 623.909179688 271.866210938 627.026367188 337.033203125 627.026367188 c 0
 355.166015625 627.026367188 371.31640625 626.743164062 385.483398438 626.17578125 c 0
 418.349609375 624.475585938 444.416992188 622.4921875 463.68359375 620.224609375 c 0
 475.583984375 619.091796875 483.375976562 616.684570312 487.05859375 613.001953125 c 0
 490.7421875 609.318359375 492.583984375 604.077148438 492.583984375 597.276367188 c 0
 492.583984375 582.543945312 488.6171875 573.4765625 480.68359375 570.077148438 c 0
 477.284179688 568.376953125 474.30859375 567.668945312 471.758789062 567.952148438 c 0
 469.208984375 568.234375 467.083984375 568.376953125 465.383789062 568.376953125 c 0
 425.716796875 571.209960938 387.18359375 572.626953125 349.784179688 572.626953125 c 0
 336.750976562 572.626953125 323.717773438 572.34375 310.684570312 571.776367188 c 0
 261.384765625 570.643554688 218.03515625 567.244140625 180.634765625 561.577148438 c 1
 178.368164062 555.91015625 176.100585938 555.626953125 173.833984375 560.7265625 c 1
 171.000976562 496.693359375 169.583984375 436.34375 169.583984375 379.676757812 c 2
 169.583984375 371.176757812 l 1xac
 214.916992188 371.744140625 270.450195312 374.010742188 336.182617188 377.977539062 c 0
 404.182617188 382.510742188 442.432617188 384.77734375 450.932617188 384.77734375 c 0
 461.700195312 384.77734375 469.067382812 382.65234375 473.034179688 378.40234375 c 0
 477.000976562 374.15234375 478.984375 368.344726562 478.984375 360.977539062 c 0
 478.984375 351.344726562 477.284179688 344.26171875 473.883789062 339.728515625 c 0
 469.350585938 334.627929688 461.842773438 332.078125 451.359375 332.078125 c 0x1c
 440.876953125 332.078125 399.084960938 329.245117188 325.984375 323.578125 c 0
 254.584960938 317.911132812 205.28515625 315.078125 178.084960938 315.078125 c 1
 175.817382812 308.845703125 173.267578125 308.5625 170.434570312 314.229492188 c 1
 170.434570312 291.5625 170.717773438 260.395507812 171.28515625 220.728515625 c 0
 171.28515625 196.361328125 171.567382812 176.528320312 172.134765625 161.228515625 c 0
 173.267578125 128.928710938 175.53515625 108.245117188 178.934570312 99.1787109375 c 0
 179.501953125 92.3779296875 180.067382812 91.2451171875 180.634765625 95.7783203125 c 1
 182.334960938 90.111328125 183.752929688 89.828125 184.885742188 94.9287109375 c 1
 193.952148438 92.095703125 211.802734375 90.6787109375 238.435546875 90.6787109375 c 0xac
 257.702148438 90.6787109375 281.78515625 91.2451171875 310.684570312 92.3779296875 c 0
 379.817382812 95.7783203125 425.1484375 99.4619140625 446.681640625 103.428710938 c 0
 454.048828125 104.561523438 460.143554688 105.127929688 464.9609375 105.127929688 c 0x4c
 469.77734375 105.127929688 473.885742188 104.278320312 477.28515625 102.578125 c 0
 480.685546875 100.877929688 483.235351562 99.1787109375 484.935546875 97.478515625 c 0
 486.635742188 95.7783203125 488.052734375 93.51171875 489.185546875 90.6787109375 c 0x8c
 490.318359375 87.845703125 491.168945312 85.4375 491.735351562 83.4541015625 c 0
 492.302734375 81.470703125 492.583984375 79.0634765625 492.583984375 76.23046875 c 0
 493.150390625 67.1630859375 490.319335938 59.23046875 484.0859375 52.4296875 c 0
 479.553710938 46.7626953125 472.470703125 43.9296875 462.836914062 43.9296875 c 0
 461.137695312 44.4970703125 459.431640625 44.775390625 457.731445312 44.775390625 c 2x4c
EndSplineSet
Validated: 524289
EndChar

StartChar: F
Encoding: 70 70 39
Width: 550
VWidth: 900
GlyphClass: 2
Flags: HMW
HStem: 313.658 52.7 324.708 55.2491 576.307 57.7983 623.906 17G
VStem: 103.195 66.1324 106.595 71.4009
LayerCount: 2
Fore
SplineSet
464.44921875 629.85546875 m 0x28
 475.782226562 628.72265625 483.149414062 626.313476562 486.549804688 622.630859375 c 0
 489.94921875 618.947265625 491.932617188 613.422851562 492.5 606.055664062 c 0
 492.5 598.122070312 489.94921875 591.0390625 484.849609375 584.806640625 c 0
 480.8828125 579.139648438 473.515625 576.306640625 462.749023438 576.306640625 c 2
 461.8984375 576.306640625 l 2
 430.731445312 578.006835938 399.282226562 578.856445312 367.548828125 578.856445312 c 0
 309.181640625 578.856445312 244.58203125 575.739257812 173.749023438 569.506835938 c 1
 173.181640625 555.33984375 172.615234375 537.489257812 172.047851562 515.956054688 c 0
 170.234375 477.42578125 169.328125 439.62109375 169.328125 402.541015625 c 0
 169.328125 393.267578125 169.383789062 384.0390625 169.498046875 374.857421875 c 0
 172.8984375 369.756835938 176.014648438 370.040039062 178.84765625 375.70703125 c 1
 202.081054688 378.540039062 227.013671875 379.95703125 253.647460938 379.95703125 c 2
 272.346679688 379.95703125 l 2x68
 306.346679688 378.82421875 336.947265625 377.124023438 364.147460938 374.857421875 c 0
 391.9140625 372.024414062 414.581054688 369.19140625 432.1484375 366.358398438 c 0
 444.615234375 364.090820312 452.547851562 361.2578125 455.948242188 357.858398438 c 0
 459.34765625 354.458007812 461.331054688 349.358398438 461.8984375 342.557617188 c 0
 461.8984375 334.057617188 459.915039062 326.69140625 455.948242188 320.458007812 c 0
 453.680664062 315.924804688 448.013671875 313.658203125 438.947265625 313.658203125 c 2
 434.697265625 313.658203125 l 2x88
 417.129882812 316.491210938 393.046875 319.041015625 362.447265625 321.307617188 c 0
 333.546875 323.575195312 300.963867188 324.708007812 264.697265625 324.708007812 c 0
 230.129882812 324.140625 200.947265625 322.158203125 177.147460938 318.7578125 c 1
 174.879882812 313.090820312 172.61328125 312.807617188 170.346679688 317.908203125 c 1
 172.61328125 227.241210938 175.163085938 142.241210938 177.99609375 62.908203125 c 0
 176.86328125 53.275390625 172.471679688 45.625 164.821289062 39.9580078125 c 0
 157.170898438 34.291015625 148.529296875 31.4580078125 138.896484375 31.4580078125 c 1
 138.329101562 26.3583984375 137.479492188 26.640625 136.346679688 32.3076171875 c 1
 127.279296875 31.7412109375 119.912109375 34.57421875 114.245117188 40.8076171875 c 0
 109.145507812 45.9072265625 106.595703125 52.990234375 106.595703125 62.0576171875 c 2
 106.595703125 66.3076171875 l 2x44
 108.295898438 85.0068359375 109.145507812 116.173828125 109.145507812 159.807617188 c 0
 108.578125 240.274414062 106.595703125 329.807617188 103.1953125 428.407226562 c 0
 102.0625 466.374023438 101.495117188 491.874023438 101.495117188 504.907226562 c 0
 101.495117188 517.940429688 102.0625 535.365234375 103.1953125 557.182617188 c 0
 104.328125 578.999023438 104.895507812 594.157226562 104.895507812 602.657226562 c 0
 105.462890625 615.690429688 108.862304688 625.323242188 115.095703125 631.556640625 c 0
 121.328125 637.7890625 129.26171875 640.90625 138.89453125 640.90625 c 1
 140.594726562 635.239257812 142.01171875 635.239257812 143.14453125 640.90625 c 1x58
 153.911132812 640.90625 162.12890625 637.223632812 167.795898438 629.856445312 c 1
 168.362304688 622.489257812 169.212890625 621.072265625 170.345703125 625.60546875 c 1
 238.345703125 631.272460938 302.095703125 634.10546875 361.595703125 634.10546875 c 0
 401.262695312 634.10546875 435.549804688 632.688476562 464.44921875 629.85546875 c 0x28
EndSplineSet
Validated: 524289
EndChar

StartChar: G
Encoding: 71 71 40
Width: 550
VWidth: 901
GlyphClass: 2
Flags: HMW
HStem: 25.623 61.2017 263.2 63.3259 295.073 54.8269 613.825 53.5483
VStem: 93.943 67.9983
LayerCount: 2
Fore
SplineSet
437.33984375 651.224609375 m 0xb8
 465.672851562 640.458007812 483.5234375 631.107421875 490.890625 623.174804688 c 0
 497.690429688 616.375 501.08984375 608.44140625 501.08984375 599.375 c 0
 501.657226562 594.274414062 500.807617188 588.607421875 498.540039062 582.375 c 0
 497.407226562 577.274414062 493.723632812 573.591796875 487.491210938 571.32421875 c 0
 483.524414062 570.19140625 480.265625 569.625 477.715820312 569.625 c 0
 475.166015625 569.625 471.624023438 570.19140625 467.090820312 571.32421875 c 0
 463.69140625 572.458007812 455.899414062 576.708007812 443.715820312 584.07421875 c 0
 431.533203125 591.44140625 418.640625 598.241210938 405.041015625 604.474609375 c 0
 392.0078125 610.708007812 380.108398438 613.82421875 369.340820312 613.82421875 c 0
 351.774414062 613.82421875 333.215820312 607.44921875 313.666015625 594.69921875 c 0
 294.116210938 581.94921875 275.69921875 564.099609375 258.416015625 541.149414062 c 0
 241.1328125 518.19921875 225.408203125 492.274414062 211.241210938 463.375 c 0
 196.5078125 433.908203125 184.608398438 400.899414062 175.541015625 364.349609375 c 0
 166.473632812 327.799804688 161.94140625 290.82421875 161.94140625 253.424804688 c 0
 161.94140625 226.224609375 167.041015625 200.016601562 177.241210938 174.799804688 c 0
 187.44140625 149.583007812 201.608398438 128.474609375 219.741210938 111.474609375 c 0
 237.307617188 95.0419921875 256.858398438 86.8251953125 278.390625 86.8251953125 c 0
 292.557617188 86.8251953125 306.724609375 91.6416015625 320.891601562 101.274414062 c 0
 335.05859375 110.908203125 347.666992188 123.090820312 358.716796875 137.82421875 c 0
 369.766601562 152.556640625 380.108398438 168.70703125 389.7421875 186.2734375 c 0
 399.375 203.840820312 407.591796875 221.124023438 414.391601562 238.124023438 c 0
 421.19140625 255.124023438 426.575195312 270.70703125 430.541992188 284.874023438 c 0
 431.674804688 287.140625 432.807617188 290.82421875 433.94140625 295.923828125 c 1
 429.973632812 294.791015625 426.006835938 294.5078125 422.040039062 295.07421875 c 0
 388.040039062 293.375 354.890625 290.116210938 322.58984375 285.299804688 c 0
 290.290039062 280.482421875 267.623046875 274.107421875 254.58984375 266.174804688 c 0
 251.756835938 264.474609375 248.923828125 263.482421875 246.090820312 263.19921875 c 0
 243.2578125 262.916992188 240.424804688 263.908203125 237.591796875 266.17578125 c 0
 231.358398438 270.708984375 227.67578125 276.658203125 226.54296875 284.025390625 c 2
 226.54296875 290.825195312 l 2
 226.54296875 305.55859375 235.326171875 317.458984375 252.892578125 326.525390625 c 0xd8
 266.493164062 334.458984375 297.375976562 340.69140625 345.54296875 345.224609375 c 0
 381.243164062 348.057617188 412.409179688 349.474609375 439.04296875 349.474609375 c 0
 444.142578125 349.758789062 448.959960938 349.900390625 453.493164062 349.900390625 c 0
 458.025390625 349.900390625 462.275390625 349.758789062 466.243164062 349.474609375 c 0
 478.709960938 348.341796875 486.926757812 346.07421875 490.893554688 342.674804688 c 0
 495.993164062 338.708007812 498.543945312 331.340820312 498.543945312 320.57421875 c 0
 498.543945312 314.907226562 497.551757812 310.08984375 495.568359375 306.123046875 c 0
 493.5859375 302.15625 490.043945312 299.323242188 484.943359375 297.623046875 c 0
 483.243164062 295.356445312 481.543945312 294.505859375 479.84375 295.073242188 c 1
 479.84375 289.123046875 l 2
 479.84375 287.422851562 479.418945312 282.889648438 478.568359375 275.5234375 c 0
 477.71875 268.15625 477.010742188 262.206054688 476.443359375 257.672851562 c 0
 475.310546875 245.7734375 471.91015625 232.03125 466.243164062 216.448242188 c 0
 460.576171875 200.865234375 453.068359375 184.1484375 443.71875 166.297851562 c 0
 434.368164062 148.448242188 423.176757812 131.0234375 410.143554688 114.0234375 c 0
 397.676757812 97.58984375 384.359375 82.5732421875 370.192382812 68.97265625 c 0
 356.025390625 55.373046875 340.442382812 44.6064453125 323.442382812 36.6728515625 c 0
 306.442382812 29.3056640625 289.159179688 25.623046875 271.592773438 25.623046875 c 2
 269.892578125 25.623046875 l 1
 269.04296875 25.623046875 l 2
 248.642578125 25.623046875 229.375976562 29.3056640625 211.243164062 36.6728515625 c 0
 192.54296875 44.6064453125 176.109375 55.0888671875 161.942382812 68.1220703125 c 0
 147.775390625 81.1552734375 135.451171875 96.171875 124.967773438 113.171875 c 0
 114.484375 130.171875 106.692382812 148.305664062 101.592773438 167.572265625 c 0
 96.4931640625 186.838867188 93.9423828125 206.106445312 93.9423828125 225.373046875 c 0
 93.9423828125 267.873046875 98.05078125 309.240234375 106.267578125 349.47265625 c 0
 114.484375 389.706054688 125.676757812 425.831054688 139.84375 457.84765625 c 0
 154.010742188 489.865234375 170.727539062 519.190429688 189.994140625 545.823242188 c 0
 207.561523438 572.456054688 226.119140625 594.555664062 245.668945312 612.123046875 c 0
 265.219726562 629.690429688 285.194335938 643.290039062 305.594726562 652.922851562 c 0
 325.994140625 662.555664062 345.543945312 667.373046875 364.244140625 667.373046875 c 0
 384.64453125 667.373046875 409.006835938 661.991210938 437.33984375 651.224609375 c 0xb8
EndSplineSet
Validated: 524289
EndChar

StartChar: H
Encoding: 72 72 41
Width: 550
VWidth: 900
GlyphClass: 2
Flags: HMW
HStem: 315.349 56.1017 623.899 17G
VStem: 117.302 67.5741 407.575 70.5508 415.225 68.0008
LayerCount: 2
Fore
SplineSet
182.75 298.354492188 m 0xe8
 182.466796875 294.387695312 182.325195312 291.5546875 182.325195312 289.854492188 c 0
 180.625 261.521484375 179.775390625 228.513671875 179.775390625 190.830078125 c 0
 179.775390625 153.147460938 180.625 110.5 182.325195312 62.900390625 c 0
 181.192382812 53.267578125 176.659179688 45.6171875 168.725585938 39.9501953125 c 0
 160.79296875 34.283203125 152.009765625 31.4501953125 142.376953125 31.4501953125 c 1
 141.809570312 26.3505859375 140.959960938 26.6337890625 139.827148438 32.30078125 c 1
 131.327148438 31.7333984375 124.244140625 34.56640625 118.577148438 40.7998046875 c 0
 113.4765625 45.8994140625 110.926757812 52.7041015625 110.926757812 61.2041015625 c 0
 111.494140625 62.904296875 111.77734375 64.599609375 111.77734375 66.2998046875 c 0
 112.91015625 82.732421875 113.4765625 119.287109375 113.4765625 175.954101562 c 0
 113.4765625 205.421875 113.759765625 232.0546875 114.327148438 255.854492188 c 2
 114.327148438 256.704101562 l 2
 114.327148438 275.404296875 114.751953125 302.74609375 115.6015625 338.729492188 c 0
 116.452148438 374.712890625 117.018554688 397.9453125 117.301757812 408.428710938 c 0
 117.584960938 418.912109375 117.7265625 429.39453125 117.7265625 439.877929688 c 0
 117.7265625 450.361328125 117.443359375 467.502929688 116.876953125 491.302734375 c 0
 116.309570312 515.102539062 116.02734375 530.828125 116.02734375 538.477539062 c 0
 116.02734375 546.127929688 116.876953125 567.517578125 118.577148438 602.650390625 c 0
 119.143554688 615.68359375 122.543945312 625.31640625 128.77734375 631.549804688 c 0
 135.009765625 637.782226562 142.943359375 640.899414062 152.576171875 640.899414062 c 2
 155.125976562 640.899414062 l 2
 164.193359375 640.899414062 171.842773438 638.208007812 178.076171875 632.82421875 c 0
 184.309570312 627.44140625 187.42578125 618.233398438 187.42578125 605.200195312 c 0
 187.42578125 599.533203125 186.717773438 587.494140625 185.30078125 569.077148438 c 0
 183.883789062 550.66015625 183.174804688 533.66015625 183.174804688 518.077148438 c 0
 183.174804688 502.494140625 183.458984375 479.543945312 184.026367188 449.2265625 c 0
 184.592773438 418.91015625 184.875976562 395.818359375 184.875976562 379.951171875 c 2
 184.875976562 371.451171875 l 2
 187.142578125 365.784179688 189.693359375 365.784179688 192.526367188 371.451171875 c 1
 237.859375 372.583984375 292.258789062 377.966796875 355.725585938 387.600585938 c 0
 380.092773438 391 399.642578125 393.267578125 414.375976562 394.400390625 c 1
 414.375976562 402.05078125 l 2
 414.375976562 406.017578125 414.092773438 411.966796875 413.526367188 419.900390625 c 0
 412.958984375 427.833007812 412.67578125 433.783203125 412.67578125 437.75 c 0
 412.109375 472.883789062 411.826171875 495.975585938 411.826171875 507.025390625 c 0
 411.826171875 518.075195312 412.392578125 535.5 413.526367188 559.30078125 c 0
 414.659179688 583.100585938 415.225585938 597.55078125 415.225585938 602.650390625 c 0
 415.225585938 615.68359375 418.484375 625.31640625 425.000976562 631.549804688 c 0
 431.517578125 637.782226562 439.309570312 640.899414062 448.376953125 640.899414062 c 2
 450.926757812 640.899414062 l 2
 460.559570312 640.899414062 468.493164062 638.208007812 474.725585938 632.82421875 c 0
 480.958984375 627.44140625 484.076171875 618.233398438 484.076171875 605.200195312 c 0
 484.076171875 594.43359375 483.651367188 572.475585938 482.80078125 539.325195312 c 0
 481.951171875 506.17578125 481.526367188 476.850585938 481.526367188 451.350585938 c 0
 481.526367188 425.850585938 481.809570312 389.30078125 482.375976562 341.700195312 c 0
 482.943359375 328.666992188 483.225585938 310.25 483.225585938 286.450195312 c 0xe8
 483.225585938 262.650390625 482.375976562 225.67578125 480.67578125 175.525390625 c 0
 478.975585938 125.375 478.125976562 90.1005859375 478.125976562 69.7001953125 c 2
 478.125976562 64.6005859375 l 1
 478.125976562 62.900390625 l 2
 478.125976562 53.8330078125 473.592773438 46.18359375 464.526367188 39.9501953125 c 0
 457.159179688 34.283203125 448.659179688 31.4501953125 439.026367188 31.4501953125 c 1
 438.458984375 26.3505859375 437.609375 26.6337890625 436.475585938 32.30078125 c 1
 427.409179688 31.7333984375 420.04296875 34.56640625 414.375976562 40.7998046875 c 0
 409.842773438 45.8994140625 407.575195312 52.982421875 407.575195312 62.0498046875 c 2
 407.575195312 66.2998046875 l 1xf0
 412.674804688 138.266601562 415.225585938 218.166015625 415.225585938 305.999023438 c 2
 415.225585938 341.700195312 l 1
 411.825195312 336.033203125 408.708007812 335.749023438 405.875 340.849609375 c 1
 396.2421875 340.282226562 363.942382812 335.749023438 308.975585938 327.249023438 c 0
 254.575195312 319.31640625 215.192382812 315.349609375 190.825195312 315.349609375 c 2
 183.174804688 315.349609375 l 1
 183.174804688 306.849609375 l 2
 183.174804688 305.149414062 183.033203125 302.321289062 182.75 298.354492188 c 0xe8
EndSplineSet
Validated: 524289
EndChar

StartChar: I
Encoding: 73 73 42
Width: 550
VWidth: 900
GlyphClass: 2
Flags: HMW
HStem: 45.2434 49.6393 570.885 58.6509 581.085 54.4009
VStem: 262.223 64.6009 268.173 63.7508
LayerCount: 2
Fore
SplineSet
265.624023438 509.685546875 m 2xc8
 265.624023438 515.352539062 266.189453125 526.686523438 267.323242188 543.686523438 c 0
 268.456054688 560.686523438 269.0234375 570.603515625 269.0234375 573.436523438 c 2
 269.0234375 581.086914062 l 1
 240.124023438 581.653320312 216.041015625 581.936523438 196.7734375 581.936523438 c 0
 175.806640625 581.936523438 161.356445312 581.794921875 153.423828125 581.51171875 c 0
 145.491210938 581.228515625 141.241210938 581.086914062 140.673828125 581.086914062 c 0
 129.340820312 581.086914062 120.982421875 583.495117188 115.599609375 588.311523438 c 0
 110.216796875 593.12890625 107.524414062 599.220703125 107.524414062 606.587890625 c 2
 107.524414062 609.137695312 l 2
 107.524414062 615.9375 110.07421875 622.029296875 115.174804688 627.413085938 c 0
 120.274414062 632.795898438 129.057617188 635.487304688 141.524414062 635.487304688 c 0xa8
 188.557617188 637.1875 230.772460938 638.038085938 268.171875 638.038085938 c 0
 342.971679688 638.038085938 407.291015625 635.205078125 461.124023438 629.538085938 c 0
 470.756835938 628.404296875 478.125 626.137695312 483.224609375 622.737304688 c 0
 488.891601562 618.770507812 492.008789062 612.25390625 492.575195312 603.186523438 c 0
 492.575195312 594.686523438 490.025390625 586.75390625 484.92578125 579.38671875 c 0
 482.658203125 575.987304688 479.541992188 573.436523438 475.57421875 571.737304688 c 0
 472.741210938 570.603515625 470.19140625 570.037109375 467.924804688 570.037109375 c 0
 465.657226562 570.037109375 463.390625 570.3203125 461.124023438 570.88671875 c 0
 443.556640625 573.719726562 400.490234375 576.836914062 331.922851562 580.237304688 c 1
 331.922851562 571.737304688 l 2
 331.922851562 567.204101562 331.639648438 552.329101562 331.073242188 527.112304688 c 0
 330.505859375 501.89453125 330.22265625 479.653320312 330.22265625 460.385742188 c 2
 330.22265625 421.286132812 l 2
 330.22265625 403.71875 330.505859375 385.727539062 331.073242188 367.310546875 c 0
 331.639648438 348.893554688 331.922851562 327.926757812 331.922851562 304.409179688 c 0xc8
 331.922851562 280.892578125 331.073242188 244.484375 329.373046875 195.184570312 c 0
 327.672851562 145.884765625 326.823242188 115.284179688 326.823242188 103.384765625 c 2
 326.823242188 94.884765625 l 1
 334.47265625 94.884765625 l 2
 354.873046875 94.884765625 398.505859375 94.6015625 465.373046875 94.0341796875 c 0
 476.706054688 94.0341796875 484.213867188 91.9091796875 487.897460938 87.6591796875 c 0
 491.580078125 83.4091796875 493.705078125 77.6015625 494.272460938 70.234375 c 0
 494.272460938 65.701171875 493.846679688 61.734375 492.997070312 58.333984375 c 0
 492.147460938 54.9345703125 490.588867188 51.5341796875 488.322265625 48.134765625 c 0
 487.189453125 45.3017578125 485.206054688 43.458984375 482.373046875 42.609375 c 0
 479.540039062 41.759765625 476.84765625 41.1923828125 474.297851562 40.9091796875 c 0
 471.748046875 40.6259765625 469.33984375 40.7685546875 467.073242188 41.3349609375 c 0
 451.7734375 43.6025390625 427.40625 44.7353515625 393.97265625 44.7353515625 c 0
 390.005859375 44.7353515625 380.373046875 44.876953125 365.073242188 45.16015625 c 0
 362.014648438 45.216796875 358.7421875 45.2451171875 355.25390625 45.2451171875 c 0
 341.290039062 45.2451171875 323.879882812 44.7919921875 303.0234375 43.884765625 c 2
 246.923828125 37.7646484375 l 2
 234.45703125 37.7646484375 221.990234375 38.671875 209.5234375 40.484375 c 0
 174.389648438 39.3515625 150.165039062 38.7841796875 136.84765625 38.7841796875 c 0
 123.53125 38.7841796875 114.180664062 40.9091796875 108.797851562 45.1591796875 c 0
 103.415039062 49.4091796875 100.72265625 54.9345703125 100.72265625 61.734375 c 2
 100.72265625 63.4345703125 l 2
 100.72265625 70.234375 103.2734375 76.326171875 108.373046875 81.708984375 c 0
 113.47265625 87.0927734375 122.255859375 90.0673828125 134.72265625 90.634765625 c 0
 158.5234375 91.201171875 201.0234375 92.333984375 262.22265625 94.033203125 c 1xd0
 266.189453125 164.30078125 268.172851562 234.284179688 268.172851562 303.984375 c 0
 268.362304688 315.701171875 268.45703125 327.48046875 268.45703125 339.323242188 c 0
 268.45703125 362.991210938 268.079101562 386.912109375 267.32421875 411.083984375 c 0
 266.190429688 436.016601562 265.624023438 462.93359375 265.624023438 491.833984375 c 2
 265.624023438 509.685546875 l 2xc8
EndSplineSet
Validated: 524289
EndChar

StartChar: J
Encoding: 74 74 43
Width: 550
VWidth: 899
GlyphClass: 2
Flags: HMW
HStem: 19.4508 69.7009 581.3 55.2508
VStem: 99.024 59.5 314.924 54.4009
LayerCount: 2
Fore
SplineSet
216.325195312 581.299804688 m 0
 189.69140625 581.299804688 171.274414062 581.015625 161.07421875 580.44921875 c 0
 150.874023438 579.881835938 145.491210938 579.599609375 144.923828125 579.599609375 c 0
 133.590820312 579.599609375 125.090820312 582.006835938 119.423828125 586.82421875 c 0
 113.756835938 591.640625 110.923828125 597.733398438 110.923828125 605.099609375 c 2
 110.923828125 607.650390625 l 2
 110.923828125 614.450195312 113.616210938 620.541992188 118.999023438 625.924804688 c 0
 124.381835938 631.307617188 133.306640625 634 145.774414062 634 c 0
 192.241210938 635.700195312 234.173828125 636.549804688 271.57421875 636.549804688 c 0
 346.374023438 636.549804688 410.69140625 633.716796875 464.524414062 628.049804688 c 0
 474.157226562 627.483398438 481.524414062 625.215820312 486.624023438 621.249023438 c 0
 492.291015625 617.282226562 495.408203125 610.765625 495.974609375 601.698242188 c 0
 495.974609375 593.198242188 493.424804688 585.265625 488.325195312 577.8984375 c 0
 486.057617188 574.498046875 482.94140625 571.948242188 478.973632812 570.248046875 c 0
 476.70703125 569.115234375 474.298828125 568.548828125 471.749023438 568.548828125 c 0
 469.19921875 568.548828125 466.791015625 568.831054688 464.524414062 569.3984375 c 0
 447.524414062 572.231445312 414.657226562 574.78125 365.923828125 577.048828125 c 1
 365.923828125 568.548828125 l 2
 365.923828125 552.115234375 366.491210938 527.182617188 367.624023438 493.749023438 c 0
 368.19140625 458.048828125 369.041015625 427.732421875 370.173828125 402.798828125 c 0
 371.306640625 378.999023438 371.874023438 349.95703125 371.874023438 315.673828125 c 0
 371.874023438 281.390625 371.024414062 250.932617188 369.32421875 224.299804688 c 0
 365.357421875 173.299804688 359.264648438 132.5 351.047851562 101.900390625 c 0
 342.831054688 71.2998046875 333.338867188 49.908203125 322.572265625 37.724609375 c 0
 311.805664062 25.5419921875 299.055664062 19.4501953125 284.322265625 19.4501953125 c 0
 267.889648438 19.4501953125 251.456054688 22.7080078125 235.0234375 29.224609375 c 0
 218.58984375 35.7421875 204.139648438 44.3837890625 191.672851562 55.150390625 c 0
 178.639648438 65.91796875 166.315429688 77.8173828125 154.698242188 90.8505859375 c 0
 143.081054688 103.883789062 133.448242188 116.775390625 125.797851562 129.525390625 c 0
 118.1484375 142.275390625 112.056640625 153.750976562 107.5234375 163.951171875 c 0
 102.990234375 174.150390625 100.440429688 182.368164062 99.873046875 188.600585938 c 0
 99.306640625 191.43359375 99.0234375 194.55078125 99.0234375 197.951171875 c 0
 99.0234375 204.750976562 100.15625 212.400390625 102.422851562 220.900390625 c 0
 103.556640625 226.567382812 106.248046875 231.243164062 110.498046875 234.92578125 c 0
 114.748046875 238.608398438 120.2734375 241.016601562 127.073242188 242.150390625 c 2
 133.873046875 242.150390625 l 2
 140.672851562 242.716796875 146.056640625 241.016601562 150.0234375 237.049804688 c 0
 155.690429688 231.3828125 158.5234375 224.299804688 158.5234375 215.799804688 c 0
 158.5234375 199.3671875 163.623046875 180.383789062 173.823242188 158.850585938 c 0
 179.490234375 146.951171875 186.857421875 135.900390625 195.923828125 125.701171875 c 0
 203.857421875 115.500976562 214.764648438 106.858398438 228.6484375 99.775390625 c 0
 242.53125 92.6923828125 257.973632812 89.150390625 274.973632812 89.150390625 c 0
 287.440429688 89.150390625 296.790039062 100.767578125 303.0234375 124.000976562 c 0
 309.255859375 148.93359375 313.223632812 189.166992188 314.922851562 244.700195312 c 2
 314.922851562 265.099609375 l 2
 314.922851562 276.432617188 314.498046875 312.700195312 313.6484375 373.900390625 c 0
 313.138671875 410.622070312 312.883789062 449.893554688 312.883789062 491.715820312 c 0
 312.883789062 519.59375 312.997070312 548.60546875 313.223632812 578.750976562 c 1
 274.124023438 580.451171875 241.825195312 581.299804688 216.325195312 581.299804688 c 0
EndSplineSet
Validated: 524289
EndChar

StartChar: K
Encoding: 75 75 44
Width: 550
VWidth: 901
GlyphClass: 2
Flags: HMW
HStem: 33.7766 17.85G 641.556 17.85G
VStem: 104.975 67.1517 108.377 70.55
LayerCount: 2
Fore
SplineSet
103.275390625 511.930664062 m 0xe0
 103.275390625 524.680664062 103.842773438 543.23828125 104.975585938 567.60546875 c 0
 106.109375 591.405273438 106.67578125 606.422851562 106.67578125 612.655273438 c 0
 107.243164062 628.522460938 110.642578125 640.139648438 116.875976562 647.506835938 c 0
 123.109375 654.873046875 131.041992188 658.556640625 140.674804688 658.556640625 c 2
 143.224609375 658.556640625 l 2
 152.291992188 659.123046875 159.942382812 656.006835938 166.174804688 649.206054688 c 0
 172.408203125 642.973632812 175.525390625 631.640625 175.525390625 615.20703125 c 0
 175.525390625 602.173828125 174.958007812 572.70703125 173.825195312 526.807617188 c 0
 172.692382812 480.907226562 171.841796875 436.140625 171.275390625 392.506835938 c 1
 200.174804688 423.107421875 233.608398438 459.657226562 271.575195312 502.157226562 c 0
 347.5078125 583.190429688 392.275390625 629.657226562 405.875 641.557617188 c 0
 412.674804688 649.490234375 419.192382812 654.590820312 425.424804688 656.857421875 c 0
 429.391601562 658.557617188 432.791992188 659.407226562 435.625 659.407226562 c 0
 441.291992188 659.407226562 446.674804688 656.006835938 451.775390625 649.206054688 c 0
 456.30859375 641.83984375 458.575195312 634.190429688 458.575195312 626.256835938 c 0
 458.575195312 618.890625 453.474609375 610.390625 443.275390625 600.756835938 c 0
 434.775390625 590.557617188 405.875 559.673828125 356.575195312 508.107421875 c 0
 309.541992188 454.274414062 265.909179688 405.256835938 225.67578125 361.057617188 c 1
 230.776367188 355.107421875 l 2
 248.909179688 335.274414062 279.225585938 303.541015625 321.725585938 259.908203125 c 0
 407.29296875 172.641601562 458.576171875 119.090820312 475.576171875 99.2578125 c 0
 482.942382812 90.7578125 487.475585938 85.0908203125 489.17578125 82.2578125 c 0
 490.875976562 79.4248046875 491.725585938 76.591796875 491.725585938 73.7587890625 c 0
 491.725585938 68.6591796875 491.159179688 64.1259765625 490.026367188 60.1591796875 c 0
 487.192382812 51.6591796875 482.942382812 45.1416015625 477.276367188 40.609375 c 0
 471.609375 36.076171875 466.225585938 33.80859375 461.125976562 33.80859375 c 0
 460.790039062 33.787109375 460.453125 33.7763671875 460.115234375 33.7763671875 c 0
 451.34375 33.7763671875 442.047851562 40.87109375 432.224609375 55.05859375 c 0
 425.9921875 62.9912109375 405.875 82.541015625 371.875 113.708007812 c 0
 340.141601562 145.44140625 305.859375 180.291015625 269.026367188 218.2578125 c 0
 232.192382812 259.05859375 204.709960938 291.358398438 186.577148438 315.158203125 c 2
 172.126953125 333.0078125 l 1
 172.126953125 293.05859375 l 1xe0
 178.926757812 72.0576171875 l 2
 178.359375 59.5908203125 174.107421875 49.9580078125 166.173828125 43.158203125 c 0
 158.241210938 36.3583984375 149.4609375 32.9580078125 139.827148438 32.9580078125 c 1
 139.260742188 27.8583984375 138.41015625 28.1416015625 137.27734375 33.80859375 c 1
 128.2109375 33.2412109375 120.84375 36.923828125 115.176757812 44.857421875 c 0
 110.643554688 51.6572265625 108.376953125 60.724609375 108.376953125 72.0576171875 c 2
 108.376953125 75.45703125 l 2xd0
 110.077148438 94.1572265625 110.926757812 125.32421875 110.926757812 168.95703125 c 0
 110.359375 249.990234375 108.375 339.807617188 104.974609375 438.407226562 c 0
 103.841796875 474.673828125 103.275390625 499.180664062 103.275390625 511.930664062 c 0xe0
EndSplineSet
Validated: 524289
EndChar

StartChar: L
Encoding: 76 76 45
Width: 550
VWidth: 900
GlyphClass: 2
Flags: HMW
HStem: 37.6437 56.9509
VStem: 128.773 61.2033
LayerCount: 2
Fore
SplineSet
482.799804688 112.018554688 m 0
 485.349609375 108.3359375 487.474609375 104.369140625 489.174804688 100.119140625 c 0
 490.875 95.869140625 491.724609375 91.7607421875 491.724609375 87.7939453125 c 0
 491.724609375 79.2939453125 489.8828125 72.9189453125 486.200195312 68.6689453125 c 0
 482.516601562 64.4189453125 474.442382812 61.1611328125 461.974609375 58.8935546875 c 0
 424.0078125 51.5263671875 368.7578125 46.1435546875 296.224609375 42.744140625 c 0
 223.125 39.34375 168.442382812 37.6435546875 132.174804688 37.6435546875 c 0
 123.674804688 37.0771484375 116.591796875 39.91015625 110.924804688 46.142578125 c 0
 105.825195312 51.2431640625 103.275390625 58.326171875 103.275390625 67.392578125 c 0
 103.275390625 69.0927734375 103.416992188 71.642578125 103.700195312 75.04296875 c 0
 103.983398438 78.443359375 107.241210938 109.892578125 113.474609375 169.392578125 c 0
 119.70703125 230.026367188 124.240234375 288.392578125 127.073242188 344.493164062 c 0
 128.206054688 359.79296875 128.7734375 380.334960938 128.7734375 406.118164062 c 0
 128.7734375 431.901367188 128.631835938 451.451171875 128.348632812 464.767578125 c 0
 128.065429688 478.084960938 127.357421875 521.577148438 126.224609375 595.244140625 c 0
 126.791015625 608.84375 130.333007812 618.760742188 136.849609375 624.994140625 c 0
 143.3671875 631.2265625 151.159179688 634.34375 160.225585938 634.34375 c 2
 162.775390625 634.34375 l 2
 171.842773438 634.34375 179.493164062 631.510742188 185.725585938 625.84375 c 0
 191.958984375 620.176757812 195.076171875 611.109375 195.076171875 598.642578125 c 0
 195.264648438 593.3515625 195.359375 587.366210938 195.359375 580.688476562 c 0
 195.359375 567.342773438 194.982421875 551.227539062 194.2265625 532.342773438 c 0
 192.526367188 490.41015625 191.109375 454.426757812 189.9765625 424.393554688 c 0
 188.276367188 381.327148438 186.859375 343.926757812 185.725585938 312.193359375 c 0
 185.159179688 288.9609375 183.176757812 254.677734375 179.776367188 209.344726562 c 0
 176.376953125 164.01171875 174.676757812 128.594726562 174.676757812 103.094726562 c 2
 174.676757812 94.5947265625 l 1
 195.076171875 94.5947265625 l 2
 237.008789062 95.1611328125 285.743164062 98.2783203125 341.275390625 103.9453125 c 0
 399.076171875 109.612304688 438.743164062 114.995117188 460.275390625 120.095703125 c 0
 462.54296875 120.662109375 464.66796875 120.9453125 466.650390625 120.9453125 c 0
 468.633789062 120.9453125 470.758789062 120.662109375 473.025390625 120.095703125 c 0
 476.993164062 118.395507812 480.25 115.702148438 482.799804688 112.018554688 c 0
EndSplineSet
Validated: 524289
EndChar

StartChar: M
Encoding: 77 77 46
Width: 550
VWidth: 902
GlyphClass: 2
Flags: HMW
HStem: 43.5501 17.85G<109.225 113.759> 633.451 17G
VStem: 84.5751 57.8009 259.676 73.0991
LayerCount: 2
Fore
SplineSet
133.025390625 56.2998046875 m 0
 126.224609375 47.7998046875 118.291992188 43.5498046875 109.224609375 43.5498046875 c 0
 92.7919921875 44.1171875 84.5751953125 63.3837890625 84.5751953125 101.350585938 c 0
 84.5751953125 108.151367188 85.283203125 119.909179688 86.7001953125 136.625976562 c 0
 88.1171875 153.342773438 90.2421875 175.30078125 93.0751953125 202.500976562 c 0
 95.908203125 229.701171875 98.1748046875 253.500976562 99.875 273.901367188 c 0
 104.974609375 343.034179688 108.375 386.951171875 110.075195312 405.651367188 c 0
 112.341796875 430.017578125 115.174804688 460.05078125 118.575195312 495.750976562 c 0
 125.375 564.883789062 132.458007812 606.534179688 139.825195312 620.701171875 c 0
 145.4921875 630.901367188 153.424804688 638.55078125 163.625 643.651367188 c 0
 173.2578125 648.18359375 182.325195312 650.451171875 190.825195312 650.451171875 c 2
 194.224609375 650.451171875 l 2
 203.858398438 650.451171875 211.791015625 648.750976562 218.024414062 645.350585938 c 0
 225.391601562 640.817382812 230.208007812 633.734375 232.474609375 624.1015625 c 0
 238.708007812 599.168945312 245.650390625 558.0859375 253.299804688 500.852539062 c 0
 260.950195312 443.619140625 268.7421875 378.02734375 276.674804688 304.077148438 c 0
 284.608398438 230.127929688 290.276367188 181.252929688 293.67578125 157.452148438 c 0
 295.942382812 142.719726562 298.4921875 123.450195312 301.325195312 99.650390625 c 1
 303.025390625 122.8828125 304.442382812 142.15234375 305.575195312 157.452148438 c 0
 310.674804688 237.919921875 316.625 310.169921875 323.424804688 374.202148438 c 0
 328.525390625 421.235351562 335.18359375 468.268554688 343.400390625 515.301757812 c 0
 351.6171875 562.334960938 358.841796875 598.6015625 365.075195312 624.1015625 c 0
 366.775390625 630.901367188 370.599609375 636.568359375 376.549804688 641.1015625 c 0
 382.5 645.634765625 388.591796875 648.467773438 394.825195312 649.600585938 c 0
 399.358398438 650.16796875 403.325195312 650.451171875 406.724609375 650.451171875 c 2
 415.224609375 650.451171875 l 1
 418.625 650.451171875 l 1
 429.674804688 650.451171875 l 2
 432.5078125 650.451171875 436.333007812 649.883789062 441.150390625 648.750976562 c 0
 445.966796875 647.618164062 449.508789062 646.059570312 451.776367188 644.077148438 c 0
 454.04296875 642.09375 456.451171875 639.119140625 459.000976562 635.151367188 c 0
 461.55078125 631.184570312 463.392578125 626.084960938 464.526367188 619.8515625 c 0
 466.79296875 602.28515625 473.451171875 517.426757812 484.500976562 365.276367188 c 0
 495.55078125 213.126953125 503.342773438 126.8515625 507.875976562 106.452148438 c 0
 509.576171875 97.384765625 510.42578125 89.16796875 510.42578125 81.80078125 c 0
 510.42578125 64.80078125 504.475585938 53.4677734375 492.576171875 47.80078125 c 0
 488.609375 46.1005859375 484.500976562 45.2509765625 480.250976562 45.2509765625 c 0
 476.000976562 45.2509765625 471.326171875 46.66796875 466.225585938 49.5009765625 c 0
 457.725585938 54.0341796875 450.92578125 64.234375 445.826171875 80.1005859375 c 0
 433.92578125 117.500976562 423.442382812 282.401367188 414.375976562 574.80078125 c 0
 413.80859375 588.967773438 413.2421875 607.100585938 412.674804688 629.201171875 c 1
 409.275390625 607.66796875 405.875 590.100585938 402.474609375 576.500976562 c 0
 386.608398438 494.333984375 376.408203125 419.534179688 371.875 352.100585938 c 0
 367.341796875 287.500976562 360.966796875 226.30078125 352.75 168.500976562 c 0
 344.533203125 110.701171875 337.875 75.5673828125 332.775390625 63.1005859375 c 0
 328.2421875 51.767578125 315.208984375 46.1005859375 293.67578125 46.1005859375 c 2
 290.276367188 46.1005859375 l 2
 282.342773438 46.1005859375 275.54296875 47.6591796875 269.875976562 50.7763671875 c 0
 264.208984375 53.892578125 260.80859375 58.28515625 259.67578125 63.9521484375 c 0
 253.442382812 91.1513671875 242.959960938 153.34375 228.2265625 250.526367188 c 0
 213.494140625 347.709960938 199.893554688 441.3515625 187.426757812 531.452148438 c 0
 184.59375 544.484375 182.043945312 561.767578125 179.776367188 583.30078125 c 1
 178.077148438 561.767578125 176.376953125 544.484375 174.676757812 531.452148438 c 0
 170.709960938 481.584960938 167.592773438 441.067382812 165.326171875 409.901367188 c 0
 163.625976562 381.000976562 161.92578125 356.350585938 160.225585938 335.951171875 c 0
 158.526367188 307.618164062 156.826171875 282.967773438 155.125976562 262.000976562 c 0
 153.42578125 238.201171875 151.442382812 213.55078125 149.17578125 188.05078125 c 0
 147.475585938 163.68359375 145.776367188 143.567382812 144.076171875 127.700195312 c 0
 142.942382812 115.799804688 142.375976562 106.450195312 142.375976562 99.650390625 c 0
 142.942382812 92.849609375 143.225585938 91.150390625 143.225585938 91.150390625 c 2
 143.225585938 76.4169921875 139.825195312 64.7998046875 133.025390625 56.2998046875 c 0
EndSplineSet
Validated: 524289
EndChar

StartChar: N
Encoding: 78 78 47
Width: 550
VWidth: 901
GlyphClass: 2
Flags: HMW
HStem: 41.2517 17.85G 633.7 17G<145.774 152.574 451.775 458.858>
VStem: 104.975 53.55 111.137 49.9374 427.976 62.0491 436.901 53.124
LayerCount: 2
Fore
SplineSet
456.024414062 650.700195312 m 0xc8
 461.69140625 650.700195312 466.223632812 650.1328125 469.624023438 649 c 0
 473.024414062 647.299804688 475.57421875 645.599609375 477.274414062 643.900390625 c 0
 478.973632812 642.200195312 480.390625 638.516601562 481.524414062 632.849609375 c 0
 483.223632812 629.450195312 484.357421875 625.766601562 484.923828125 621.799804688 c 0
 485.491210938 617.833007812 486.340820312 611.599609375 487.473632812 603.099609375 c 0
 488.607421875 595.166992188 489.45703125 550.1171875 490.024414062 467.950195312 c 2
 490.024414062 432.25 l 2
 490.024414062 360.849609375 489.173828125 294.266601562 487.473632812 232.5 c 0
 485.774414062 170.166992188 483.791015625 127.666992188 481.524414062 105 c 0
 479.256835938 81.2001953125 476.990234375 66.466796875 474.723632812 60.7998046875 c 0
 470.190429688 46.6328125 457.157226562 39.5498046875 435.624023438 39.5498046875 c 1
 433.923828125 33.8828125 432.506835938 33.8828125 431.374023438 39.5498046875 c 1
 424.006835938 39.5498046875 417.774414062 41.533203125 412.673828125 45.5 c 0
 407.57421875 49.466796875 403.890625 54.849609375 401.624023438 61.650390625 c 0
 397.657226562 70.716796875 384.624023438 95.93359375 362.524414062 137.30078125 c 2
 299.624023438 261.400390625 l 2
 278.090820312 302.767578125 255.708007812 349.234375 232.474609375 400.801757812 c 0
 208.674804688 453.501953125 190.2578125 498.268554688 177.224609375 535.1015625 c 0
 170.424804688 554.934570312 163.908203125 572.78515625 157.674804688 588.651367188 c 1
 158.807617188 569.951171875 159.94140625 550.118164062 161.07421875 529.151367188 c 0
 163.907226562 480.418945312 165.32421875 433.951171875 165.32421875 389.751953125 c 0
 165.32421875 378.418945312 165.041015625 356.885742188 164.473632812 325.15234375 c 0
 163.907226562 292.852539062 162.774414062 253.469726562 161.07421875 207.002929688 c 0xd8
 159.374023438 160.53515625 158.524414062 128.518554688 158.524414062 110.951171875 c 2
 158.524414062 104.151367188 l 2
 159.090820312 100.184570312 159.374023438 96.78515625 159.374023438 93.951171875 c 2
 159.374023438 88.8515625 l 2
 159.374023438 72.4189453125 156.541015625 60.5185546875 150.874023438 53.1513671875 c 0
 145.20703125 45.21875 138.124023438 41.251953125 129.624023438 41.251953125 c 2
 127.923828125 41.251953125 l 2
 123.95703125 41.251953125 120.556640625 42.384765625 117.723632812 44.6513671875 c 0
 114.890625 46.9189453125 112.624023438 50.8857421875 110.923828125 56.552734375 c 0
 106.95703125 65.619140625 104.973632812 79.5029296875 104.973632812 98.2021484375 c 0xe0
 104.973632812 108.969726562 105.82421875 152.602539062 107.524414062 229.102539062 c 0
 109.223632812 306.168945312 110.357421875 373.319335938 110.923828125 430.552734375 c 0
 111.06640625 444.862304688 111.13671875 459.030273438 111.13671875 473.055664062 c 0
 111.13671875 515.12890625 110.499023438 555.928710938 109.223632812 595.452148438 c 2
 109.223632812 601.40234375 l 2
 109.791015625 609.90234375 111.208007812 617.552734375 113.474609375 624.352539062 c 0
 115.7421875 631.719726562 119.141601562 637.38671875 123.674804688 641.353515625 c 0
 131.607421875 647.5859375 140.673828125 650.700195312 150.874023438 650.700195312 c 0
 154.274414062 650.700195312 157.391601562 650.419921875 160.224609375 649.853515625 c 2
 161.07421875 649.853515625 l 2
 170.140625 649.853515625 177.791992188 647.8671875 184.024414062 643.900390625 c 0
 191.391601562 639.3671875 196.4921875 631.153320312 199.325195312 619.252929688 c 0
 210.658203125 581.853515625 241.2578125 511.5859375 291.125 408.453125 c 0
 340.424804688 305.88671875 383.208007812 223.153320312 419.474609375 160.252929688 c 0
 424.0078125 149.486328125 428.541015625 141.553710938 433.07421875 136.453125 c 1
 433.640625 144.953125 434.208007812 155.436523438 434.774414062 167.903320312 c 0
 435.908203125 204.169921875 436.474609375 250.919921875 436.474609375 308.153320312 c 0
 436.758789062 322.3203125 436.900390625 337.1953125 436.900390625 352.778320312 c 0xd4
 436.900390625 368.361328125 436.758789062 384.653320312 436.475585938 401.653320312 c 0
 434.775390625 504.220703125 431.942382812 571.9375 427.975585938 604.803710938 c 1
 427.975585938 609.904296875 l 2
 427.975585938 620.670898438 430.2421875 629.73828125 434.775390625 637.104492188 c 0
 440.442382812 646.171875 447.524414062 650.700195312 456.024414062 650.700195312 c 0xc8
EndSplineSet
Validated: 524289
EndChar

StartChar: O
Encoding: 79 79 48
Width: 550
VWidth: 902
GlyphClass: 2
Flags: HMW
HStem: 31.6518 62.8991 601.582 60.7685
VStem: 105.824 65.4517 423.725 65.4491
LayerCount: 2
Fore
SplineSet
386.32421875 154.051757812 m 0
 397.090820312 168.78515625 405.307617188 185.501953125 410.974609375 204.202148438 c 0
 413.2421875 211.568359375 415.649414062 228.8515625 418.200195312 256.051757812 c 0
 420.75 283.251953125 422.591796875 315.268554688 423.724609375 352.1015625 c 0
 424.291992188 362.869140625 424.575195312 373.635742188 424.575195312 384.40234375 c 0
 424.575195312 411.036132812 423.44140625 437.102539062 421.174804688 462.602539062 c 0
 417.774414062 501.703125 405.024414062 534.569335938 382.924804688 561.203125 c 0
 362.524414062 587.8359375 337.307617188 601.293945312 307.274414062 601.577148438 c 0
 306.930664062 601.580078125 306.5859375 601.58203125 306.2421875 601.58203125 c 0
 276.663085938 601.58203125 251.791015625 589.538085938 231.625 565.451171875 c 0
 211.791992188 541.651367188 197.05859375 509.068359375 187.42578125 467.701171875 c 0
 176.659179688 423.500976562 171.275390625 373.068359375 171.275390625 316.401367188 c 0
 171.842773438 281.267578125 173.825195312 250.384765625 177.225585938 223.751953125 c 0
 178.92578125 207.884765625 182.325195312 192.017578125 187.42578125 176.151367188 c 0
 192.525390625 160.284179688 198.758789062 146.401367188 206.125976562 134.500976562 c 0
 212.92578125 122.600585938 221.9921875 112.967773438 233.325195312 105.600585938 c 0
 244.659179688 98.234375 257.407226562 94.55078125 271.57421875 94.55078125 c 0
 301.607421875 94.55078125 328.525390625 102.767578125 352.325195312 119.201171875 c 0
 364.79296875 127.701171875 376.124023438 139.318359375 386.32421875 154.051757812 c 0
105.82421875 273.900390625 m 2
 105.82421875 299.966796875 106.108398438 320.791992188 106.674804688 336.375 c 0
 107.2421875 351.958007812 108.375 372.783203125 110.075195312 398.850585938 c 0
 113.474609375 449.283203125 122.825195312 495.75 138.125 538.25 c 0
 152.291992188 574.517578125 176.375 604.267578125 210.375 627.5 c 0
 241.541992188 650.733398438 276.958984375 662.350585938 316.625976562 662.350585938 c 0
 336.458984375 662.350585938 355.44140625 658.100585938 373.575195312 649.600585938 c 0
 392.274414062 641.100585938 409.557617188 628.775390625 425.424804688 612.625 c 0
 441.291992188 596.475585938 454.466796875 575.791992188 464.950195312 550.575195312 c 0
 475.432617188 525.358398438 482.090820312 496.8828125 484.923828125 465.150390625 c 0
 487.756835938 430.017578125 489.173828125 394.034179688 489.173828125 357.201171875 c 0
 489.173828125 328.868164062 488.181640625 299.259765625 486.19921875 268.376953125 c 0
 484.215820312 237.494140625 480.673828125 212.418945312 475.57421875 193.151367188 c 0
 468.20703125 166.518554688 459.282226562 143.568359375 448.798828125 124.301757812 c 0
 438.31640625 105.03515625 426.982421875 89.4521484375 414.799804688 77.5517578125 c 0
 402.6171875 65.6513671875 388.591796875 56.3017578125 372.724609375 49.501953125 c 0
 357.9921875 42.7021484375 342.69140625 37.884765625 326.825195312 35.0517578125 c 0
 310.958007812 32.78515625 292.541015625 31.6513671875 271.57421875 31.6513671875 c 0
 241.541015625 31.6513671875 213.774414062 41.8515625 188.274414062 62.251953125 c 0
 161.640625 82.6513671875 141.241210938 109.8515625 127.07421875 143.8515625 c 0
 112.907226562 177.8515625 105.82421875 214.684570312 105.82421875 254.3515625 c 2
 105.82421875 258.6015625 l 1
 105.82421875 273.900390625 l 2
EndSplineSet
Validated: 524289
EndChar

StartChar: P
Encoding: 80 80 49
Width: 550
VWidth: 900
GlyphClass: 2
Flags: HMW
HStem: 34.3249 17.85G<153.426 158.526 158.526 161.076> 245.975 61.1983 594.472 44.2025
VStem: 121.976 63.75 128.096 69.5291 419.475 62.05<450.824 488.222>
LayerCount: 2
Fore
SplineSet
188.275390625 586.823242188 m 1xf4
 185.725585938 516.2734375 l 2
 183.912109375 458.704101562 183.005859375 405.66796875 183.005859375 357.1640625 c 0
 183.005859375 345.033203125 183.0625 333.186523438 183.17578125 321.623046875 c 1
 189.125976562 319.922851562 l 2
 212.359375 311.422851562 238.42578125 307.172851562 267.326171875 307.172851562 c 0
 282.625976562 307.172851562 296.650390625 308.448242188 309.400390625 310.998046875 c 0
 322.150390625 313.547851562 333.342773438 316.948242188 342.975585938 321.198242188 c 0
 352.609375 325.448242188 361.109375 330.973632812 368.475585938 337.7734375 c 0
 376.409179688 344.573242188 383.208984375 351.515625 388.875976562 358.598632812 c 0
 394.54296875 365.681640625 399.359375 373.755859375 403.326171875 382.823242188 c 0
 407.293945312 391.890625 410.268554688 400.248046875 412.251953125 407.8984375 c 0
 414.234375 415.547851562 415.79296875 424.190429688 416.92578125 433.823242188 c 0
 418.05859375 443.456054688 418.766601562 451.389648438 419.049804688 457.622070312 c 0
 419.333007812 463.85546875 419.474609375 471.22265625 419.474609375 479.72265625 c 0
 419.474609375 496.72265625 416.358398438 512.1640625 410.125 526.047851562 c 0
 403.891601562 539.930664062 395.958007812 551.122070312 386.325195312 559.622070312 c 0
 377.2578125 567.555664062 367.201171875 574.213867188 356.150390625 579.596679688 c 0
 345.100585938 584.979492188 334.618164062 588.8046875 324.701171875 591.071289062 c 0
 314.784179688 593.338867188 305.0078125 594.471679688 295.375 594.471679688 c 0
 277.807617188 594.471679688 242.109375 591.922851562 188.275390625 586.823242188 c 1xf4
121.125 582.575195312 m 1
 119.9921875 578.608398438 118.575195312 580.0234375 116.875 586.823242188 c 0
 114.608398438 590.790039062 113.474609375 594.474609375 113.474609375 597.875 c 0
 114.041992188 598.44140625 114.325195312 599.291992188 114.325195312 600.424804688 c 0
 114.891601562 606.091796875 117.016601562 611.049804688 120.700195312 615.299804688 c 0
 124.3828125 619.549804688 128.208007812 622.2421875 132.174804688 623.375 c 0
 152.0078125 627.908203125 181.474609375 631.590820312 220.575195312 634.423828125 c 0
 256.275390625 637.256835938 281.208007812 638.673828125 295.375 638.673828125 c 0
 329.375 638.673828125 359.692382812 632.157226562 386.325195312 619.124023438 c 0
 415.224609375 606.090820312 438.174804688 586.541015625 455.174804688 560.473632812 c 0
 472.174804688 534.407226562 480.958007812 502.95703125 481.525390625 466.124023438 c 0
 481.525390625 435.524414062 476.567382812 406.765625 466.650390625 379.848632812 c 0
 456.733398438 352.932617188 443.1328125 329.557617188 425.849609375 309.723632812 c 0
 408.567382812 289.890625 388.025390625 274.307617188 364.224609375 262.974609375 c 0
 341.557617188 251.641601562 316.908203125 245.974609375 290.275390625 245.974609375 c 0
 250.608398438 245.974609375 218.875 248.807617188 195.075195312 254.474609375 c 1
 191.108398438 249.94140625 187.424804688 250.791992188 184.025390625 257.025390625 c 1
 186.291992188 211.69140625 189.692382812 161.541992188 194.224609375 106.575195312 c 0
 196.4921875 80.5078125 197.625 65.4912109375 197.625 61.5244140625 c 2
 197.625 60.673828125 l 2
 197.625 52.7412109375 194.224609375 46.5078125 187.424804688 41.974609375 c 0
 179.4921875 36.875 170.708984375 34.3251953125 161.076171875 34.3251953125 c 2
 158.525390625 34.3251953125 l 2
 148.326171875 34.3251953125 140.109375 37.158203125 133.875976562 42.8251953125 c 0
 129.342773438 47.3583984375 127.076171875 53.5908203125 127.076171875 61.5244140625 c 0
 127.076171875 63.2236328125 127.217773438 67.6162109375 127.500976562 74.69921875 c 0
 127.784179688 81.7822265625 127.92578125 97.7900390625 127.92578125 122.723632812 c 0
 128.0390625 128.504882812 128.095703125 135.568359375 128.095703125 143.913085938 c 0xec
 128.095703125 177.278320312 127.189453125 231.131835938 125.375976562 305.473632812 c 0
 123.67578125 366.672851562 122.826171875 408.323242188 122.826171875 430.422851562 c 0
 122.258789062 444.0234375 121.975585938 462.297851562 121.975585938 485.248046875 c 0
 121.975585938 508.198242188 122.54296875 539.790039062 123.67578125 580.0234375 c 1
 122.54296875 575.490234375 121.692382812 576.341796875 121.125 582.575195312 c 1
EndSplineSet
Validated: 524289
EndChar

